<?xml version="1.0" encoding="UTF-8"?>
<svg xmlns="http://www.w3.org/2000/svg" width="169" height="67" viewBox="0 0 169 67" fill="none">
  <path d="M0 63.4885L5.2834 65.3709L11.4809 49.8211H28.3743V44.9396H13.4252L21.2054 25.415L15.922 23.5326L0 63.4885ZM20.7892 13.073L41.8554 65.3709L47.1388 63.4885L26.0726 11.2597L20.7892 13.073Z" fill="#1D1D1B"></path>
  <path d="M83.0737 17.6725L78.5537 19.4153C77.6726 16.3931 76.0397 14.0804 73.652 12.4772C71.2642 10.874 68.634 10.071 65.7613 10.071C62.7479 10.071 60.1636 10.946 58.0084 12.696C55.8531 14.446 54.7755 16.8119 54.7755 19.7966C54.7755 21.8488 55.4112 23.7053 56.6839 25.3617C57.9553 27.0182 59.7705 28.1033 62.1309 28.6156L63.7653 28.9898L62.5284 33.9188L60.9643 33.572C57.3024 32.6898 54.4526 30.9686 52.4122 28.4112C50.3717 25.8554 49.3529 23.0188 49.3529 19.9046C49.3529 15.3022 50.9744 11.7116 54.2202 9.13126C57.4645 6.5509 61.3116 5.26144 65.7613 5.26144C69.7475 5.26144 73.3506 6.33072 76.572 8.46926C79.7934 10.6078 81.9602 13.676 83.0722 17.6739M83.6979 44.7295C83.6979 49.1462 82.075 52.8534 78.8306 55.8525C75.5862 58.8502 71.4149 60.3498 66.3166 60.3498C62.1898 60.3498 58.436 59.2791 55.0539 57.142C51.6703 55.0049 49.3285 51.8661 48.0313 47.7286L52.7594 45.7757C53.7323 48.9836 55.437 51.4013 57.8706 53.0275C60.3043 54.6552 63.0507 55.4683 66.11 55.4683C69.4921 55.4683 72.3777 54.5256 74.7655 52.6404C77.1517 50.7537 78.3456 48.1805 78.3456 44.9209C78.3456 42.5003 77.6281 40.474 76.1932 38.8435C74.7568 37.2144 72.6733 36.1192 69.9412 35.5608L68.5809 35.26L69.891 30.3958L71.8655 30.8491C75.6709 31.6349 78.5938 33.2669 80.6372 35.7422C82.6791 38.2175 83.7007 41.2137 83.7007 44.7295" fill="#1D1D1B"></path>
  <path d="M134.74 46.5442L139.885 48.7058C137.845 54.1917 134.612 58.4098 130.187 61.3615C125.758 64.3146 120.927 65.7897 115.69 65.7897C111.471 65.7897 107.519 64.8715 103.836 63.0352C100.151 61.1989 97.0226 58.3868 94.4498 54.5976C91.877 50.8098 90.3574 46.3586 89.8953 41.2439H95.4571C96.1057 47.3343 98.3887 52.1338 102.306 55.6424C106.222 59.1524 110.708 60.9067 115.76 60.9067C119.885 60.9067 123.686 59.6633 127.163 57.1765C130.64 54.6911 133.166 51.1451 134.741 46.5428M139.887 27.8543L134.811 30.0159C133.189 25.3689 130.65 21.7999 127.198 19.3116C123.745 16.8263 119.933 15.5814 115.76 15.5814C110.755 15.5814 106.281 17.3357 102.342 20.8457C98.4016 24.3572 96.1071 29.1337 95.4585 35.1751H89.8968C90.3588 30.1094 91.8884 25.6812 94.4857 21.892C97.0814 18.1042 100.221 15.2921 103.907 13.4544C107.592 11.6181 111.521 10.6999 115.692 10.6999C120.976 10.6999 125.832 12.1764 130.258 15.1281C134.684 18.0812 137.895 22.3223 139.888 27.8543" fill="#1D1D1B"></path>
  <path d="M169 12.8154H163.441V54.2018H169V12.8154Z" fill="#1D1D1B"></path>
  <path d="M153.663 12.7982H148.105V54.1846H153.663V12.7982Z" fill="#1D1D1B"></path>
  <path d="M153.751 0H148.199V6.81283H153.751V0Z" fill="black"></path>
  <path d="M168.905 59.3248H163.354V66.1376H168.905V59.3248Z" fill="black"></path>
</svg>
