<?xml version="1.0" encoding="UTF-8" standalone="no"?>
<svg
   preserveAspectRatio="none"
   viewBox="409.6 409.6 1220.608 1228.8"
   style="max-height: 500px"
   version="1.1"
   width="1220.608"
   height="1228.8"
   id="svg16"
   sodipodi:docname="metaxy.svg"
   inkscape:version="1.4.3 (0d15f75042, 2025-12-25)"
   xmlns:inkscape="http://www.inkscape.org/namespaces/inkscape"
   xmlns:sodipodi="http://sodipodi.sourceforge.net/DTD/sodipodi-0.dtd"
   xmlns="http://www.w3.org/2000/svg"
   xmlns:svg="http://www.w3.org/2000/svg">
  <defs
     id="defs16">
    <inkscape:path-effect
       effect="fill_between_many"
       method="originald"
       linkedpaths="#path17,0,1|"
       id="path-effect17" />
    <inkscape:path-effect
       effect="fill_between_many"
       method="originald"
       linkedpaths="#path17,0,1|"
       id="path-effect18" />
  </defs>
  <sodipodi:namedview
     id="namedview16"
     pagecolor="#ffffff"
     bordercolor="#000000"
     borderopacity="0.25"
     inkscape:showpageshadow="2"
     inkscape:pageopacity="0.0"
     inkscape:pagecheckerboard="0"
     inkscape:deskcolor="#d1d1d1"
     inkscape:zoom="0.70710678"
     inkscape:cx="350.72496"
     inkscape:cy="639.22453"
     inkscape:window-width="2560"
     inkscape:window-height="1440"
     inkscape:window-x="0"
     inkscape:window-y="0"
     inkscape:window-maximized="1"
     inkscape:current-layer="svg16" />
  <path
     d="m 845.315,465.921 c 3.282,1.155 37.609,54.717 42.618,62.321 -80.041,107.281 -140.992,227.556 -180.176,355.542 -10.476,33.682 -20.587,67.477 -30.331,101.379 -4.936,17.147 -9.833,35.487 -15.65,52.347 -1.268,3.67 -2.464,3.48 -5.626,4.8 -3.642,-3.83 -8.414,-19.15 -10.515,-24.74 -15.131,-40.278 -19.606,-83.127 -24.148,-125.627 -11.238,-105.17 -9.747,-207.574 -8.425,-312.843 39.303,-18.688 78.547,-40.569 118.254,-59.677 l 74.315,-34.918 c 13.146,-6.091 26.949,-11.859 39.684,-18.584 z"
     fill="#696fcc"
     id="path1" />
  <path
     d="M 1018.74 423.379 C 1074.42 429.564 1134.32 442.218 1189.61 452.035 C 1212.46 456.091 1236.67 462.152 1259.48 465.362 C 1258.72 495.287 1257.22 525.445 1257.01 555.329 C 1137.8 587.234 1022.66 632.793 913.9 691.103 C 882.592 706.85 849.292 728.122 818.612 745.29 C 804.867 752.981 777.798 769.852 763.572 774.816 C 760.367 773.7 761.644 774.634 759.611 771.908 C 759.601 763.45 784.178 714.591 789.588 705.931 C 815.31 664.751 846.731 624.451 877.26 586.683 C 922.6 530.698 969.787 476.233 1018.74 423.379 z"
     fill="rgb(70,68,173)"
     transform="translate(0,0)"
     id="path2" />
  <path
     d="m 515.744,761.018 c 20.726,4.341 47.062,8.285 68.125,11.674 7.05,54.346 12.592,101.987 24.983,156.122 19.054,83.246 47.187,157.516 82.789,234.776 12.559,27.15 25.528,54.1 38.903,80.86 6.759,13.7 14.131,27.67 20.169,41.51 9.823,22.52 -11.349,9.49 -20.148,5.17 -13.694,-6.72 -27.122,-14.28 -39.458,-22.95 -87.931,-66.3 -164.109,-151.3 -238.682,-231.93 -11.219,-12.13 -23.384,-25.16 -33.605,-38.06 30.506,-79.779 62.823,-158.858 96.924,-237.172 z"
     fill="#696fcc"
     id="path3" />
  <path
     d="m 523.231,1159.91 c 4.198,1.74 29.846,24.32 34.856,28.44 12.854,10.57 25.93,20.86 39.22,30.88 95.728,71.66 181.433,107.87 292.758,147.07 23.557,8.08 47.035,16.4 70.431,24.94 7.802,2.9 24.609,8.9 31.421,12.9 0.213,3.1 0.543,4.23 -0.711,7.09 -9.369,4.77 -48.653,13.35 -60.33,15.48 -22.961,4.29 -69.561,5.15 -93.681,5.54 -95.853,1.56 -192.784,-5.36 -288.198,-14.52 -28.938,-68.95 -58.916,-156.78 -82.003,-227.95 17.841,-10.29 37.901,-20.42 56.237,-29.87 z"
     fill="#94a9f0"
     id="path4" />
  <path
     d="M 1410.29 559.449 L 1411.82 559.613 C 1422.89 573.975 1436.86 595.882 1447.06 611.247 C 1469.89 645.189 1491.84 679.715 1512.89 714.79 C 1493.89 734.918 1474.62 754.775 1455.06 774.355 C 1434.72 764.84 1413.17 757.208 1392.29 749.151 C 1315.39 719.475 1246.28 705.175 1165.24 694.176 C 1122.04 688.397 1077.08 685.81 1033.68 680.66 C 1017.66 678.759 999.494 677.661 983.882 674.889 C 982.118 671.632 982.634 673.373 982.674 669.373 C 987.355 664.946 994.994 662.025 1000.87 658.234 C 1043.22 630.904 1097.24 618.052 1145.75 605.47 C 1232.99 582.842 1320.85 570.201 1410.29 559.449 z"
     fill="rgb(148,169,240)"
     transform="translate(0,0)"
     id="path5" />
  <path
     d="M 1212.78 711.439 C 1232.1 715.811 1255.24 717.554 1273.34 723.023 C 1297.79 730.41 1324.2 741.824 1347.6 751.977 C 1440.65 792.352 1526.27 844.332 1612.44 897.19 C 1606.02 959.058 1598.08 1020.76 1588.64 1082.24 C 1588.14 1085.87 1587.36 1089.75 1586.72 1093.38 L 1516.81 1105.72 C 1509.26 1088.04 1497.99 1067.99 1488.91 1050.98 C 1439.99 959.003 1375.29 878.009 1300.23 806.071 C 1270.55 777.624 1240.79 748.329 1212.19 718.811 C 1210.48 717.05 1212.18 713.595 1212.78 711.439 z"
     fill="rgb(105,111,204)"
     transform="translate(0,0)"
     id="path6" />
  <path
     d="M 1380.43 909.111 C 1385.39 910.411 1389.66 917.151 1393.08 921.023 C 1407.39 937.249 1419.28 954.051 1429.17 973.402 C 1484.74 1082.04 1520.72 1199.54 1553.61 1316.67 C 1526.65 1345.13 1500.56 1374.63 1473.31 1403.3 C 1457.72 1420 1442.02 1436.59 1426.22 1453.08 C 1419.32 1448.09 1407.48 1441.28 1399.91 1436.59 C 1386.67 1428.33 1373.49 1419.96 1360.39 1411.49 C 1376.71 1338.1 1385.59 1245.01 1387.86 1169.88 C 1389.46 1117.01 1385.46 1061.04 1383.18 1007.5 C 1382.12 982.358 1377.69 939.382 1377.68 912.712 C 1378.76 911.305 1379.67 910.104 1380.43 909.111 z"
     fill="rgb(70,68,173)"
     transform="translate(0,0)"
     id="path7" />
  <path
     d="M 1367.67 1174.59 C 1372.86 1175.97 1372.55 1175.02 1375.59 1178.33 C 1377.29 1183.5 1376.09 1189.63 1376.48 1195.21 C 1377.92 1216.39 1376.14 1237.45 1371.8 1258.21 C 1348.75 1368.47 1313.87 1477.12 1277.07 1583.53 C 1253.4 1586.91 1229.1 1591.41 1205.4 1595.17 L 1102.16 1610.9 L 1097.11 1598.63 C 1088.58 1578.71 1080.27 1558.69 1072.2 1538.58 C 1076.99 1534.7 1081.87 1529.89 1086.36 1525.62 C 1185.98 1430.98 1269.05 1322.08 1344.83 1207.89 C 1352.31 1196.61 1360.46 1186.26 1367.67 1174.59 z"
     fill="rgb(105,111,204)"
     transform="translate(0,0)"
     id="path8" />
  <path
     d="M 1214.15 1358.18 C 1215.27 1358.98 1218.92 1362.69 1220.1 1363.85 C 1208.13 1378.44 1199.5 1394.25 1184.99 1408.45 C 1167.48 1425.58 1149.39 1441.24 1130.53 1456.85 C 1096.6 1484.67 1061.92 1511.56 1026.52 1537.47 C 989.706 1564.51 943.525 1598.54 904.842 1621.91 C 894.307 1617.69 878.976 1609.4 868.648 1604.11 C 846.539 1592.72 824.523 1581.15 802.604 1569.41 L 740.383 1535.83 C 746.785 1514.03 754.085 1482.37 758.741 1460.06 C 780.042 1459.99 815.77 1455.8 837.08 1453.44 C 901.696 1446.35 965.638 1434.07 1028.29 1416.73 C 1091.62 1398.99 1151.6 1377.04 1214.15 1358.18 z"
     fill="rgb(70,68,173)"
     transform="translate(0,0)"
     id="path9" />
  <path
     inkscape:original-d="M 0,0"
     inkscape:path-effect="#path-effect17"
     d="m 1047.4947,911.88325 -90.15569,21.33537 -52.17724,79.85918 18.20232,93.3975 81.29871,50.4566 92.9786,-22.5833 51.3817,-77.2405 -18.4616,-99.29613 z"
     id="path18" />
  <path
     inkscape:original-d="M 0,0"
     inkscape:path-effect="#path-effect18"
     d="m 1047.4947,911.88325 -90.15569,21.33537 -52.17724,79.85918 18.20232,93.3975 81.29871,50.4566 92.9786,-22.5833 51.3817,-77.2405 -18.4616,-99.29613 z"
     id="path19" />
  <path
     d="m 1026.4107,925.71265 -79.67999,34.33891 -35.13547,82.13854 31.97654,83.1794 83.18642,33.3145 82.0806,-35.949 34.8276,-79.594 -33.1749,-88.57748 z"
     style="fill:#94a9f0"
     id="path17"
     sodipodi:nodetypes="ccccccccc"
     transform="matrix(1.0515639,0.18541908,-0.18541908,1.0515639,139.80305,-251.87888)" />
  <path
     d="M 1045.57 698.694 C 1051.31 699.268 1069.86 704.089 1076.1 705.66 C 1133.12 720.196 1188.3 741.207 1240.54 768.285 C 1231.71 795.575 1222.56 822.763 1213.11 849.844 C 1152.29 840.642 1080.37 840.73 1021.4 858.921 C 961.62 879.233 942.784 897.434 894.903 933.063 C 906.462 855.483 993.998 754.002 1045.57 698.694 z"
     fill="rgb(148,169,240)"
     transform="translate(0,0)"
     id="path12" />
  <path
     d="m 702.71606,1127.2058 c -1.45495,-5.0944 -3.50639,-22.534 -4.2418,-28.3838 -6.5588,-53.5137 -6.70045,-107.58582 -0.41243,-161.14212 27.41472,-1.43506 54.848,-2.56308 82.28852,-3.39948 12.62826,55.00578 37.36397,116.4403 73.83748,160.85 38.6466,44.4037 61.36949,54.5112 109.62452,83.7051 -73.29149,15.6535 -193.98987,-25.7579 -261.09629,-51.6297 z"
     fill="#94a9f0"
     id="path12-2"
     style="stroke-width:0.936239" />
  <path
     d="M 1099.64 859.417 C 1106.92 858.496 1126.26 858.782 1134.33 859.208 C 1204.85 862.931 1269.94 883.794 1334.38 910.949 C 1336.11 925.925 1339.47 941.906 1341.8 956.948 C 1350.34 1012.07 1351.12 1065.49 1351.03 1121.04 L 1305.04 1120.75 C 1294.52 1120.4 1283.71 1120.4 1273.17 1120.27 C 1272.81 1118.99 1272.44 1117.7 1272.06 1116.42 C 1247.3 1032.75 1202.57 953.84 1126.84 906.445 C 1098.76 888.867 1076.04 881.696 1050.14 867.334 L 1048.74 866.551 C 1063.37 862.879 1084.61 860.489 1099.64 859.417 z"
     fill="rgb(105,111,204)"
     id="path13"
     transform="translate(0,0)" />
  <path
     d="m 1229.1648,1068.2933 c 2.7741,6.7937 7.5033,25.5487 9.1805,33.454 14.6559,69.0806 11.3502,137.3523 1.7987,206.625 -14.0181,5.547 -28.5848,12.9288 -42.5111,19.0726 -51.0336,22.5157 -102.4313,37.0951 -156.1118,51.3857 l -11.623,-44.4982 c -2.3846,-10.2521 -5.1827,-20.6938 -7.785,-30.9083 1.1432,-0.679 2.2936,-1.3703 3.4316,-2.0685 74.4108,-45.5717 139.0548,-109.2011 165.2346,-194.6174 9.7116,-31.6726 10.7575,-55.4744 17.9269,-84.209 l 0.3939,-1.555 c 7.3334,13.181 15.1393,33.0786 20.0646,47.3191 z"
     fill="#696fcc"
     id="path13-6" />
  <path
     d="m 838.15502,1026.8967 c -4.01776,-5.609 -12.4821,-21.7697 -15.76626,-28.6545 -28.69844,-60.16326 -41.10422,-123.72982 -48.13325,-189.65937 11.32459,-8.33953 22.72813,-18.49358 33.836,-27.36092 40.70501,-32.49612 83.52338,-57.77568 128.45434,-83.3167 l 20.44356,38.25017 c 4.44701,8.8803 9.30766,17.83954 13.94144,26.63499 -0.8725,0.88859 -1.74868,1.79015 -2.61224,2.6952 -56.48214,59.10326 -100.1385,132.56265 -104.38952,217.18228 -1.57992,31.37815 2.84072,53.51485 2.87956,81.60335 l -0.003,1.5215 c -9.54522,-10.432 -21.02649,-26.9335 -28.6503,-38.8959 z"
     fill="#696fcc"
     id="path13-6-5"
     style="stroke-width:0.936529" />
  <path
     d="m 773.0255,1203.0157 c 0.55209,-1.2758 2.80656,-6.4783 4.42392,-6.4049 12.19147,0.7834 25.2931,2.7516 37.34304,4.6461 76.57894,12.0354 151.65818,5.244 227.89034,-6.0067 21.5257,-3.1817 52.6603,-9.0035 73.8752,-9.783 -13.5406,13.6935 -26.9455,26.9169 -41.7007,39.3634 -53.1796,46.0083 -132.21371,86.4879 -196.11874,115.7857 -18.11356,-11.6896 -36.45688,-21.9188 -54.85166,-34.3754 -27.10562,-18.3577 -49.78255,-35.8627 -74.96936,-56.578 8.33195,-15.4013 16.36937,-30.953 24.10796,-46.6472 z"
     fill="#94a9f0"
     id="path16-5"
     style="stroke-width:1.12421" />
</svg>
