<svg viewBox="0 0 1461 1315" fill="none" xmlns="http://www.w3.org/2000/svg">
<circle opacity="0.5" cx="727.5" cy="657.5" r="657.5" fill="#4F43DD" fill-opacity="0.12"/>
<circle opacity="0.5" cx="727.5" cy="657.5" r="367.5" fill="#4F43DD" fill-opacity="0.12"/>
<ellipse opacity="0.3" cx="727.5" cy="661" rx="288.5" ry="288" fill="#4F43DD" fill-opacity="0.12"/>
<path d="M621.338 646.524C608.858 646.524 600.026 637.692 600.026 622.844C600.026 608.38 608.41 599.036 621.466 599.036C633.37 599.036 639.771 605.116 641.754 615.932L631.642 616.316C630.554 610.62 627.098 607.228 621.466 607.228C614.234 607.228 610.01 613.372 610.01 622.844C610.01 632.444 614.426 638.332 621.402 638.332C627.546 638.332 630.874 634.684 631.77 628.54L641.946 628.924C640.09 639.996 633.114 646.524 621.338 646.524ZM662.711 646.268C652.215 646.268 645.431 639.164 645.431 628.348C645.431 617.532 652.215 610.428 662.647 610.428C672.823 610.428 679.415 617.468 679.415 628.988V630.908H655.351C655.543 636.348 658.423 638.972 662.903 638.972C666.103 638.972 668.343 637.628 669.303 634.812L678.967 635.388C677.111 642.236 670.967 646.268 662.711 646.268ZM669.623 625.02C669.367 620.028 666.615 617.532 662.647 617.532C658.615 617.532 655.863 620.284 655.351 625.02H669.623ZM684.316 645.5V611.196H692.956L693.148 616.828C695.068 612.22 698.781 610.428 703.324 610.428C710.684 610.428 714.972 615.484 714.972 623.42V645.5H705.372V626.62C705.372 621.116 704.156 618.044 700.125 618.044C696.156 618.044 693.916 621.116 693.916 626.62V645.5H684.316ZM734.432 645.5C727.328 645.5 724.128 642.364 724.128 635.196V618.364H718.624V611.196H724.128V603.132H733.728V611.196H742.752V618.364H733.728V634.044C733.728 637.372 735.136 638.332 737.952 638.332H742.752V645.5H734.432ZM747.882 645.5V611.196H756.97L757.162 618.108C758.57 613.244 761.13 611.196 765.354 611.196H768.49V619.132H765.354C759.978 619.132 757.482 621.116 757.482 626.236V645.5H747.882ZM782.906 646.268C775.738 646.268 770.874 642.812 770.874 636.924C770.874 630.908 774.65 627.836 782.138 626.3L793.21 624.124C793.21 619.644 791.162 617.404 787.322 617.404C783.738 617.404 781.69 619.132 781.05 622.332L771.45 621.884C772.73 614.332 778.426 610.428 787.322 610.428C797.562 610.428 802.81 615.42 802.81 624.764V636.476C802.81 638.396 803.45 638.908 804.73 638.908H805.69V645.5C805.05 645.692 803.578 645.884 802.234 645.884C798.714 645.884 795.578 644.668 794.746 640.316C792.954 643.964 788.73 646.268 782.906 646.268ZM785.21 639.676C790.01 639.676 793.21 636.732 793.21 631.804V630.14L785.402 631.804C782.266 632.444 780.73 633.788 780.73 636.028C780.73 638.332 782.266 639.676 785.21 639.676ZM818.782 645.5C813.214 645.5 809.822 642.876 809.822 636.54V600.06H819.422V635.516C819.422 637.564 820.382 638.332 822.174 638.332H824.478V645.5H818.782ZM581.997 722.5V677.06H600.173C611.053 677.06 617.645 682.692 617.645 691.908C617.645 701.124 611.053 706.82 600.173 706.82H591.725V722.5H581.997ZM599.597 698.628C604.717 698.628 607.661 696.324 607.661 691.908C607.661 687.492 604.717 685.252 599.597 685.252H591.725V698.628H599.597ZM632.165 722.5C626.597 722.5 623.205 719.876 623.205 713.54V677.06H632.805V712.516C632.805 714.564 633.765 715.332 635.557 715.332H637.861V722.5H632.165ZM653.104 723.268C645.936 723.268 641.072 719.812 641.072 713.924C641.072 707.908 644.848 704.836 652.336 703.3L663.408 701.124C663.408 696.644 661.36 694.404 657.52 694.404C653.936 694.404 651.888 696.132 651.248 699.332L641.648 698.884C642.928 691.332 648.624 687.428 657.52 687.428C667.76 687.428 673.008 692.42 673.008 701.764V713.476C673.008 715.396 673.648 715.908 674.928 715.908H675.888V722.5C675.248 722.692 673.776 722.884 672.432 722.884C668.912 722.884 665.776 721.668 664.944 717.316C663.152 720.964 658.928 723.268 653.104 723.268ZM655.408 716.676C660.208 716.676 663.408 713.732 663.408 708.804V707.14L655.6 708.804C652.464 709.444 650.928 710.788 650.928 713.028C650.928 715.332 652.464 716.676 655.408 716.676ZM692.166 722.5C685.062 722.5 681.862 719.364 681.862 712.196V695.364H676.358V688.196H681.862V680.132H691.462V688.196H700.486V695.364H691.462V711.044C691.462 714.372 692.87 715.332 695.686 715.332H700.486V722.5H692.166ZM709.015 687.748C709.015 680.964 712.599 677.06 720.343 677.06H727.639V684.228H722.391C719.703 684.228 718.615 685.572 718.615 688.196V689.476H727.127V696.644H718.615V722.5H709.015V696.644H704.023V689.476H709.015V687.748ZM746.453 723.268C735.957 723.268 729.045 716.228 729.045 705.348C729.045 694.532 735.957 687.428 746.453 687.428C756.949 687.428 763.861 694.532 763.861 705.348C763.861 716.228 756.949 723.268 746.453 723.268ZM746.453 715.908C751.253 715.908 753.941 712.004 753.941 705.348C753.941 698.692 751.253 694.788 746.453 694.788C741.653 694.788 738.901 698.692 738.901 705.348C738.901 712.004 741.653 715.908 746.453 715.908ZM768.743 722.5V688.196H777.831L778.023 695.108C779.431 690.244 781.991 688.196 786.215 688.196H789.351V696.132H786.215C780.839 696.132 778.343 698.116 778.343 703.236V722.5H768.743ZM793.338 722.5V688.196H801.978L802.17 693.764C803.962 689.732 807.418 687.428 811.514 687.428C816.442 687.428 819.834 690.052 821.306 694.404C822.97 689.86 826.426 687.428 830.97 687.428C838.01 687.428 842.49 691.972 842.49 700.42V722.5H832.89V703.108C832.89 697.732 831.29 695.044 827.706 695.044C824.186 695.044 822.202 698.052 822.202 703.236V722.5H813.562V703.236C813.562 697.924 812.154 695.044 808.442 695.044C804.922 695.044 802.938 698.052 802.938 703.236V722.5H793.338Z" fill="#030615"/>
<path d="M428.039 222V153.84H455.303C471.623 153.84 481.511 162.288 481.511 176.112C481.511 189.936 471.623 198.48 455.303 198.48H442.631V222H428.039ZM454.439 186.192C462.119 186.192 466.535 182.736 466.535 176.112C466.535 169.488 462.119 166.128 454.439 166.128H442.631V186.192H454.439ZM503.995 223.152C493.243 223.152 485.947 217.968 485.947 209.136C485.947 200.112 491.611 195.504 502.843 193.2L519.451 189.936C519.451 183.216 516.379 179.856 510.619 179.856C505.243 179.856 502.171 182.448 501.211 187.248L486.811 186.576C488.731 175.248 497.275 169.392 510.619 169.392C525.979 169.392 533.851 176.88 533.851 190.896V208.464C533.851 211.344 534.811 212.112 536.731 212.112H538.171V222C537.211 222.288 535.003 222.576 532.987 222.576C527.707 222.576 523.003 220.752 521.755 214.224C519.067 219.696 512.731 223.152 503.995 223.152ZM507.451 213.264C514.651 213.264 519.451 208.848 519.451 201.456V198.96L507.739 201.456C503.035 202.416 500.731 204.432 500.731 207.792C500.731 211.248 503.035 213.264 507.451 213.264ZM560.575 223.152C549.823 223.152 542.527 217.968 542.527 209.136C542.527 200.112 548.191 195.504 559.423 193.2L576.031 189.936C576.031 183.216 572.959 179.856 567.199 179.856C561.823 179.856 558.751 182.448 557.791 187.248L543.391 186.576C545.311 175.248 553.855 169.392 567.199 169.392C582.559 169.392 590.431 176.88 590.431 190.896V208.464C590.431 211.344 591.391 212.112 593.311 212.112H594.751V222C593.791 222.288 591.583 222.576 589.567 222.576C584.287 222.576 579.583 220.752 578.335 214.224C575.647 219.696 569.311 223.152 560.575 223.152ZM564.031 213.264C571.231 213.264 576.031 208.848 576.031 201.456V198.96L564.319 201.456C559.615 202.416 557.311 204.432 557.311 207.792C557.311 211.248 559.615 213.264 564.031 213.264ZM629.438 223.536C611.87 223.536 601.406 214.128 600.446 199.536L615.134 198.864C616.19 206.928 620.894 211.44 629.63 211.44C636.926 211.44 641.054 208.752 641.054 203.568C641.054 198.864 638.654 196.08 625.886 193.2C608.414 189.264 601.694 184.464 601.694 172.848C601.694 160.656 611.294 152.304 627.23 152.304C644.222 152.304 653.246 161.904 654.782 175.344L640.19 176.112C639.422 169.008 634.91 164.4 627.038 164.4C620.51 164.4 616.478 167.568 616.478 172.368C616.478 177.456 619.55 179.568 630.686 181.872C649.598 185.712 655.838 192.528 655.838 202.896C655.838 215.664 645.662 223.536 629.438 223.536ZM708.566 223.152C692.822 223.152 682.454 212.592 682.454 196.272C682.454 180.048 692.822 169.392 708.566 169.392C724.31 169.392 734.678 180.048 734.678 196.272C734.678 212.592 724.31 223.152 708.566 223.152ZM708.566 212.112C715.766 212.112 719.798 206.256 719.798 196.272C719.798 186.288 715.766 180.432 708.566 180.432C701.366 180.432 697.238 186.288 697.238 196.272C697.238 206.256 701.366 212.112 708.566 212.112ZM746.538 169.872C746.538 159.696 751.914 153.84 763.53 153.84H774.474V164.592H766.602C762.57 164.592 760.938 166.608 760.938 170.544V172.464H781.098V169.872C781.098 159.696 786.474 153.84 798.09 153.84H809.034V164.592H801.162C797.13 164.592 795.498 166.608 795.498 170.544V172.464H808.266V183.216H795.498V222H781.098V183.216H760.938V222H746.538V183.216H739.05V172.464H746.538V169.872ZM837.096 223.152C821.352 223.152 811.176 212.496 811.176 196.272C811.176 180.048 821.352 169.392 837 169.392C852.264 169.392 862.153 179.952 862.153 197.232V200.112H826.056C826.344 208.272 830.664 212.208 837.384 212.208C842.184 212.208 845.544 210.192 846.984 205.968L861.48 206.832C858.696 217.104 849.48 223.152 837.096 223.152ZM847.464 191.28C847.08 183.792 842.952 180.048 837 180.048C830.952 180.048 826.824 184.176 826.056 191.28H847.464ZM869.505 222V170.544H883.137L883.425 180.912C885.537 173.616 889.377 170.544 895.713 170.544H900.417V182.448H895.713C887.649 182.448 883.905 185.424 883.905 193.104V222H869.505ZM907.054 222V170.544H921.454V222H907.054ZM906.766 164.208V152.688H921.646V164.208H906.766ZM930.915 222V170.544H943.875L944.163 178.992C947.043 172.08 952.611 169.392 959.427 169.392C970.467 169.392 976.899 176.976 976.899 188.88V222H962.499V193.68C962.499 185.424 960.675 180.816 954.627 180.816C948.675 180.816 945.315 185.424 945.315 193.68V222H930.915ZM1009.7 237.552C994.912 237.552 987.712 231.6 985.408 223.152L1000.19 222.096C1001.25 225.456 1003.65 227.472 1009.7 227.472C1016.51 227.472 1020.35 224.4 1020.35 217.2V211.728C1017.86 216.528 1012.1 219.6 1005.47 219.6C992.8 219.6 983.872 209.808 983.872 194.544C983.872 179.76 992.704 169.392 1005.28 169.392C1012.77 169.392 1018.05 173.04 1020.74 178.512V170.544H1034.85V216.912C1034.85 230.736 1024.58 237.552 1009.7 237.552ZM1009.6 208.944C1016.13 208.944 1020.35 203.568 1020.45 194.448C1020.54 185.424 1016.22 179.952 1009.6 179.952C1002.69 179.952 998.656 185.712 998.656 194.448C998.656 203.28 1002.88 208.944 1009.6 208.944Z" fill="#030615"/>
<path d="M190 444.5C190 412.744 215.744 387 247.5 387H683.5C715.256 387 741 412.744 741 444.5C741 476.256 715.256 502 683.5 502H247.5C215.744 502 190 476.256 190 444.5Z" fill="white"/>
<path d="M247.5 388H683.5C714.704 388 740 413.296 740 444.5C740 475.704 714.704 501 683.5 501H247.5C216.296 501 191 475.704 191 444.5C191 413.296 216.296 388 247.5 388Z" stroke="#67748A" stroke-opacity="0.3" stroke-width="2"/>
<path d="M236.238 453.425C237.726 452.287 239.388 451.391 241.226 450.734C243.063 450.078 244.988 449.75 247.001 449.75C249.013 449.75 250.938 450.078 252.776 450.734C254.613 451.391 256.276 452.287 257.763 453.425C258.784 452.229 259.579 450.873 260.148 449.356C260.717 447.84 261.001 446.221 261.001 444.5C261.001 440.621 259.637 437.318 256.91 434.591C254.183 431.863 250.88 430.5 247.001 430.5C243.122 430.5 239.819 431.863 237.092 434.591C234.365 437.318 233.001 440.621 233.001 444.5C233.001 446.221 233.285 447.84 233.854 449.356C234.423 450.873 235.218 452.229 236.238 453.425ZM247.001 446.25C245.28 446.25 243.829 445.659 242.648 444.478C241.467 443.297 240.876 441.846 240.876 440.125C240.876 438.404 241.467 436.953 242.648 435.772C243.829 434.591 245.28 434 247.001 434C248.722 434 250.173 434.591 251.354 435.772C252.535 436.953 253.126 438.404 253.126 440.125C253.126 441.846 252.535 443.297 251.354 444.478C250.173 445.659 248.722 446.25 247.001 446.25ZM247.001 462C244.58 462 242.305 461.541 240.176 460.622C238.047 459.703 236.195 458.456 234.62 456.881C233.045 455.306 231.798 453.454 230.879 451.325C229.96 449.196 229.501 446.921 229.501 444.5C229.501 442.079 229.96 439.804 230.879 437.675C231.798 435.546 233.045 433.694 234.62 432.119C236.195 430.544 238.047 429.297 240.176 428.378C242.305 427.459 244.58 427 247.001 427C249.422 427 251.697 427.459 253.826 428.378C255.955 429.297 257.807 430.544 259.382 432.119C260.957 433.694 262.204 435.546 263.123 437.675C264.042 439.804 264.501 442.079 264.501 444.5C264.501 446.921 264.042 449.196 263.123 451.325C262.204 453.454 260.957 455.306 259.382 456.881C257.807 458.456 255.955 459.703 253.826 460.622C251.697 461.541 249.422 462 247.001 462ZM247.001 458.5C248.547 458.5 250.005 458.274 251.376 457.822C252.747 457.37 254.001 456.721 255.138 455.875C254.001 455.029 252.747 454.38 251.376 453.928C250.005 453.476 248.547 453.25 247.001 453.25C245.455 453.25 243.997 453.476 242.626 453.928C241.255 454.38 240.001 455.029 238.863 455.875C240.001 456.721 241.255 457.37 242.626 457.822C243.997 458.274 245.455 458.5 247.001 458.5ZM247.001 442.75C247.759 442.75 248.386 442.502 248.882 442.006C249.378 441.51 249.626 440.883 249.626 440.125C249.626 439.367 249.378 438.74 248.882 438.244C248.386 437.748 247.759 437.5 247.001 437.5C246.243 437.5 245.616 437.748 245.12 438.244C244.624 438.74 244.376 439.367 244.376 440.125C244.376 440.883 244.624 441.51 245.12 442.006C245.616 442.502 246.243 442.75 247.001 442.75Z" fill="#030615"/>
<path d="M284.756 457L293.972 431.44H298.148L307.364 457H303.98L301.424 449.728H290.696L288.14 457H284.756ZM291.74 446.704H300.38L296.06 434.14L291.74 446.704ZM317.31 457.432C311.982 457.432 308.562 453.508 308.562 447.46C308.562 441.412 311.982 437.488 317.31 437.488C321.702 437.488 324.762 439.864 325.41 444.112L322.242 444.328C321.81 441.808 319.902 440.368 317.31 440.368C313.782 440.368 311.73 443.032 311.73 447.46C311.73 451.888 313.782 454.552 317.31 454.552C319.902 454.552 321.81 453.112 322.242 450.232L325.41 450.448C324.762 454.696 321.702 457.432 317.31 457.432ZM336.277 457.432C330.949 457.432 327.529 453.508 327.529 447.46C327.529 441.412 330.949 437.488 336.277 437.488C340.669 437.488 343.729 439.864 344.377 444.112L341.209 444.328C340.777 441.808 338.869 440.368 336.277 440.368C332.749 440.368 330.697 443.032 330.697 447.46C330.697 451.888 332.749 454.552 336.277 454.552C338.869 454.552 340.777 453.112 341.209 450.232L344.377 450.448C343.729 454.696 340.669 457.432 336.277 457.432ZM355.245 457.432C349.845 457.432 346.497 453.508 346.497 447.46C346.497 441.412 349.845 437.488 355.101 437.488C360.069 437.488 363.525 441.088 363.525 447.496V448.396H349.665C349.881 452.5 351.933 454.552 355.245 454.552C357.729 454.552 359.349 453.292 359.997 451.348L363.237 451.6C362.229 455.02 359.277 457.432 355.245 457.432ZM360.213 445.732C359.925 442.06 357.909 440.368 355.101 440.368C352.149 440.368 350.169 442.204 349.665 445.732H360.213ZM374.271 457.432C369.159 457.432 366.315 454.732 366.027 450.988L369.195 450.772C369.555 453.076 371.031 454.552 374.271 454.552C376.863 454.552 378.555 453.76 378.555 451.888C378.555 450.376 377.799 449.728 373.695 449.008C368.223 448.036 366.495 446.344 366.495 443.32C366.495 439.936 369.087 437.488 373.695 437.488C378.339 437.488 380.787 440.296 381.363 443.608L378.195 443.824C377.763 441.808 376.251 440.368 373.659 440.368C370.923 440.368 369.663 441.556 369.663 443.176C369.663 445.048 370.887 445.768 374.271 446.344C380.103 447.352 381.723 448.864 381.723 451.888C381.723 455.416 378.483 457.432 374.271 457.432ZM392.465 457.432C387.353 457.432 384.509 454.732 384.221 450.988L387.389 450.772C387.749 453.076 389.225 454.552 392.465 454.552C395.057 454.552 396.749 453.76 396.749 451.888C396.749 450.376 395.993 449.728 391.889 449.008C386.417 448.036 384.689 446.344 384.689 443.32C384.689 439.936 387.281 437.488 391.889 437.488C396.533 437.488 398.981 440.296 399.557 443.608L396.389 443.824C395.957 441.808 394.445 440.368 391.853 440.368C389.117 440.368 387.857 441.556 387.857 443.176C387.857 445.048 389.081 445.768 392.465 446.344C398.297 447.352 399.917 448.864 399.917 451.888C399.917 455.416 396.677 457.432 392.465 457.432ZM419.619 457.432C414.291 457.432 410.871 453.508 410.871 447.46C410.871 441.412 414.291 437.488 419.619 437.488C424.011 437.488 427.071 439.864 427.719 444.112L424.551 444.328C424.119 441.808 422.211 440.368 419.619 440.368C416.091 440.368 414.039 443.032 414.039 447.46C414.039 451.888 416.091 454.552 419.619 454.552C422.211 454.552 424.119 453.112 424.551 450.232L427.719 450.448C427.071 454.696 424.011 457.432 419.619 457.432ZM438.586 457.432C433.294 457.432 429.838 453.544 429.838 447.46C429.838 441.376 433.294 437.488 438.586 437.488C443.842 437.488 447.298 441.376 447.298 447.46C447.298 453.544 443.842 457.432 438.586 457.432ZM438.586 454.552C442.078 454.552 444.13 451.888 444.13 447.46C444.13 443.032 442.078 440.368 438.586 440.368C435.058 440.368 433.006 443.032 433.006 447.46C433.006 451.888 435.058 454.552 438.586 454.552ZM450.978 457V437.92H453.75L453.822 441.34C454.83 438.712 457.062 437.488 459.69 437.488C464.046 437.488 466.134 440.692 466.134 444.724V457H463.11V445.588C463.11 442.06 461.922 440.152 459.042 440.152C456.09 440.152 454.002 442.06 454.002 445.588V457H450.978ZM477.07 457C473.614 457 471.994 455.488 471.994 452.104V440.584H469.186V437.92H471.994V433.456H475.018V437.92H480.094V440.584H475.018V452.032C475.018 453.76 475.774 454.336 477.358 454.336H480.094V457H477.07ZM483.745 457V437.92H486.409L486.517 441.448C487.201 439.036 488.713 437.92 491.053 437.92H492.925V440.8H491.089C488.209 440.8 486.769 442.348 486.769 445.48V457H483.745ZM503.241 457.432C497.949 457.432 494.493 453.544 494.493 447.46C494.493 441.376 497.949 437.488 503.241 437.488C508.497 437.488 511.953 441.376 511.953 447.46C511.953 453.544 508.497 457.432 503.241 457.432ZM503.241 454.552C506.733 454.552 508.785 451.888 508.785 447.46C508.785 443.032 506.733 440.368 503.241 440.368C499.713 440.368 497.661 443.032 497.661 447.46C497.661 451.888 499.713 454.552 503.241 454.552ZM519.413 457C517.181 457 515.633 455.92 515.633 453.4L515.669 431.44H518.693V453.148C518.693 453.94 519.089 454.336 519.881 454.336H521.537V457H519.413ZM533.424 457V437.92H536.448V457H533.424ZM533.352 434.932V431.404H536.52V434.932H533.352ZM540.965 457V437.92H543.737L543.809 441.34C544.817 438.712 547.049 437.488 549.677 437.488C554.033 437.488 556.121 440.692 556.121 444.724V457H553.097V445.588C553.097 442.06 551.909 440.152 549.029 440.152C546.077 440.152 543.989 442.06 543.989 445.588V457H540.965ZM569.443 462.4V437.92H572.251L572.287 440.836C573.439 438.64 575.563 437.488 578.155 437.488C583.843 437.488 586.399 442.204 586.399 447.46C586.399 452.716 583.843 457.432 578.155 457.432C575.671 457.432 573.475 456.316 572.467 454.48V462.4H569.443ZM577.867 454.552C581.179 454.552 583.231 451.924 583.231 447.46C583.231 442.996 581.179 440.368 577.867 440.368C574.555 440.368 572.467 442.78 572.467 447.46C572.467 452.14 574.519 454.552 577.867 454.552ZM593.843 457C591.611 457 590.063 455.92 590.063 453.4L590.099 431.44H593.123V453.148C593.123 453.94 593.519 454.336 594.311 454.336H595.967V457H593.843ZM604.83 457.432C600.87 457.432 598.386 455.524 598.386 452.248C598.386 449.008 600.222 447.208 604.398 446.416L611.166 445.156C611.166 441.952 609.654 440.368 606.63 440.368C603.966 440.368 602.49 441.592 601.914 443.788L598.71 443.536C599.43 439.936 602.31 437.488 606.63 437.488C611.526 437.488 614.19 440.44 614.19 445.264V453.148C614.19 454.012 614.478 454.336 615.198 454.336H615.954V457C615.738 457.036 615.27 457.072 614.802 457.072C612.498 457.072 611.454 456.172 611.202 454.048C610.266 456.028 607.638 457.432 604.83 457.432ZM605.118 454.768C608.934 454.768 611.166 452.32 611.166 449.152V447.784L604.974 448.936C602.382 449.404 601.554 450.376 601.554 451.96C601.554 453.76 602.886 454.768 605.118 454.768ZM624.576 457C621.12 457 619.5 455.488 619.5 452.104V440.584H616.692V437.92H619.5V433.456H622.524V437.92H627.6V440.584H622.524V452.032C622.524 453.76 623.28 454.336 624.864 454.336H627.6V457H624.576ZM632.947 436.192C632.947 433.384 634.531 431.44 637.987 431.44H641.011V434.104H638.203C636.691 434.104 635.971 434.968 635.971 436.408V437.92H640.759V440.584H635.971V457H632.947V440.584H630.355V437.92H632.947V436.192ZM651.169 457.432C645.877 457.432 642.421 453.544 642.421 447.46C642.421 441.376 645.877 437.488 651.169 437.488C656.425 437.488 659.881 441.376 659.881 447.46C659.881 453.544 656.425 457.432 651.169 457.432ZM651.169 454.552C654.661 454.552 656.713 451.888 656.713 447.46C656.713 443.032 654.661 440.368 651.169 440.368C647.641 440.368 645.589 443.032 645.589 447.46C645.589 451.888 647.641 454.552 651.169 454.552ZM663.561 457V437.92H666.225L666.333 441.448C667.017 439.036 668.529 437.92 670.869 437.92H672.741V440.8H670.905C668.025 440.8 666.585 442.348 666.585 445.48V457H663.561ZM675.532 457V437.92H678.304L678.376 441.268C679.312 438.928 681.292 437.488 683.74 437.488C686.62 437.488 688.636 438.928 689.464 441.484C690.292 438.928 692.236 437.488 695.044 437.488C699.112 437.488 701.344 440.116 701.344 444.724V457H698.32V445.372C698.32 441.916 696.952 440.152 694.324 440.152C691.66 440.152 689.932 442.168 689.932 445.588V457H686.908V445.588C686.908 442.204 685.792 440.152 682.984 440.152C680.32 440.152 678.556 442.204 678.556 445.588V457H675.532Z" fill="#030615" fill-opacity="0.75"/>
<rect x="870" y="387" width="414" height="115" rx="57.5" fill="white"/>
<rect x="871" y="388" width="412" height="113" rx="56.5" stroke="#67748A" stroke-opacity="0.3" stroke-width="2"/>
<path d="M932.251 460.25V455H925.251V437.5H921.751V442.75H909.501V428.75H921.751V434H932.251V428.75H944.501V442.75H932.251V437.5H928.751V451.5H932.251V446.25H944.501V460.25H932.251ZM935.751 439.25H941.001V432.25H935.751V439.25ZM935.751 456.75H941.001V449.75H935.751V456.75ZM913.001 439.25H918.251V432.25H913.001V439.25Z" fill="#030615"/>
<path d="M967.312 457V431.44H971.632L979.804 453.616L987.94 431.44H992.26V457H989.164V437.2L981.856 457H977.716L970.408 437.2V457H967.312ZM1005.29 457.432C999.89 457.432 996.542 453.508 996.542 447.46C996.542 441.412 999.89 437.488 1005.15 437.488C1010.11 437.488 1013.57 441.088 1013.57 447.496V448.396H999.71C999.926 452.5 1001.98 454.552 1005.29 454.552C1007.77 454.552 1009.39 453.292 1010.04 451.348L1013.28 451.6C1012.27 455.02 1009.32 457.432 1005.29 457.432ZM1010.26 445.732C1009.97 442.06 1007.95 440.368 1005.15 440.368C1002.19 440.368 1000.21 442.204 999.71 445.732H1010.26ZM1023.33 457C1019.87 457 1018.25 455.488 1018.25 452.104V440.584H1015.45V437.92H1018.25V433.456H1021.28V437.92H1026.35V440.584H1021.28V452.032C1021.28 453.76 1022.03 454.336 1023.62 454.336H1026.35V457H1023.33ZM1035.09 457.432C1031.13 457.432 1028.64 455.524 1028.64 452.248C1028.64 449.008 1030.48 447.208 1034.65 446.416L1041.42 445.156C1041.42 441.952 1039.91 440.368 1036.89 440.368C1034.22 440.368 1032.75 441.592 1032.17 443.788L1028.97 443.536C1029.69 439.936 1032.57 437.488 1036.89 437.488C1041.78 437.488 1044.45 440.44 1044.45 445.264V453.148C1044.45 454.012 1044.73 454.336 1045.45 454.336H1046.21V457C1045.99 457.036 1045.53 457.072 1045.06 457.072C1042.75 457.072 1041.71 456.172 1041.46 454.048C1040.52 456.028 1037.89 457.432 1035.09 457.432ZM1035.37 454.768C1039.19 454.768 1041.42 452.32 1041.42 449.152V447.784L1035.23 448.936C1032.64 449.404 1031.81 450.376 1031.81 451.96C1031.81 453.76 1033.14 454.768 1035.37 454.768ZM1056.17 457.432C1051.2 457.432 1048.1 453.58 1048.1 447.46C1048.1 441.34 1051.2 437.488 1056.17 437.488C1058.72 437.488 1060.99 438.64 1062.03 440.584V431.44H1065.06V457H1062.32L1062.21 454.12C1061.13 456.208 1058.83 457.432 1056.17 457.432ZM1056.78 454.552C1060.16 454.552 1062.03 451.816 1062.03 447.46C1062.03 443.032 1060.16 440.368 1056.78 440.368C1053.43 440.368 1051.27 443.032 1051.27 447.46C1051.27 451.816 1053.43 454.552 1056.78 454.552ZM1075.34 457.432C1071.38 457.432 1068.9 455.524 1068.9 452.248C1068.9 449.008 1070.73 447.208 1074.91 446.416L1081.68 445.156C1081.68 441.952 1080.16 440.368 1077.14 440.368C1074.48 440.368 1073 441.592 1072.42 443.788L1069.22 443.536C1069.94 439.936 1072.82 437.488 1077.14 437.488C1082.04 437.488 1084.7 440.44 1084.7 445.264V453.148C1084.7 454.012 1084.99 454.336 1085.71 454.336H1086.46V457C1086.25 457.036 1085.78 457.072 1085.31 457.072C1083.01 457.072 1081.96 456.172 1081.71 454.048C1080.78 456.028 1078.15 457.432 1075.34 457.432ZM1075.63 454.768C1079.44 454.768 1081.68 452.32 1081.68 449.152V447.784L1075.48 448.936C1072.89 449.404 1072.06 450.376 1072.06 451.96C1072.06 453.76 1073.4 454.768 1075.63 454.768ZM1095.09 457C1091.63 457 1090.01 455.488 1090.01 452.104V440.584H1087.2V437.92H1090.01V433.456H1093.03V437.92H1098.11V440.584H1093.03V452.032C1093.03 453.76 1093.79 454.336 1095.37 454.336H1098.11V457H1095.09ZM1106.84 457.432C1102.88 457.432 1100.4 455.524 1100.4 452.248C1100.4 449.008 1102.23 447.208 1106.41 446.416L1113.18 445.156C1113.18 441.952 1111.67 440.368 1108.64 440.368C1105.98 440.368 1104.5 441.592 1103.93 443.788L1100.72 443.536C1101.44 439.936 1104.32 437.488 1108.64 437.488C1113.54 437.488 1116.2 440.44 1116.2 445.264V453.148C1116.2 454.012 1116.49 454.336 1117.21 454.336H1117.97V457C1117.75 457.036 1117.28 457.072 1116.81 457.072C1114.51 457.072 1113.47 456.172 1113.21 454.048C1112.28 456.028 1109.65 457.432 1106.84 457.432ZM1107.13 454.768C1110.95 454.768 1113.18 452.32 1113.18 449.152V447.784L1106.99 448.936C1104.39 449.404 1103.57 450.376 1103.57 451.96C1103.57 453.76 1104.9 454.768 1107.13 454.768ZM1137.24 457.432C1131.91 457.432 1128.49 453.508 1128.49 447.46C1128.49 441.412 1131.91 437.488 1137.24 437.488C1141.63 437.488 1144.69 439.864 1145.34 444.112L1142.17 444.328C1141.74 441.808 1139.83 440.368 1137.24 440.368C1133.71 440.368 1131.66 443.032 1131.66 447.46C1131.66 451.888 1133.71 454.552 1137.24 454.552C1139.83 454.552 1141.74 453.112 1142.17 450.232L1145.34 450.448C1144.69 454.696 1141.63 457.432 1137.24 457.432ZM1154.08 457.432C1150.12 457.432 1147.63 455.524 1147.63 452.248C1147.63 449.008 1149.47 447.208 1153.64 446.416L1160.41 445.156C1160.41 441.952 1158.9 440.368 1155.88 440.368C1153.21 440.368 1151.74 441.592 1151.16 443.788L1147.96 443.536C1148.68 439.936 1151.56 437.488 1155.88 437.488C1160.77 437.488 1163.44 440.44 1163.44 445.264V453.148C1163.44 454.012 1163.72 454.336 1164.44 454.336H1165.2V457C1164.98 457.036 1164.52 457.072 1164.05 457.072C1161.74 457.072 1160.7 456.172 1160.45 454.048C1159.51 456.028 1156.88 457.432 1154.08 457.432ZM1154.36 454.768C1158.18 454.768 1160.41 452.32 1160.41 449.152V447.784L1154.22 448.936C1151.63 449.404 1150.8 450.376 1150.8 451.96C1150.8 453.76 1152.13 454.768 1154.36 454.768ZM1173.82 457C1170.37 457 1168.75 455.488 1168.75 452.104V440.584H1165.94V437.92H1168.75V433.456H1171.77V437.92H1176.85V440.584H1171.77V452.032C1171.77 453.76 1172.53 454.336 1174.11 454.336H1176.85V457H1173.82ZM1185.58 457.432C1181.62 457.432 1179.13 455.524 1179.13 452.248C1179.13 449.008 1180.97 447.208 1185.15 446.416L1191.91 445.156C1191.91 441.952 1190.4 440.368 1187.38 440.368C1184.71 440.368 1183.24 441.592 1182.66 443.788L1179.46 443.536C1180.18 439.936 1183.06 437.488 1187.38 437.488C1192.27 437.488 1194.94 440.44 1194.94 445.264V453.148C1194.94 454.012 1195.23 454.336 1195.95 454.336H1196.7V457C1196.49 457.036 1196.02 457.072 1195.55 457.072C1193.25 457.072 1192.2 456.172 1191.95 454.048C1191.01 456.028 1188.39 457.432 1185.58 457.432ZM1185.87 454.768C1189.68 454.768 1191.91 452.32 1191.91 449.152V447.784L1185.72 448.936C1183.13 449.404 1182.3 450.376 1182.3 451.96C1182.3 453.76 1183.63 454.768 1185.87 454.768ZM1203.56 457C1201.33 457 1199.78 455.92 1199.78 453.4L1199.82 431.44H1202.84V453.148C1202.84 453.94 1203.24 454.336 1204.03 454.336H1205.69V457H1203.56ZM1216.5 457.432C1211.21 457.432 1207.75 453.544 1207.75 447.46C1207.75 441.376 1211.21 437.488 1216.5 437.488C1221.76 437.488 1225.21 441.376 1225.21 447.46C1225.21 453.544 1221.76 457.432 1216.5 457.432ZM1216.5 454.552C1219.99 454.552 1222.04 451.888 1222.04 447.46C1222.04 443.032 1219.99 440.368 1216.5 440.368C1212.97 440.368 1210.92 443.032 1210.92 447.46C1210.92 451.888 1212.97 454.552 1216.5 454.552ZM1236.24 462.832C1232.13 462.832 1229.04 460.636 1228.24 457.288L1231.41 457.072C1231.99 458.872 1233.28 459.952 1236.24 459.952C1239.69 459.952 1241.6 458.584 1241.6 455.776V452.68C1240.66 454.696 1238.5 455.992 1236.02 455.992C1231.16 455.992 1227.7 452.176 1227.7 446.74C1227.7 441.304 1231.09 437.488 1235.88 437.488C1238.54 437.488 1240.88 438.82 1241.74 440.944V437.92H1244.62V455.704C1244.62 460.168 1241.49 462.832 1236.24 462.832ZM1236.16 453.112C1239.44 453.112 1241.56 450.664 1241.6 446.74C1241.67 442.816 1239.48 440.368 1236.16 440.368C1232.82 440.368 1230.87 442.816 1230.87 446.74C1230.87 450.664 1232.89 453.112 1236.16 453.112Z" fill="#030615" fill-opacity="0.75"/>
<path d="M0 640.5C0 608.744 25.7436 583 57.5 583H291.5C323.256 583 349 608.744 349 640.5C349 672.256 323.256 698 291.5 698H57.5C25.7436 698 0 672.256 0 640.5Z" fill="white"/>
<path d="M57.5 584H291.5C322.704 584 348 609.296 348 640.5C348 671.704 322.704 697 291.5 697H57.5C26.2959 697 1 671.704 1 640.5C1 609.296 26.2959 584 57.5 584Z" stroke="#67748A" stroke-opacity="0.3" stroke-width="2"/>
<path d="M56.9835 623C47.3235 623 39.501 630.84 39.501 640.5C39.501 650.16 47.3235 658 56.9835 658C66.661 658 74.501 650.16 74.501 640.5C74.501 630.84 66.661 623 56.9835 623ZM57.001 654.5C49.266 654.5 43.001 648.235 43.001 640.5C43.001 632.765 49.266 626.5 57.001 626.5C64.736 626.5 71.001 632.765 71.001 640.5C71.001 648.235 64.736 654.5 57.001 654.5ZM57.876 631.75H55.251V642.25L64.4385 647.762L65.751 645.61L57.876 640.937V631.75Z" fill="#030615"/>
<path d="M107.428 653.576C100.156 653.576 95.764 648.536 95.764 640.256C95.764 631.976 100.156 626.864 107.428 626.864C114.736 626.864 119.128 631.976 119.128 640.256C119.128 648.536 114.736 653.576 107.428 653.576ZM107.428 650.552C112.72 650.552 115.888 646.736 115.888 640.256C115.888 633.776 112.72 629.888 107.428 629.888C102.172 629.888 99.004 633.776 99.004 640.256C99.004 646.736 102.172 650.552 107.428 650.552ZM122.351 653V633.92H125.015L125.123 637.448C125.807 635.036 127.319 633.92 129.659 633.92H131.531V636.8H129.695C126.815 636.8 125.375 638.348 125.375 641.48V653H122.351ZM141.848 653.432C136.52 653.432 133.1 649.508 133.1 643.46C133.1 637.412 136.52 633.488 141.848 633.488C146.24 633.488 149.3 635.864 149.948 640.112L146.78 640.328C146.348 637.808 144.44 636.368 141.848 636.368C138.32 636.368 136.268 639.032 136.268 643.46C136.268 647.888 138.32 650.552 141.848 650.552C144.44 650.552 146.348 649.112 146.78 646.232L149.948 646.448C149.3 650.696 146.24 653.432 141.848 653.432ZM152.728 653V627.44H155.752V636.908C156.724 634.568 158.884 633.488 161.512 633.488C165.616 633.488 167.884 636.476 167.884 640.724V653H164.86V641.588C164.86 637.916 163.528 636.152 160.864 636.152C157.768 636.152 155.752 638.096 155.752 641.624V653H152.728ZM179.958 653.432C174.558 653.432 171.21 649.508 171.21 643.46C171.21 637.412 174.558 633.488 179.814 633.488C184.782 633.488 188.238 637.088 188.238 643.496V644.396H174.378C174.594 648.5 176.646 650.552 179.958 650.552C182.442 650.552 184.062 649.292 184.71 647.348L187.95 647.6C186.942 651.02 183.99 653.432 179.958 653.432ZM184.926 641.732C184.638 638.06 182.622 636.368 179.814 636.368C176.862 636.368 174.882 638.204 174.378 641.732H184.926ZM198.984 653.432C193.872 653.432 191.028 650.732 190.74 646.988L193.908 646.772C194.268 649.076 195.744 650.552 198.984 650.552C201.576 650.552 203.268 649.76 203.268 647.888C203.268 646.376 202.512 645.728 198.408 645.008C192.936 644.036 191.208 642.344 191.208 639.32C191.208 635.936 193.8 633.488 198.408 633.488C203.052 633.488 205.5 636.296 206.076 639.608L202.908 639.824C202.476 637.808 200.964 636.368 198.372 636.368C195.636 636.368 194.376 637.556 194.376 639.176C194.376 641.048 195.6 641.768 198.984 642.344C204.816 643.352 206.436 644.864 206.436 647.888C206.436 651.416 203.196 653.432 198.984 653.432ZM216.192 653C212.736 653 211.116 651.488 211.116 648.104V636.584H208.308V633.92H211.116V629.456H214.14V633.92H219.216V636.584H214.14V648.032C214.14 649.76 214.896 650.336 216.48 650.336H219.216V653H216.192ZM222.867 653V633.92H225.531L225.639 637.448C226.323 635.036 227.835 633.92 230.175 633.92H232.047V636.8H230.211C227.331 636.8 225.891 638.348 225.891 641.48V653H222.867ZM240.06 653.432C236.1 653.432 233.616 651.524 233.616 648.248C233.616 645.008 235.452 643.208 239.628 642.416L246.396 641.156C246.396 637.952 244.884 636.368 241.86 636.368C239.196 636.368 237.72 637.592 237.144 639.788L233.94 639.536C234.66 635.936 237.54 633.488 241.86 633.488C246.756 633.488 249.42 636.44 249.42 641.264V649.148C249.42 650.012 249.708 650.336 250.428 650.336H251.184V653C250.968 653.036 250.5 653.072 250.032 653.072C247.728 653.072 246.684 652.172 246.432 650.048C245.496 652.028 242.868 653.432 240.06 653.432ZM240.348 650.768C244.164 650.768 246.396 648.32 246.396 645.152V643.784L240.204 644.936C237.612 645.404 236.784 646.376 236.784 647.96C236.784 649.76 238.116 650.768 240.348 650.768ZM259.806 653C256.35 653 254.73 651.488 254.73 648.104V636.584H251.922V633.92H254.73V629.456H257.754V633.92H262.83V636.584H257.754V648.032C257.754 649.76 258.51 650.336 260.094 650.336H262.83V653H259.806ZM266.305 653V633.92H269.329V653H266.305ZM266.233 630.932V627.404H269.401V630.932H266.233ZM281.934 653.432C276.642 653.432 273.186 649.544 273.186 643.46C273.186 637.376 276.642 633.488 281.934 633.488C287.19 633.488 290.646 637.376 290.646 643.46C290.646 649.544 287.19 653.432 281.934 653.432ZM281.934 650.552C285.426 650.552 287.478 647.888 287.478 643.46C287.478 639.032 285.426 636.368 281.934 636.368C278.406 636.368 276.354 639.032 276.354 643.46C276.354 647.888 278.406 650.552 281.934 650.552ZM294.326 653V633.92H297.098L297.17 637.34C298.178 634.712 300.41 633.488 303.038 633.488C307.394 633.488 309.482 636.692 309.482 640.724V653H306.458V641.588C306.458 638.06 305.27 636.152 302.39 636.152C299.438 636.152 297.35 638.06 297.35 641.588V653H294.326Z" fill="#030615" fill-opacity="0.75"/>
<path d="M1155 629.5C1155 597.744 1180.74 572 1212.5 572H1403.5C1435.26 572 1461 597.744 1461 629.5C1461 661.256 1435.26 687 1403.5 687H1212.5C1180.74 687 1155 661.256 1155 629.5Z" fill="white"/>
<path d="M1212.5 573H1403.5C1434.7 573 1460 598.296 1460 629.5C1460 660.704 1434.7 686 1403.5 686H1212.5C1181.3 686 1156 660.704 1156 629.5C1156 598.296 1181.3 573 1212.5 573Z" stroke="#67748A" stroke-opacity="0.3" stroke-width="2"/>
<path d="M1199.75 645.25C1198.79 645.25 1197.96 644.907 1197.28 644.222C1196.59 643.536 1196.25 642.712 1196.25 641.75V634.75C1196.25 633.788 1196.59 632.964 1197.28 632.278C1197.96 631.593 1198.79 631.25 1199.75 631.25H1224.25C1225.21 631.25 1226.04 631.593 1226.72 632.278C1227.41 632.964 1227.75 633.788 1227.75 634.75H1199.75V641.75H1217.25V645.25H1199.75ZM1199.75 627.75C1198.79 627.75 1197.96 627.407 1197.28 626.722C1196.59 626.036 1196.25 625.212 1196.25 624.25V617.25C1196.25 616.287 1196.59 615.464 1197.28 614.778C1197.96 614.093 1198.79 613.75 1199.75 613.75H1224.25C1225.21 613.75 1226.04 614.093 1226.72 614.778C1227.41 615.464 1227.75 616.287 1227.75 617.25V624.25C1227.75 625.212 1227.41 626.036 1226.72 626.722C1226.04 627.407 1225.21 627.75 1224.25 627.75H1199.75ZM1199.75 624.25H1224.25V617.25H1199.75V624.25ZM1224.25 648.75V645.25H1220.75V641.75H1224.25V638.25H1227.75V641.75H1231.25V645.25H1227.75V648.75H1224.25Z" fill="#030615"/>
<path d="M1252.31 642V616.44H1256.7L1269.34 638.904V616.44H1272.44V642H1267.83L1255.41 619.968V642H1252.31ZM1285.47 642.432C1280.18 642.432 1276.73 638.544 1276.73 632.46C1276.73 626.376 1280.18 622.488 1285.47 622.488C1290.73 622.488 1294.19 626.376 1294.19 632.46C1294.19 638.544 1290.73 642.432 1285.47 642.432ZM1285.47 639.552C1288.97 639.552 1291.02 636.888 1291.02 632.46C1291.02 628.032 1288.97 625.368 1285.47 625.368C1281.95 625.368 1279.89 628.032 1279.89 632.46C1279.89 636.888 1281.95 639.552 1285.47 639.552ZM1303.94 642C1300.48 642 1298.86 640.488 1298.86 637.104V625.584H1296.05V622.92H1298.86V618.456H1301.88V622.92H1306.96V625.584H1301.88V637.032C1301.88 638.76 1302.64 639.336 1304.22 639.336H1306.96V642H1303.94ZM1317.47 642.432C1312.07 642.432 1308.72 638.508 1308.72 632.46C1308.72 626.412 1312.07 622.488 1317.32 622.488C1322.29 622.488 1325.75 626.088 1325.75 632.496V633.396H1311.89C1312.1 637.5 1314.16 639.552 1317.47 639.552C1319.95 639.552 1321.57 638.292 1322.22 636.348L1325.46 636.6C1324.45 640.02 1321.5 642.432 1317.47 642.432ZM1322.44 630.732C1322.15 627.06 1320.13 625.368 1317.32 625.368C1314.37 625.368 1312.39 627.204 1311.89 630.732H1322.44ZM1337.66 642.432C1334.99 642.432 1332.83 641.208 1331.75 639.12L1331.65 642H1328.91V616.44H1331.93V625.584C1332.87 624 1334.99 622.488 1337.66 622.488C1342.7 622.488 1345.87 626.34 1345.87 632.46C1345.87 638.58 1342.7 642.432 1337.66 642.432ZM1337.48 639.552C1340.68 639.552 1342.7 636.816 1342.7 632.46C1342.7 628.032 1340.68 625.368 1337.55 625.368C1334.02 625.368 1331.93 628.032 1331.93 632.46C1331.93 636.816 1334.02 639.552 1337.48 639.552ZM1357.09 642.432C1351.8 642.432 1348.34 638.544 1348.34 632.46C1348.34 626.376 1351.8 622.488 1357.09 622.488C1362.35 622.488 1365.8 626.376 1365.8 632.46C1365.8 638.544 1362.35 642.432 1357.09 642.432ZM1357.09 639.552C1360.58 639.552 1362.63 636.888 1362.63 632.46C1362.63 628.032 1360.58 625.368 1357.09 625.368C1353.56 625.368 1351.51 628.032 1351.51 632.46C1351.51 636.888 1353.56 639.552 1357.09 639.552ZM1377.04 642.432C1371.75 642.432 1368.29 638.544 1368.29 632.46C1368.29 626.376 1371.75 622.488 1377.04 622.488C1382.3 622.488 1385.75 626.376 1385.75 632.46C1385.75 638.544 1382.3 642.432 1377.04 642.432ZM1377.04 639.552C1380.53 639.552 1382.59 636.888 1382.59 632.46C1382.59 628.032 1380.53 625.368 1377.04 625.368C1373.51 625.368 1371.46 628.032 1371.46 632.46C1371.46 636.888 1373.51 639.552 1377.04 639.552ZM1389.43 642V616.44H1392.46V633.18L1401.75 622.92H1405.78L1398.25 631.02L1406.1 642H1402.43L1396.2 633.072L1392.46 637.032V642H1389.43ZM1415.21 642.432C1410.1 642.432 1407.26 639.732 1406.97 635.988L1410.14 635.772C1410.5 638.076 1411.97 639.552 1415.21 639.552C1417.8 639.552 1419.5 638.76 1419.5 636.888C1419.5 635.376 1418.74 634.728 1414.64 634.008C1409.16 633.036 1407.44 631.344 1407.44 628.32C1407.44 624.936 1410.03 622.488 1414.64 622.488C1419.28 622.488 1421.73 625.296 1422.3 628.608L1419.14 628.824C1418.7 626.808 1417.19 625.368 1414.6 625.368C1411.86 625.368 1410.6 626.556 1410.6 628.176C1410.6 630.048 1411.83 630.768 1415.21 631.344C1421.04 632.352 1422.66 633.864 1422.66 636.888C1422.66 640.416 1419.42 642.432 1415.21 642.432Z" fill="#030615" fill-opacity="0.75"/>
<rect x="90" y="772" width="321" height="115" rx="57.5" fill="white"/>
<rect x="91" y="773" width="319" height="113" rx="56.5" stroke="#67748A" stroke-opacity="0.3" stroke-width="2"/>
<path d="M147 845.25C142.596 845.25 138.87 844.572 135.822 843.216C132.774 841.859 131.25 840.204 131.25 838.25V820.75C131.25 818.825 132.789 817.177 135.866 815.806C138.943 814.435 142.654 813.75 147 813.75C151.346 813.75 155.057 814.435 158.134 815.806C161.211 817.177 162.75 818.825 162.75 820.75V838.25C162.75 840.204 161.226 841.859 158.178 843.216C155.13 844.572 151.404 845.25 147 845.25ZM147 824.294C149.596 824.294 152.206 823.922 154.831 823.178C157.456 822.434 158.929 821.64 159.25 820.794C158.929 819.948 157.464 819.146 154.853 818.387C152.243 817.629 149.625 817.25 147 817.25C144.346 817.25 141.743 817.622 139.191 818.366C136.639 819.109 135.158 819.919 134.75 820.794C135.158 821.669 136.639 822.471 139.191 823.2C141.743 823.929 144.346 824.294 147 824.294ZM147 833C148.225 833 149.406 832.942 150.544 832.825C151.681 832.708 152.768 832.541 153.803 832.322C154.839 832.103 155.816 831.833 156.734 831.512C157.653 831.192 158.492 830.827 159.25 830.419V825.169C158.492 825.577 157.653 825.942 156.734 826.262C155.816 826.583 154.839 826.853 153.803 827.072C152.768 827.291 151.681 827.458 150.544 827.575C149.406 827.692 148.225 827.75 147 827.75C145.775 827.75 144.579 827.692 143.412 827.575C142.246 827.458 141.145 827.291 140.109 827.072C139.074 826.853 138.104 826.583 137.2 826.262C136.296 825.942 135.479 825.577 134.75 825.169V830.419C135.479 830.827 136.296 831.192 137.2 831.512C138.104 831.833 139.074 832.103 140.109 832.322C141.145 832.541 142.246 832.708 143.412 832.825C144.579 832.942 145.775 833 147 833ZM147 841.75C148.342 841.75 149.705 841.648 151.091 841.444C152.476 841.24 153.752 840.97 154.919 840.634C156.085 840.299 157.062 839.92 157.85 839.497C158.637 839.074 159.104 838.644 159.25 838.206V833.919C158.492 834.327 157.653 834.692 156.734 835.012C155.816 835.333 154.839 835.603 153.803 835.822C152.768 836.041 151.681 836.208 150.544 836.325C149.406 836.442 148.225 836.5 147 836.5C145.775 836.5 144.579 836.442 143.412 836.325C142.246 836.208 141.145 836.041 140.109 835.822C139.074 835.603 138.104 835.333 137.2 835.012C136.296 834.692 135.479 834.327 134.75 833.919V838.25C134.896 838.688 135.355 839.11 136.128 839.519C136.901 839.927 137.871 840.299 139.037 840.634C140.204 840.97 141.488 841.24 142.887 841.444C144.287 841.648 145.658 841.75 147 841.75Z" fill="#030615"/>
<path d="M196.24 842.576C190.336 842.576 186.556 839.012 186.124 833.828L189.364 833.612C189.868 837.428 192.208 839.552 196.312 839.552C199.876 839.552 201.964 838.148 201.964 835.52C201.964 833.144 200.776 831.704 194.656 830.192C188.752 828.716 186.664 826.952 186.664 823.136C186.664 818.852 189.904 815.864 195.16 815.864C200.776 815.864 204.088 819.32 204.664 824L201.424 824.216C200.992 821.12 198.904 818.888 195.088 818.888C191.92 818.888 189.904 820.544 189.904 822.992C189.904 825.404 191.2 826.268 196.6 827.6C203.008 829.184 205.204 831.632 205.204 835.304C205.204 839.768 201.46 842.576 196.24 842.576ZM224.372 841.748C223.22 842.252 221.6 842.576 219.944 842.576C212.6 842.576 208.388 836.672 208.388 829.256C208.388 821.804 212.564 815.864 219.944 815.864C227.432 815.864 231.536 821.804 231.536 829.256C231.536 833.972 229.808 838.112 226.64 840.488L229.808 844.484H226.496L224.372 841.748ZM219.944 839.552C220.988 839.552 221.816 839.444 222.428 839.156L218.72 834.512H222.032L224.768 838.112C227.108 836.24 228.296 833.216 228.296 829.256C228.296 823.604 225.56 818.888 219.944 818.888C214.328 818.888 211.628 823.604 211.628 829.256C211.628 834.872 214.4 839.552 219.944 839.552ZM235.548 842V816.44H238.644V838.976H251.424V842H235.548ZM268.815 842.432C264.855 842.432 262.371 840.524 262.371 837.248C262.371 834.008 264.207 832.208 268.383 831.416L275.151 830.156C275.151 826.952 273.639 825.368 270.615 825.368C267.951 825.368 266.475 826.592 265.899 828.788L262.695 828.536C263.415 824.936 266.295 822.488 270.615 822.488C275.511 822.488 278.175 825.44 278.175 830.264V838.148C278.175 839.012 278.463 839.336 279.183 839.336H279.939V842C279.723 842.036 279.255 842.072 278.787 842.072C276.483 842.072 275.439 841.172 275.187 839.048C274.251 841.028 271.623 842.432 268.815 842.432ZM269.103 839.768C272.919 839.768 275.151 837.32 275.151 834.152V832.784L268.959 833.936C266.367 834.404 265.539 835.376 265.539 836.96C265.539 838.76 266.871 839.768 269.103 839.768ZM290.578 842.432C285.25 842.432 281.83 838.508 281.83 832.46C281.83 826.412 285.25 822.488 290.578 822.488C294.97 822.488 298.03 824.864 298.678 829.112L295.51 829.328C295.078 826.808 293.17 825.368 290.578 825.368C287.05 825.368 284.998 828.032 284.998 832.46C284.998 836.888 287.05 839.552 290.578 839.552C293.17 839.552 295.078 838.112 295.51 835.232L298.678 835.448C298.03 839.696 294.97 842.432 290.578 842.432ZM309.546 842.432C304.218 842.432 300.798 838.508 300.798 832.46C300.798 826.412 304.218 822.488 309.546 822.488C313.938 822.488 316.998 824.864 317.646 829.112L314.478 829.328C314.046 826.808 312.138 825.368 309.546 825.368C306.018 825.368 303.966 828.032 303.966 832.46C303.966 836.888 306.018 839.552 309.546 839.552C312.138 839.552 314.046 838.112 314.478 835.232L317.646 835.448C316.998 839.696 313.938 842.432 309.546 842.432ZM328.513 842.432C323.113 842.432 319.765 838.508 319.765 832.46C319.765 826.412 323.113 822.488 328.369 822.488C333.337 822.488 336.793 826.088 336.793 832.496V833.396H322.933C323.149 837.5 325.201 839.552 328.513 839.552C330.997 839.552 332.617 838.292 333.265 836.348L336.505 836.6C335.497 840.02 332.545 842.432 328.513 842.432ZM333.481 830.732C333.193 827.06 331.177 825.368 328.369 825.368C325.417 825.368 323.437 827.204 322.933 830.732H333.481ZM347.539 842.432C342.427 842.432 339.583 839.732 339.295 835.988L342.463 835.772C342.823 838.076 344.299 839.552 347.539 839.552C350.131 839.552 351.823 838.76 351.823 836.888C351.823 835.376 351.067 834.728 346.963 834.008C341.491 833.036 339.763 831.344 339.763 828.32C339.763 824.936 342.355 822.488 346.963 822.488C351.607 822.488 354.055 825.296 354.631 828.608L351.463 828.824C351.031 826.808 349.519 825.368 346.927 825.368C344.191 825.368 342.931 826.556 342.931 828.176C342.931 830.048 344.155 830.768 347.539 831.344C353.371 832.352 354.991 833.864 354.991 836.888C354.991 840.416 351.751 842.432 347.539 842.432ZM365.733 842.432C360.621 842.432 357.777 839.732 357.489 835.988L360.657 835.772C361.017 838.076 362.493 839.552 365.733 839.552C368.325 839.552 370.017 838.76 370.017 836.888C370.017 835.376 369.261 834.728 365.157 834.008C359.685 833.036 357.957 831.344 357.957 828.32C357.957 824.936 360.549 822.488 365.157 822.488C369.801 822.488 372.249 825.296 372.825 828.608L369.657 828.824C369.225 826.808 367.713 825.368 365.121 825.368C362.385 825.368 361.125 826.556 361.125 828.176C361.125 830.048 362.349 830.768 365.733 831.344C371.565 832.352 373.185 833.864 373.185 836.888C373.185 840.416 369.945 842.432 365.733 842.432Z" fill="#030615" fill-opacity="0.75"/>
<rect x="466" y="867" width="502" height="115" rx="57.5" fill="white"/>
<rect x="467" y="868" width="500" height="113" rx="56.5" stroke="#67748A" stroke-opacity="0.3" stroke-width="2"/>
<path d="M507.25 938.5V931.5H538.75V938.5H507.25ZM510.75 936.75H514.25V933.25H510.75V936.75ZM507.25 917.5V910.5H538.75V917.5H507.25ZM510.75 915.75H514.25V912.25H510.75V915.75ZM507.25 928V921H538.75V928H507.25ZM510.75 926.25H514.25V922.75H510.75V926.25Z" fill="#030615"/>
<path d="M563.312 937V911.44H572.996C578.36 911.44 581.708 914.428 581.708 919.18C581.708 922.132 579.656 924.364 577.388 925.048C579.656 925.444 580.988 926.812 581.24 929.476L581.96 937H578.828L578.18 929.8C578 927.676 576.776 926.704 573.824 926.704H566.408V937H563.312ZM573.392 923.68C576.488 923.68 578.468 922.06 578.468 919.108C578.468 916.156 576.524 914.464 572.996 914.464H566.408V923.68H573.392ZM593.38 937.432C587.98 937.432 584.632 933.508 584.632 927.46C584.632 921.412 587.98 917.488 593.236 917.488C598.204 917.488 601.66 921.088 601.66 927.496V928.396H587.8C588.016 932.5 590.068 934.552 593.38 934.552C595.864 934.552 597.484 933.292 598.132 931.348L601.372 931.6C600.364 935.02 597.412 937.432 593.38 937.432ZM598.348 925.732C598.06 922.06 596.044 920.368 593.236 920.368C590.284 920.368 588.304 922.204 587.8 925.732H598.348ZM612.406 937.432C607.294 937.432 604.45 934.732 604.162 930.988L607.33 930.772C607.69 933.076 609.166 934.552 612.406 934.552C614.998 934.552 616.69 933.76 616.69 931.888C616.69 930.376 615.934 929.728 611.83 929.008C606.358 928.036 604.63 926.344 604.63 923.32C604.63 919.936 607.222 917.488 611.83 917.488C616.474 917.488 618.922 920.296 619.498 923.608L616.33 923.824C615.898 921.808 614.386 920.368 611.794 920.368C609.058 920.368 607.798 921.556 607.798 923.176C607.798 925.048 609.022 925.768 612.406 926.344C618.238 927.352 619.858 928.864 619.858 931.888C619.858 935.416 616.618 937.432 612.406 937.432ZM631.104 937.432C625.812 937.432 622.356 933.544 622.356 927.46C622.356 921.376 625.812 917.488 631.104 917.488C636.36 917.488 639.816 921.376 639.816 927.46C639.816 933.544 636.36 937.432 631.104 937.432ZM631.104 934.552C634.596 934.552 636.648 931.888 636.648 927.46C636.648 923.032 634.596 920.368 631.104 920.368C627.576 920.368 625.524 923.032 625.524 927.46C625.524 931.888 627.576 934.552 631.104 934.552ZM649.584 937.432C645.768 937.432 643.32 934.732 643.32 930.196V917.92H646.344V929.368C646.344 933.076 647.64 934.768 650.376 934.768C653.4 934.768 655.236 932.716 655.236 929.296V917.92H658.26V937H655.38V933.904C654.336 936.172 652.32 937.432 649.584 937.432ZM663.307 937V917.92H665.971L666.079 921.448C666.763 919.036 668.275 917.92 670.615 917.92H672.487V920.8H670.651C667.771 920.8 666.331 922.348 666.331 925.48V937H663.307ZM682.804 937.432C677.476 937.432 674.056 933.508 674.056 927.46C674.056 921.412 677.476 917.488 682.804 917.488C687.196 917.488 690.256 919.864 690.904 924.112L687.736 924.328C687.304 921.808 685.396 920.368 682.804 920.368C679.276 920.368 677.224 923.032 677.224 927.46C677.224 931.888 679.276 934.552 682.804 934.552C685.396 934.552 687.304 933.112 687.736 930.232L690.904 930.448C690.256 934.696 687.196 937.432 682.804 937.432ZM701.771 937.432C696.371 937.432 693.023 933.508 693.023 927.46C693.023 921.412 696.371 917.488 701.627 917.488C706.595 917.488 710.051 921.088 710.051 927.496V928.396H696.191C696.407 932.5 698.459 934.552 701.771 934.552C704.255 934.552 705.875 933.292 706.523 931.348L709.763 931.6C708.755 935.02 705.803 937.432 701.771 937.432ZM706.739 925.732C706.451 922.06 704.435 920.368 701.627 920.368C698.675 920.368 696.695 922.204 696.191 925.732H706.739ZM722.197 937V917.92H724.969L725.041 921.268C725.977 918.928 727.957 917.488 730.405 917.488C733.285 917.488 735.301 918.928 736.129 921.484C736.957 918.928 738.901 917.488 741.709 917.488C745.777 917.488 748.009 920.116 748.009 924.724V937H744.985V925.372C744.985 921.916 743.617 920.152 740.989 920.152C738.325 920.152 736.597 922.168 736.597 925.588V937H733.573V925.588C733.573 922.204 732.457 920.152 729.649 920.152C726.985 920.152 725.221 922.204 725.221 925.588V937H722.197ZM757.952 937.432C753.992 937.432 751.508 935.524 751.508 932.248C751.508 929.008 753.344 927.208 757.52 926.416L764.288 925.156C764.288 921.952 762.776 920.368 759.752 920.368C757.088 920.368 755.612 921.592 755.036 923.788L751.832 923.536C752.552 919.936 755.432 917.488 759.752 917.488C764.648 917.488 767.312 920.44 767.312 925.264V933.148C767.312 934.012 767.6 934.336 768.32 934.336H769.076V937C768.86 937.036 768.392 937.072 767.924 937.072C765.62 937.072 764.576 936.172 764.324 934.048C763.388 936.028 760.76 937.432 757.952 937.432ZM758.24 934.768C762.056 934.768 764.288 932.32 764.288 929.152V927.784L758.096 928.936C755.504 929.404 754.676 930.376 754.676 931.96C754.676 933.76 756.008 934.768 758.24 934.768ZM772.331 937V917.92H775.103L775.175 921.34C776.183 918.712 778.415 917.488 781.043 917.488C785.399 917.488 787.487 920.692 787.487 924.724V937H784.463V925.588C784.463 922.06 783.275 920.152 780.395 920.152C777.443 920.152 775.355 922.06 775.355 925.588V937H772.331ZM797.434 937.432C793.474 937.432 790.99 935.524 790.99 932.248C790.99 929.008 792.826 927.208 797.002 926.416L803.77 925.156C803.77 921.952 802.258 920.368 799.234 920.368C796.57 920.368 795.094 921.592 794.518 923.788L791.314 923.536C792.034 919.936 794.914 917.488 799.234 917.488C804.13 917.488 806.794 920.44 806.794 925.264V933.148C806.794 934.012 807.082 934.336 807.802 934.336H808.558V937C808.342 937.036 807.874 937.072 807.406 937.072C805.102 937.072 804.058 936.172 803.806 934.048C802.87 936.028 800.242 937.432 797.434 937.432ZM797.722 934.768C801.538 934.768 803.77 932.32 803.77 929.152V927.784L797.578 928.936C794.986 929.404 794.158 930.376 794.158 931.96C794.158 933.76 795.49 934.768 797.722 934.768ZM818.981 942.832C814.877 942.832 811.781 940.636 810.989 937.288L814.157 937.072C814.733 938.872 816.029 939.952 818.981 939.952C822.437 939.952 824.345 938.584 824.345 935.776V932.68C823.409 934.696 821.249 935.992 818.765 935.992C813.905 935.992 810.449 932.176 810.449 926.74C810.449 921.304 813.833 917.488 818.621 917.488C821.285 917.488 823.625 918.82 824.489 920.944V917.92H827.369V935.704C827.369 940.168 824.237 942.832 818.981 942.832ZM818.909 933.112C822.185 933.112 824.309 930.664 824.345 926.74C824.417 922.816 822.221 920.368 818.909 920.368C815.561 920.368 813.617 922.816 813.617 926.74C813.617 930.664 815.633 933.112 818.909 933.112ZM839.43 937.432C834.03 937.432 830.682 933.508 830.682 927.46C830.682 921.412 834.03 917.488 839.286 917.488C844.254 917.488 847.71 921.088 847.71 927.496V928.396H833.85C834.066 932.5 836.118 934.552 839.43 934.552C841.914 934.552 843.534 933.292 844.182 931.348L847.422 931.6C846.414 935.02 843.462 937.432 839.43 937.432ZM844.398 925.732C844.11 922.06 842.094 920.368 839.286 920.368C836.334 920.368 834.354 922.204 833.85 925.732H844.398ZM851.4 937V917.92H854.172L854.244 921.268C855.18 918.928 857.16 917.488 859.608 917.488C862.488 917.488 864.504 918.928 865.332 921.484C866.16 918.928 868.104 917.488 870.912 917.488C874.98 917.488 877.212 920.116 877.212 924.724V937H874.188V925.372C874.188 921.916 872.82 920.152 870.192 920.152C867.528 920.152 865.8 922.168 865.8 925.588V937H862.776V925.588C862.776 922.204 861.66 920.152 858.852 920.152C856.188 920.152 854.424 922.204 854.424 925.588V937H851.4ZM889.283 937.432C883.883 937.432 880.535 933.508 880.535 927.46C880.535 921.412 883.883 917.488 889.139 917.488C894.107 917.488 897.563 921.088 897.563 927.496V928.396H883.703C883.919 932.5 885.971 934.552 889.283 934.552C891.767 934.552 893.387 933.292 894.035 931.348L897.275 931.6C896.267 935.02 893.315 937.432 889.283 937.432ZM894.251 925.732C893.963 922.06 891.947 920.368 889.139 920.368C886.187 920.368 884.207 922.204 883.703 925.732H894.251ZM901.253 937V917.92H904.025L904.097 921.34C905.105 918.712 907.337 917.488 909.965 917.488C914.321 917.488 916.409 920.692 916.409 924.724V937H913.385V925.588C913.385 922.06 912.197 920.152 909.317 920.152C906.365 920.152 904.277 922.06 904.277 925.588V937H901.253ZM927.345 937C923.889 937 922.269 935.488 922.269 932.104V920.584H919.461V917.92H922.269V913.456H925.293V917.92H930.369V920.584H925.293V932.032C925.293 933.76 926.049 934.336 927.633 934.336H930.369V937H927.345Z" fill="#030615" fill-opacity="0.75"/>
<rect x="1040" y="772" width="381" height="115" rx="57.5" fill="white"/>
<rect x="1041" y="773" width="379" height="113" rx="56.5" stroke="#67748A" stroke-opacity="0.3" stroke-width="2"/>
<g clip-path="url(#clip0_0_1)">
<path fill-rule="evenodd" clip-rule="evenodd" d="M1101.2 812.7C1100.09 812.7 1099.02 813.142 1098.23 813.93C1097.44 814.718 1097 815.786 1097 816.9V825.3C1097 826.414 1097.44 827.482 1098.23 828.27C1099.02 829.057 1100.09 829.5 1101.2 829.5H1102.99C1102.28 831.226 1101.14 832.743 1099.69 833.91C1098.23 835.076 1096.5 835.853 1094.66 836.167C1094.35 835.112 1093.78 834.155 1093 833.389C1092.21 832.623 1091.24 832.075 1090.17 831.799V814.8H1087.02V831.799C1085.94 832.078 1084.95 832.64 1084.16 833.426C1083.37 834.213 1082.8 835.196 1082.51 836.275C1082.22 837.355 1082.22 838.491 1082.52 839.568C1082.82 840.646 1083.39 841.625 1084.19 842.406C1084.99 843.188 1085.98 843.743 1087.06 844.014C1088.15 844.286 1089.28 844.265 1090.36 843.954C1091.43 843.642 1092.4 843.051 1093.17 842.24C1093.94 841.43 1094.48 840.43 1094.73 839.343C1097.4 838.975 1099.91 837.854 1101.97 836.11C1104.02 834.367 1105.54 832.074 1106.34 829.5H1109.6C1110.71 829.5 1111.78 829.057 1112.57 828.27C1113.36 827.482 1113.8 826.414 1113.8 825.3V816.9C1113.8 815.786 1113.36 814.718 1112.57 813.93C1111.78 813.142 1110.71 812.7 1109.6 812.7H1101.2ZM1101.72 819.787H1100.41V822.412H1104.09V826.087H1106.71V822.412H1110.39V819.787H1106.71V816.112H1104.09V819.787H1101.72ZM1091.75 837.9C1091.75 838.735 1091.42 839.537 1090.83 840.127C1090.24 840.718 1089.43 841.05 1088.6 841.05C1087.76 841.05 1086.96 840.718 1086.37 840.127C1085.78 839.537 1085.45 838.735 1085.45 837.9C1085.45 837.065 1085.78 836.263 1086.37 835.673C1086.96 835.082 1087.76 834.75 1088.6 834.75C1089.43 834.75 1090.24 835.082 1090.83 835.673C1091.42 836.263 1091.75 837.065 1091.75 837.9Z" fill="#030615"/>
</g>
<path d="M1144.01 842L1134.76 816.44H1138.14L1146.06 838.616L1153.94 816.44H1157.33L1148.08 842H1144.01ZM1169.52 842.576C1162.68 842.576 1158.04 837.536 1158.04 829.256C1158.04 820.976 1162.68 815.864 1169.52 815.864C1175.71 815.864 1178.99 819.212 1180.07 824.576L1176.79 824.792C1176.07 821.156 1173.77 818.888 1169.52 818.888C1164.62 818.888 1161.28 822.776 1161.28 829.256C1161.28 835.736 1164.62 839.552 1169.52 839.552C1173.98 839.552 1176.36 837.068 1177.01 833.072L1180.28 833.288C1179.35 838.832 1175.64 842.576 1169.52 842.576ZM1193.39 842.576C1187.48 842.576 1183.7 839.012 1183.27 833.828L1186.51 833.612C1187.01 837.428 1189.35 839.552 1193.46 839.552C1197.02 839.552 1199.11 838.148 1199.11 835.52C1199.11 833.144 1197.92 831.704 1191.8 830.192C1185.9 828.716 1183.81 826.952 1183.81 823.136C1183.81 818.852 1187.05 815.864 1192.31 815.864C1197.92 815.864 1201.23 819.32 1201.81 824L1198.57 824.216C1198.14 821.12 1196.05 818.888 1192.23 818.888C1189.07 818.888 1187.05 820.544 1187.05 822.992C1187.05 825.404 1188.35 826.268 1193.75 827.6C1200.15 829.184 1202.35 831.632 1202.35 835.304C1202.35 839.768 1198.61 842.576 1193.39 842.576ZM1214.93 842V822.92H1217.95V842H1214.93ZM1214.86 819.932V816.404H1218.03V819.932H1214.86ZM1222.47 842V822.92H1225.24L1225.32 826.34C1226.32 823.712 1228.56 822.488 1231.18 822.488C1235.54 822.488 1237.63 825.692 1237.63 829.724V842H1234.6V830.588C1234.6 827.06 1233.42 825.152 1230.54 825.152C1227.58 825.152 1225.5 827.06 1225.5 830.588V842H1222.47ZM1248.56 842C1245.11 842 1243.49 840.488 1243.49 837.104V825.584H1240.68V822.92H1243.49V818.456H1246.51V822.92H1251.59V825.584H1246.51V837.032C1246.51 838.76 1247.27 839.336 1248.85 839.336H1251.59V842H1248.56ZM1262.1 842.432C1256.7 842.432 1253.35 838.508 1253.35 832.46C1253.35 826.412 1256.7 822.488 1261.95 822.488C1266.92 822.488 1270.38 826.088 1270.38 832.496V833.396H1256.52C1256.73 837.5 1258.78 839.552 1262.1 839.552C1264.58 839.552 1266.2 838.292 1266.85 836.348L1270.09 836.6C1269.08 840.02 1266.13 842.432 1262.1 842.432ZM1267.06 830.732C1266.78 827.06 1264.76 825.368 1261.95 825.368C1259 825.368 1257.02 827.204 1256.52 830.732H1267.06ZM1281.41 847.832C1277.31 847.832 1274.21 845.636 1273.42 842.288L1276.59 842.072C1277.16 843.872 1278.46 844.952 1281.41 844.952C1284.87 844.952 1286.77 843.584 1286.77 840.776V837.68C1285.84 839.696 1283.68 840.992 1281.19 840.992C1276.33 840.992 1272.88 837.176 1272.88 831.74C1272.88 826.304 1276.26 822.488 1281.05 822.488C1283.71 822.488 1286.05 823.82 1286.92 825.944V822.92H1289.8V840.704C1289.8 845.168 1286.67 847.832 1281.41 847.832ZM1281.34 838.112C1284.61 838.112 1286.74 835.664 1286.77 831.74C1286.85 827.816 1284.65 825.368 1281.34 825.368C1277.99 825.368 1276.05 827.816 1276.05 831.74C1276.05 835.664 1278.06 838.112 1281.34 838.112ZM1294.83 842V822.92H1297.49L1297.6 826.448C1298.28 824.036 1299.79 822.92 1302.13 822.92H1304.01V825.8H1302.17C1299.29 825.8 1297.85 827.348 1297.85 830.48V842H1294.83ZM1312.02 842.432C1308.06 842.432 1305.57 840.524 1305.57 837.248C1305.57 834.008 1307.41 832.208 1311.59 831.416L1318.35 830.156C1318.35 826.952 1316.84 825.368 1313.82 825.368C1311.15 825.368 1309.68 826.592 1309.1 828.788L1305.9 828.536C1306.62 824.936 1309.5 822.488 1313.82 822.488C1318.71 822.488 1321.38 825.44 1321.38 830.264V838.148C1321.38 839.012 1321.67 839.336 1322.39 839.336H1323.14V842C1322.93 842.036 1322.46 842.072 1321.99 842.072C1319.69 842.072 1318.64 841.172 1318.39 839.048C1317.45 841.028 1314.83 842.432 1312.02 842.432ZM1312.31 839.768C1316.12 839.768 1318.35 837.32 1318.35 834.152V832.784L1312.16 833.936C1309.57 834.404 1308.74 835.376 1308.74 836.96C1308.74 838.76 1310.07 839.768 1312.31 839.768ZM1331.76 842C1328.31 842 1326.69 840.488 1326.69 837.104V825.584H1323.88V822.92H1326.69V818.456H1329.71V822.92H1334.79V825.584H1329.71V837.032C1329.71 838.76 1330.47 839.336 1332.05 839.336H1334.79V842H1331.76ZM1338.26 842V822.92H1341.29V842H1338.26ZM1338.19 819.932V816.404H1341.36V819.932H1338.19ZM1353.89 842.432C1348.6 842.432 1345.14 838.544 1345.14 832.46C1345.14 826.376 1348.6 822.488 1353.89 822.488C1359.15 822.488 1362.6 826.376 1362.6 832.46C1362.6 838.544 1359.15 842.432 1353.89 842.432ZM1353.89 839.552C1357.38 839.552 1359.44 836.888 1359.44 832.46C1359.44 828.032 1357.38 825.368 1353.89 825.368C1350.36 825.368 1348.31 828.032 1348.31 832.46C1348.31 836.888 1350.36 839.552 1353.89 839.552ZM1366.28 842V822.92H1369.06L1369.13 826.34C1370.14 823.712 1372.37 822.488 1375 822.488C1379.35 822.488 1381.44 825.692 1381.44 829.724V842H1378.42V830.588C1378.42 827.06 1377.23 825.152 1374.35 825.152C1371.4 825.152 1369.31 827.06 1369.31 830.588V842H1366.28Z" fill="#030615" fill-opacity="0.75"/>
<defs>
<clipPath id="clip0_0_1">
<rect width="33.6" height="33.6" fill="white" transform="translate(1080.2 812.7)"/>
</clipPath>
</defs>
</svg>
