<svg  viewBox="0 0 1736 526" fill="none" xmlns="http://www.w3.org/2000/svg">
<rect x="1120" y="142" width="598" height="208" rx="18" fill="#67748A"/>
<path d="M1307.97 254V236.96H1318.43V239.168H1310.32V244.328H1318.14V246.536H1310.32V251.792H1318.62V254H1307.97ZM1321.13 254L1325.81 247.448L1321.37 241.232H1324.09L1327.21 245.792L1330.25 241.232H1333.01L1328.6 247.496L1333.23 254H1330.52L1327.21 249.104L1323.89 254H1321.13ZM1343.13 254C1340.56 254 1339.34 252.824 1339.34 250.328V243.224H1335.26V241.232H1339.34V237.944H1341.62V241.232H1346.68V243.224H1341.62V250.256C1341.62 251.456 1342.17 252.008 1343.3 252.008H1346.68V254H1343.13ZM1355.6 254.288C1352 254.288 1349.72 251.672 1349.72 247.616C1349.72 243.56 1352 240.944 1355.53 240.944C1358.84 240.944 1361.27 243.32 1361.27 247.664V248.264H1352.12C1352.29 250.856 1353.59 252.152 1355.6 252.152C1357.16 252.152 1358.17 251.36 1358.6 250.112L1361.05 250.304C1360.33 252.656 1358.36 254.288 1355.6 254.288ZM1358.77 246.416C1358.55 244.16 1357.28 243.08 1355.53 243.08C1353.71 243.08 1352.48 244.232 1352.15 246.416H1358.77ZM1364.47 254V252.008H1367.71V243.224H1364.47V241.232H1369.47L1369.63 243.704C1370.07 242.048 1371.1 241.232 1372.71 241.232H1375.42V243.296H1372.83C1370.95 243.296 1369.99 244.352 1369.99 246.368V252.008H1373.98V254H1364.47ZM1378.74 254V241.232H1380.83L1380.9 243.536C1381.55 241.76 1383.04 240.944 1384.74 240.944C1387.6 240.944 1388.97 243.032 1388.97 245.768V254H1386.66V246.416C1386.66 244.136 1385.94 242.936 1384.17 242.936C1382.34 242.936 1381.05 244.16 1381.05 246.464V254H1378.74ZM1396.13 254.288C1393.76 254.288 1391.86 252.896 1391.86 250.76C1391.86 248.6 1393.21 247.472 1395.85 246.944L1400.02 246.08C1400.02 244.064 1399.09 243.08 1397.38 243.08C1395.7 243.08 1394.84 243.824 1394.5 245.192L1392.1 245.024C1392.58 242.576 1394.45 240.944 1397.38 240.944C1400.53 240.944 1402.3 242.912 1402.3 246.176V251.216C1402.3 251.816 1402.54 252.008 1403.09 252.008H1403.86V254C1403.67 254.024 1403.19 254.072 1402.76 254.072C1401.32 254.072 1400.45 253.472 1400.19 252.176C1399.52 253.424 1397.96 254.288 1396.13 254.288ZM1396.4 252.296C1398.75 252.296 1400.02 250.976 1400.02 248.984V247.952L1396.35 248.696C1394.81 248.984 1394.26 249.584 1394.26 250.568C1394.26 251.672 1395.03 252.296 1396.4 252.296ZM1411.61 240.536C1411.61 239.528 1411.03 238.952 1410.02 238.952H1407.05V236.96H1410.14C1412.61 236.96 1413.91 238.232 1413.91 240.704V252.008H1418.28V254H1406.57V252.008H1411.61V240.536ZM1434.87 257.6V241.232H1437.03L1437.05 243.272C1437.79 241.76 1439.16 240.944 1440.91 240.944C1444.54 240.944 1446.24 244.016 1446.24 247.616C1446.24 251.216 1444.54 254.288 1440.91 254.288C1439.28 254.288 1437.87 253.544 1437.17 252.296V257.6H1434.87ZM1440.53 252.152C1442.59 252.152 1443.84 250.472 1443.84 247.616C1443.84 244.76 1442.59 243.08 1440.53 243.08C1438.47 243.08 1437.17 244.64 1437.17 247.616C1437.17 250.592 1438.44 252.152 1440.53 252.152ZM1449.23 254V252.008H1452.47V243.224H1449.23V241.232H1454.23L1454.39 243.704C1454.83 242.048 1455.86 241.232 1457.47 241.232H1460.18V243.296H1457.59C1455.71 243.296 1454.75 244.352 1454.75 246.368V252.008H1458.74V254H1449.23ZM1468.45 254.288C1464.9 254.288 1462.57 251.696 1462.57 247.616C1462.57 243.536 1464.9 240.944 1468.45 240.944C1471.98 240.944 1474.33 243.536 1474.33 247.616C1474.33 251.696 1471.98 254.288 1468.45 254.288ZM1468.45 252.152C1470.63 252.152 1471.9 250.448 1471.9 247.616C1471.9 244.784 1470.63 243.08 1468.45 243.08C1466.24 243.08 1464.99 244.784 1464.99 247.616C1464.99 250.448 1466.24 252.152 1468.45 252.152ZM1482.86 254.288C1479.29 254.288 1476.96 251.672 1476.96 247.616C1476.96 243.56 1479.29 240.944 1482.86 240.944C1485.77 240.944 1487.83 242.648 1488.33 245.528L1485.93 245.696C1485.55 244.04 1484.45 243.08 1482.86 243.08C1480.68 243.08 1479.36 244.784 1479.36 247.616C1479.36 250.448 1480.65 252.152 1482.86 252.152C1484.45 252.152 1485.65 251.192 1486.01 249.344L1488.41 249.488C1487.9 252.392 1485.79 254.288 1482.86 254.288ZM1496.87 254.288C1493.27 254.288 1490.99 251.672 1490.99 247.616C1490.99 243.56 1493.27 240.944 1496.8 240.944C1500.11 240.944 1502.53 243.32 1502.53 247.664V248.264H1493.39C1493.56 250.856 1494.85 252.152 1496.87 252.152C1498.43 252.152 1499.44 251.36 1499.87 250.112L1502.32 250.304C1501.6 252.656 1499.63 254.288 1496.87 254.288ZM1500.04 246.416C1499.82 244.16 1498.55 243.08 1496.8 243.08C1494.97 243.08 1493.75 244.232 1493.41 246.416H1500.04ZM1511.07 254.288C1507.71 254.288 1505.69 252.392 1505.5 249.992L1507.88 249.848C1508.12 251.288 1509.17 252.152 1511.07 252.152C1512.82 252.152 1513.8 251.672 1513.8 250.64C1513.8 249.632 1513.28 249.2 1510.64 248.72C1506.96 248.048 1505.81 246.92 1505.81 244.856C1505.81 242.624 1507.56 240.944 1510.71 240.944C1513.97 240.944 1515.6 242.888 1515.96 245.096L1513.59 245.24C1513.32 243.968 1512.34 243.08 1510.71 243.08C1508.98 243.08 1508.16 243.848 1508.16 244.832C1508.16 246.032 1509 246.416 1511.31 246.824C1515.08 247.496 1516.16 248.504 1516.16 250.64C1516.16 252.92 1514.02 254.288 1511.07 254.288ZM1525.19 254.288C1521.83 254.288 1519.82 252.392 1519.63 249.992L1522 249.848C1522.24 251.288 1523.3 252.152 1525.19 252.152C1526.95 252.152 1527.93 251.672 1527.93 250.64C1527.93 249.632 1527.4 249.2 1524.76 248.72C1521.09 248.048 1519.94 246.92 1519.94 244.856C1519.94 242.624 1521.69 240.944 1524.83 240.944C1528.1 240.944 1529.73 242.888 1530.09 245.096L1527.71 245.24C1527.45 243.968 1526.47 243.08 1524.83 243.08C1523.11 243.08 1522.29 243.848 1522.29 244.832C1522.29 246.032 1523.13 246.416 1525.43 246.824C1529.2 247.496 1530.28 248.504 1530.28 250.64C1530.28 252.92 1528.15 254.288 1525.19 254.288Z" fill="white"/>
<rect x="1542" y="203" width="61" height="25" rx="3" transform="rotate(-90 1542 203)" fill="#67748A"/>
<rect x="1099" y="78" width="635" height="296" rx="6" stroke="#8590A1" stroke-width="4" stroke-linecap="round" stroke-dasharray="16 10"/>
<path d="M847.879 3.84626C854.406 -1.28209 863.594 -1.28208 870.121 3.84627L964.121 73.8463C973.293 81.0531 973.293 94.9469 964.121 102.154L870.121 172.154C863.594 177.282 854.406 177.282 847.879 172.154L753.879 102.154C744.707 94.9469 744.707 81.0531 753.879 73.8463L847.879 3.84626Z" fill="#2ECC81"/>
<path d="M817.045 78.288C813.469 78.288 811.141 75.672 811.141 71.616C811.141 67.56 813.469 64.944 817.045 64.944C819.949 64.944 822.013 66.648 822.517 69.528L820.117 69.696C819.733 68.04 818.629 67.08 817.045 67.08C814.861 67.08 813.541 68.784 813.541 71.616C813.541 74.448 814.837 76.152 817.045 76.152C818.629 76.152 819.829 75.192 820.189 73.344L822.589 73.488C822.085 76.392 819.973 78.288 817.045 78.288ZM830.883 78.288C827.331 78.288 825.003 75.696 825.003 71.616C825.003 67.536 827.331 64.944 830.883 64.944C834.411 64.944 836.763 67.536 836.763 71.616C836.763 75.696 834.411 78.288 830.883 78.288ZM830.883 76.152C833.067 76.152 834.339 74.448 834.339 71.616C834.339 68.784 833.067 67.08 830.883 67.08C828.675 67.08 827.427 68.784 827.427 71.616C827.427 74.448 828.675 76.152 830.883 76.152ZM840.066 78V65.232H842.154L842.226 67.536C842.874 65.76 844.362 64.944 846.066 64.944C848.922 64.944 850.29 67.032 850.29 69.768V78H847.986V70.416C847.986 68.136 847.266 66.936 845.49 66.936C843.666 66.936 842.37 68.16 842.37 70.464V78H840.066ZM860.961 78C858.393 78 857.169 76.824 857.169 74.328V67.224H853.089V65.232H857.169V61.944H859.449V65.232H864.513V67.224H859.449V74.256C859.449 75.456 860.001 76.008 861.129 76.008H864.513V78H860.961ZM873.431 78.288C869.831 78.288 867.551 75.672 867.551 71.616C867.551 67.56 869.831 64.944 873.359 64.944C876.671 64.944 879.095 67.32 879.095 71.664V72.264H869.951C870.119 74.856 871.415 76.152 873.431 76.152C874.991 76.152 875.999 75.36 876.431 74.112L878.879 74.304C878.159 76.656 876.191 78.288 873.431 78.288ZM876.599 70.416C876.383 68.16 875.111 67.08 873.359 67.08C871.535 67.08 870.311 68.232 869.975 70.416H876.599ZM881.342 78L886.022 71.448L881.582 65.232H884.294L887.414 69.792L890.462 65.232H893.222L888.806 71.496L893.438 78H890.726L887.414 73.104L884.102 78H881.342ZM903.341 78C900.773 78 899.549 76.824 899.549 74.328V67.224H895.469V65.232H899.549V61.944H901.829V65.232H906.893V67.224H901.829V74.256C901.829 75.456 902.381 76.008 903.509 76.008H906.893V78H903.341ZM811.297 117.6V101.232H813.457L813.481 103.272C814.225 101.76 815.593 100.944 817.345 100.944C820.969 100.944 822.673 104.016 822.673 107.616C822.673 111.216 820.969 114.288 817.345 114.288C815.713 114.288 814.297 113.544 813.601 112.296V117.6H811.297ZM816.961 112.152C819.025 112.152 820.273 110.472 820.273 107.616C820.273 104.76 819.025 103.08 816.961 103.08C814.897 103.08 813.601 104.64 813.601 107.616C813.601 110.592 814.873 112.152 816.961 112.152ZM829.071 114.288C826.695 114.288 824.799 112.896 824.799 110.76C824.799 108.6 826.143 107.472 828.783 106.944L832.959 106.08C832.959 104.064 832.023 103.08 830.319 103.08C828.639 103.08 827.775 103.824 827.439 105.192L825.039 105.024C825.519 102.576 827.391 100.944 830.319 100.944C833.463 100.944 835.239 102.912 835.239 106.176V111.216C835.239 111.816 835.479 112.008 836.031 112.008H836.799V114C836.607 114.024 836.127 114.072 835.695 114.072C834.255 114.072 833.391 113.472 833.127 112.176C832.455 113.424 830.895 114.288 829.071 114.288ZM829.335 112.296C831.687 112.296 832.959 110.976 832.959 108.984V107.952L829.287 108.696C827.751 108.984 827.199 109.584 827.199 110.568C827.199 111.672 827.967 112.296 829.335 112.296ZM840.798 117.6V115.608H842.358C843.222 115.608 843.606 115.368 843.846 114.744L844.278 113.616H843.534L838.878 101.232H841.374L845.046 111.456L848.478 101.232H850.974L845.886 115.44C845.358 116.952 844.374 117.6 842.598 117.6H840.798ZM858.669 100.536C858.669 99.528 858.093 98.952 857.085 98.952H854.109V96.96H857.205C859.677 96.96 860.973 98.232 860.973 100.704V112.008H865.341V114H853.629V112.008H858.669V100.536ZM873.131 114.288C869.579 114.288 867.251 111.696 867.251 107.616C867.251 103.536 869.579 100.944 873.131 100.944C876.659 100.944 879.011 103.536 879.011 107.616C879.011 111.696 876.659 114.288 873.131 114.288ZM873.131 112.152C875.315 112.152 876.587 110.448 876.587 107.616C876.587 104.784 875.315 103.08 873.131 103.08C870.923 103.08 869.675 104.784 869.675 107.616C869.675 110.448 870.923 112.152 873.131 112.152ZM885.578 114.288C883.202 114.288 881.306 112.896 881.306 110.76C881.306 108.6 882.65 107.472 885.29 106.944L889.466 106.08C889.466 104.064 888.53 103.08 886.826 103.08C885.146 103.08 884.282 103.824 883.946 105.192L881.546 105.024C882.026 102.576 883.898 100.944 886.826 100.944C889.97 100.944 891.746 102.912 891.746 106.176V111.216C891.746 111.816 891.986 112.008 892.538 112.008H893.306V114C893.114 114.024 892.634 114.072 892.202 114.072C890.762 114.072 889.898 113.472 889.634 112.176C888.962 113.424 887.402 114.288 885.578 114.288ZM885.842 112.296C888.194 112.296 889.466 110.976 889.466 108.984V107.952L885.794 108.696C884.258 108.984 883.706 109.584 883.706 110.568C883.706 111.672 884.474 112.296 885.842 112.296ZM900.689 114.288C897.425 114.288 895.385 111.696 895.385 107.616C895.385 103.536 897.425 100.944 900.689 100.944C902.417 100.944 903.809 101.904 904.457 103.032V96.96H906.761V114H904.649L904.577 112.08C903.857 113.496 902.441 114.288 900.689 114.288ZM901.025 112.152C903.161 112.152 904.457 110.424 904.457 107.616C904.457 104.784 903.161 103.08 900.977 103.08C899.009 103.08 897.785 104.76 897.785 107.616C897.785 110.424 899.009 112.152 901.025 112.152Z" fill="#030615"/>
<path d="M847.879 353.846C854.406 348.718 863.594 348.718 870.121 353.846L964.121 423.846C973.293 431.053 973.293 444.947 964.121 452.154L870.121 522.154C863.594 527.282 854.406 527.282 847.879 522.154L753.879 452.154C744.707 444.947 744.707 431.053 753.879 423.846L847.879 353.846Z" fill="#2ECC81"/>
<path d="M812.521 445V434.36H814.221L814.281 435.9C814.661 434.78 815.421 434.12 816.401 434.12C817.481 434.12 818.121 434.82 818.401 436.18C818.761 434.9 819.541 434.12 820.661 434.12C822.361 434.12 823.081 435.26 823.081 437.96V445H821.181V438.2C821.181 436.42 820.821 435.78 820.061 435.78C819.281 435.78 818.761 436.54 818.761 438.22V445H816.841V438.2C816.841 436.48 816.541 435.78 815.721 435.78C814.941 435.78 814.421 436.54 814.421 438.22V445H812.521ZM829.713 445.24C826.713 445.24 824.813 443.06 824.813 439.68C824.813 436.3 826.713 434.12 829.653 434.12C832.413 434.12 834.433 436.1 834.433 439.72V440.22H826.813C826.953 442.38 828.033 443.46 829.713 443.46C831.013 443.46 831.853 442.8 832.213 441.76L834.253 441.92C833.653 443.88 832.013 445.24 829.713 445.24ZM832.353 438.68C832.173 436.8 831.113 435.9 829.653 435.9C828.133 435.9 827.113 436.86 826.833 438.68H832.353ZM841.546 445.24C838.746 445.24 837.066 443.66 836.906 441.66L838.886 441.54C839.086 442.74 839.966 443.46 841.546 443.46C843.006 443.46 843.826 443.06 843.826 442.2C843.826 441.36 843.386 441 841.186 440.6C838.126 440.04 837.166 439.1 837.166 437.38C837.166 435.52 838.626 434.12 841.246 434.12C843.966 434.12 845.326 435.74 845.626 437.58L843.646 437.7C843.426 436.64 842.606 435.9 841.246 435.9C839.806 435.9 839.126 436.54 839.126 437.36C839.126 438.36 839.826 438.68 841.746 439.02C844.886 439.58 845.786 440.42 845.786 442.2C845.786 444.1 844.006 445.24 841.546 445.24ZM853.318 445.24C850.518 445.24 848.838 443.66 848.678 441.66L850.658 441.54C850.858 442.74 851.738 443.46 853.318 443.46C854.778 443.46 855.598 443.06 855.598 442.2C855.598 441.36 855.158 441 852.958 440.6C849.898 440.04 848.938 439.1 848.938 437.38C848.938 435.52 850.398 434.12 853.018 434.12C855.738 434.12 857.098 435.74 857.398 437.58L855.418 437.7C855.198 436.64 854.378 435.9 853.018 435.9C851.578 435.9 850.898 436.54 850.898 437.36C850.898 438.36 851.598 438.68 853.518 439.02C856.658 439.58 857.558 440.42 857.558 442.2C857.558 444.1 855.778 445.24 853.318 445.24ZM863.49 445.24C861.51 445.24 859.93 444.08 859.93 442.3C859.93 440.5 861.05 439.56 863.25 439.12L866.73 438.4C866.73 436.72 865.95 435.9 864.53 435.9C863.13 435.9 862.41 436.52 862.13 437.66L860.13 437.52C860.53 435.48 862.09 434.12 864.53 434.12C867.15 434.12 868.63 435.76 868.63 438.48V442.68C868.63 443.18 868.83 443.34 869.29 443.34H869.93V445C869.77 445.02 869.37 445.06 869.01 445.06C867.81 445.06 867.09 444.56 866.87 443.48C866.31 444.52 865.01 445.24 863.49 445.24ZM863.71 443.58C865.67 443.58 866.73 442.48 866.73 440.82V439.96L863.67 440.58C862.39 440.82 861.93 441.32 861.93 442.14C861.93 443.06 862.57 443.58 863.71 443.58ZM876.602 448.24C874.262 448.24 872.582 447.02 872.142 445.16L874.142 445.02C874.442 445.96 875.122 446.5 876.602 446.5C878.382 446.5 879.382 445.74 879.382 444.22V442.66C878.882 443.74 877.762 444.44 876.342 444.44C873.682 444.44 871.822 442.34 871.822 439.32C871.822 436.22 873.642 434.12 876.262 434.12C877.722 434.12 878.962 434.84 879.462 436.04V434.36H881.302V444.08C881.302 446.74 879.562 448.24 876.602 448.24ZM876.582 442.72C878.282 442.72 879.382 441.42 879.382 439.32C879.422 437.2 878.302 435.9 876.582 435.9C874.862 435.9 873.822 437.2 873.822 439.32C873.822 441.42 874.882 442.72 876.582 442.72ZM888.574 445.24C885.574 445.24 883.674 443.06 883.674 439.68C883.674 436.3 885.574 434.12 888.514 434.12C891.274 434.12 893.294 436.1 893.294 439.72V440.22H885.674C885.814 442.38 886.894 443.46 888.574 443.46C889.874 443.46 890.714 442.8 891.074 441.76L893.114 441.92C892.514 443.88 890.874 445.24 888.574 445.24ZM891.214 438.68C891.034 436.8 889.974 435.9 888.514 435.9C886.994 435.9 885.974 436.86 885.694 438.68H891.214ZM900.407 445.24C897.607 445.24 895.927 443.66 895.767 441.66L897.747 441.54C897.947 442.74 898.827 443.46 900.407 443.46C901.867 443.46 902.687 443.06 902.687 442.2C902.687 441.36 902.247 441 900.047 440.6C896.987 440.04 896.027 439.1 896.027 437.38C896.027 435.52 897.487 434.12 900.107 434.12C902.827 434.12 904.187 435.74 904.487 437.58L902.507 437.7C902.287 436.64 901.467 435.9 900.107 435.9C898.667 435.9 897.987 436.54 897.987 437.36C897.987 438.36 898.687 438.68 900.607 439.02C903.747 439.58 904.647 440.42 904.647 442.2C904.647 444.1 902.867 445.24 900.407 445.24Z" fill="#030615"/>
<rect y="142" width="598" height="208" rx="18" fill="#B9B4F1"/>
<path d="M157.738 254.384C153.61 254.384 151.306 251.072 151.306 245.504C151.306 239.936 153.61 236.576 157.738 236.576C161.866 236.576 164.17 239.936 164.17 245.504C164.17 251.072 161.866 254.384 157.738 254.384ZM157.738 251.672C159.922 251.672 161.098 249.56 161.098 245.504C161.098 241.448 159.922 239.288 157.738 239.288C155.554 239.288 154.378 241.448 154.378 245.504C154.378 249.56 155.554 251.672 157.738 251.672ZM166.681 254V251.552H169.753V243.584H166.681V241.136H171.697L171.889 243.512C172.345 241.976 173.377 241.136 174.985 241.136H177.913V243.656H175.297C173.473 243.656 172.609 244.592 172.609 246.464V251.552H176.473V254H166.681ZM186.208 254.288C182.584 254.288 180.184 251.648 180.184 247.568C180.184 243.488 182.584 240.848 186.208 240.848C189.256 240.848 191.464 242.768 191.944 245.792L188.968 245.96C188.608 244.4 187.672 243.44 186.208 243.44C184.312 243.44 183.184 245 183.184 247.568C183.184 250.136 184.288 251.696 186.208 251.696C187.672 251.696 188.656 250.736 189.016 249.056L191.992 249.224C191.488 252.272 189.28 254.288 186.208 254.288ZM195.15 254V236.96H198.006V242.912C198.726 241.472 200.022 240.848 201.558 240.848C204.174 240.848 205.59 242.744 205.59 245.696V254H202.758V246.368C202.758 244.208 202.062 243.296 200.622 243.296C199.062 243.296 198.006 244.472 198.006 246.584V254H195.15ZM214.341 254.288C210.717 254.288 208.317 251.648 208.317 247.568C208.317 243.44 210.741 240.848 214.293 240.848C217.581 240.848 220.245 243.2 220.245 247.64V248.288H211.341C211.509 250.568 212.661 251.696 214.341 251.696C215.661 251.696 216.573 251.024 216.981 249.848L219.981 250.112C219.189 252.584 217.197 254.288 214.341 254.288ZM217.125 246.296C216.861 244.424 215.781 243.44 214.293 243.44C212.757 243.44 211.701 244.424 211.389 246.296H217.125ZM228.588 254.288C225.18 254.288 223.164 252.368 222.948 249.968L225.828 249.824C226.068 250.976 226.932 251.744 228.588 251.744C230.1 251.744 230.892 251.36 230.892 250.52C230.892 249.704 230.436 249.32 228.06 248.84C224.484 248.12 223.236 246.944 223.236 244.88C223.236 242.648 225.06 240.848 228.276 240.848C231.732 240.848 233.412 242.96 233.7 245.168L230.82 245.312C230.604 244.136 229.764 243.392 228.276 243.392C226.884 243.392 226.116 244.04 226.116 244.856C226.116 245.864 226.908 246.224 229.236 246.704C232.692 247.376 233.796 248.384 233.796 250.52C233.796 252.848 231.708 254.288 228.588 254.288ZM244.25 254C241.49 254 240.17 252.704 240.17 249.968V243.584H236.354V241.136H240.17V237.968H243.026V241.136H248.066V243.584H243.026V249.8C243.026 251 243.578 251.552 244.754 251.552H248.066V254H244.25ZM251.441 254V251.552H254.513V243.584H251.441V241.136H256.457L256.649 243.512C257.105 241.976 258.137 241.136 259.745 241.136H262.673V243.656H260.057C258.233 243.656 257.369 244.592 257.369 246.464V251.552H261.233V254H251.441ZM269.095 254.288C266.719 254.288 264.703 252.896 264.703 250.592C264.703 248.48 266.215 247.304 268.567 246.824L272.551 245.984C272.551 244.232 271.759 243.392 270.295 243.392C268.855 243.392 268.111 244.04 267.847 245.216L264.919 245.024C265.399 242.504 267.319 240.848 270.295 240.848C273.583 240.848 275.407 242.816 275.407 246.176V250.712C275.407 251.36 275.647 251.552 276.223 251.552H276.895V254C276.703 254.048 276.199 254.096 275.719 254.096C274.135 254.096 273.223 253.376 272.911 252.104C272.335 253.4 270.871 254.288 269.095 254.288ZM269.455 251.888C271.327 251.888 272.551 250.808 272.551 249.056V248.168L269.359 248.816C268.183 249.056 267.679 249.56 267.679 250.4C267.679 251.312 268.279 251.888 269.455 251.888ZM286.63 254C283.87 254 282.55 252.704 282.55 249.968V243.584H278.734V241.136H282.55V237.968H285.406V241.136H290.446V243.584H285.406V249.8C285.406 251 285.958 251.552 287.134 251.552H290.446V254H286.63ZM293.437 254V251.552H298.429V243.584H293.677V241.136H301.261V251.552H305.533V254H293.437ZM298.309 239.504V236.864H301.237V239.504H298.309ZM313.131 254.288C309.555 254.288 307.131 251.672 307.131 247.568C307.131 243.464 309.555 240.848 313.131 240.848C316.683 240.848 319.131 243.464 319.131 247.568C319.131 251.672 316.683 254.288 313.131 254.288ZM313.131 251.696C315.003 251.696 316.131 250.16 316.131 247.568C316.131 244.976 315.003 243.44 313.131 243.44C311.235 243.44 310.131 244.976 310.131 247.568C310.131 250.16 311.235 251.696 313.131 251.696ZM322.242 254V241.136H324.81L324.882 243.464C325.53 241.688 326.946 240.848 328.626 240.848C331.338 240.848 332.706 242.84 332.706 245.672V254H329.85V246.44C329.85 244.304 329.25 243.296 327.714 243.296C326.226 243.296 325.098 244.424 325.098 246.584V254H322.242ZM350.087 257.6V241.136H352.799L352.871 243.128C353.615 241.688 354.863 240.848 356.591 240.848C359.927 240.848 361.679 243.8 361.679 247.568C361.679 251.336 359.927 254.288 356.591 254.288C354.983 254.288 353.711 253.52 352.943 252.224V257.6H350.087ZM355.847 251.696C357.647 251.696 358.679 250.208 358.679 247.568C358.679 244.928 357.647 243.44 355.847 243.44C354.047 243.44 352.943 244.88 352.943 247.568C352.943 250.256 354.071 251.696 355.847 251.696ZM364.454 254V251.552H367.526V243.584H364.454V241.136H369.47L369.662 243.512C370.118 241.976 371.15 241.136 372.758 241.136H375.686V243.656H373.07C371.246 243.656 370.382 244.592 370.382 246.464V251.552H374.246V254H364.454ZM383.764 254.288C380.188 254.288 377.764 251.672 377.764 247.568C377.764 243.464 380.188 240.848 383.764 240.848C387.316 240.848 389.764 243.464 389.764 247.568C389.764 251.672 387.316 254.288 383.764 254.288ZM383.764 251.696C385.636 251.696 386.764 250.16 386.764 247.568C386.764 244.976 385.636 243.44 383.764 243.44C381.868 243.44 380.764 244.976 380.764 247.568C380.764 250.16 381.868 251.696 383.764 251.696ZM398.107 254.288C394.483 254.288 392.083 251.648 392.083 247.568C392.083 243.488 394.483 240.848 398.107 240.848C401.155 240.848 403.363 242.768 403.843 245.792L400.867 245.96C400.507 244.4 399.571 243.44 398.107 243.44C396.211 243.44 395.083 245 395.083 247.568C395.083 250.136 396.187 251.696 398.107 251.696C399.571 251.696 400.555 250.736 400.915 249.056L403.891 249.224C403.387 252.272 401.179 254.288 398.107 254.288ZM412.114 254.288C408.49 254.288 406.09 251.648 406.09 247.568C406.09 243.44 408.514 240.848 412.066 240.848C415.354 240.848 418.018 243.2 418.018 247.64V248.288H409.114C409.282 250.568 410.434 251.696 412.114 251.696C413.434 251.696 414.346 251.024 414.754 249.848L417.754 250.112C416.962 252.584 414.97 254.288 412.114 254.288ZM414.898 246.296C414.634 244.424 413.554 243.44 412.066 243.44C410.53 243.44 409.474 244.424 409.162 246.296H414.898ZM426.36 254.288C422.952 254.288 420.936 252.368 420.72 249.968L423.6 249.824C423.84 250.976 424.704 251.744 426.36 251.744C427.872 251.744 428.664 251.36 428.664 250.52C428.664 249.704 428.208 249.32 425.832 248.84C422.256 248.12 421.008 246.944 421.008 244.88C421.008 242.648 422.832 240.848 426.048 240.848C429.504 240.848 431.184 242.96 431.472 245.168L428.592 245.312C428.376 244.136 427.536 243.392 426.048 243.392C424.656 243.392 423.888 244.04 423.888 244.856C423.888 245.864 424.68 246.224 427.008 246.704C430.464 247.376 431.568 248.384 431.568 250.52C431.568 252.848 429.48 254.288 426.36 254.288ZM440.487 254.288C437.079 254.288 435.063 252.368 434.847 249.968L437.727 249.824C437.967 250.976 438.831 251.744 440.487 251.744C441.999 251.744 442.791 251.36 442.791 250.52C442.791 249.704 442.335 249.32 439.959 248.84C436.383 248.12 435.135 246.944 435.135 244.88C435.135 242.648 436.959 240.848 440.175 240.848C443.631 240.848 445.311 242.96 445.599 245.168L442.719 245.312C442.503 244.136 441.663 243.392 440.175 243.392C438.783 243.392 438.015 244.04 438.015 244.856C438.015 245.864 438.807 246.224 441.135 246.704C444.591 247.376 445.695 248.384 445.695 250.52C445.695 252.848 443.607 254.288 440.487 254.288Z" fill="black" fill-opacity="0.8"/>
<path d="M1114 192.674C1115.11 192.674 1116 191.779 1116 190.674C1116 189.57 1115.11 188.674 1114 188.674V192.674ZM1047.5 162.837C1047.5 161.733 1046.61 160.837 1045.5 160.837C1044.4 160.837 1043.5 161.733 1043.5 162.837H1047.5ZM1043.5 115.837C1043.5 116.942 1044.4 117.837 1045.5 117.837C1046.61 117.837 1047.5 116.942 1047.5 115.837H1043.5ZM994.311 79.1197C994.311 78.0151 992.958 77.234 992.001 77.7863L976.62 86.6667C975.663 87.219 975.663 88.781 976.62 89.3333L992.001 98.2137C992.958 98.766 994.311 97.9849 994.311 96.8803V79.1197ZM1114 188.674H1069.5V192.674H1114V188.674ZM1047.5 166.674V162.837H1043.5V166.674H1047.5ZM1047.5 115.837V112H1043.5V115.837H1047.5ZM1021.5 86H992.311V90H1021.5V86ZM1047.5 112C1047.5 97.6406 1035.86 86 1021.5 86V90C1033.65 90 1043.5 99.8497 1043.5 112H1047.5ZM1069.5 188.674C1057.35 188.674 1047.5 178.825 1047.5 166.674H1043.5C1043.5 181.034 1055.14 192.674 1069.5 192.674V188.674Z" fill="#8590A1"/>
<path d="M1017.72 146.337V144.677H1020.42V137.357H1017.72V135.697H1021.88L1022.02 137.757C1022.38 136.377 1023.24 135.697 1024.58 135.697H1026.84V137.417H1024.68C1023.12 137.417 1022.32 138.297 1022.32 139.977V144.677H1025.64V146.337H1017.72ZM1033.87 146.577C1030.87 146.577 1028.97 144.397 1028.97 141.017C1028.97 137.637 1030.87 135.457 1033.81 135.457C1036.57 135.457 1038.59 137.437 1038.59 141.057V141.557H1030.97C1031.11 143.717 1032.19 144.797 1033.87 144.797C1035.17 144.797 1036.01 144.137 1036.37 143.097L1038.41 143.257C1037.81 145.217 1036.17 146.577 1033.87 146.577ZM1036.51 140.017C1036.33 138.137 1035.27 137.237 1033.81 137.237C1032.29 137.237 1031.27 138.197 1030.99 140.017H1036.51ZM1044.1 146.577C1042.12 146.577 1040.54 145.417 1040.54 143.637C1040.54 141.837 1041.66 140.897 1043.86 140.457L1047.34 139.737C1047.34 138.057 1046.56 137.237 1045.14 137.237C1043.74 137.237 1043.02 137.857 1042.74 138.997L1040.74 138.857C1041.14 136.817 1042.7 135.457 1045.14 135.457C1047.76 135.457 1049.24 137.097 1049.24 139.817V144.017C1049.24 144.517 1049.44 144.677 1049.9 144.677H1050.54V146.337C1050.38 146.357 1049.98 146.397 1049.62 146.397C1048.42 146.397 1047.7 145.897 1047.48 144.817C1046.92 145.857 1045.62 146.577 1044.1 146.577ZM1044.32 144.917C1046.28 144.917 1047.34 143.817 1047.34 142.157V141.297L1044.28 141.917C1043 142.157 1042.54 142.657 1042.54 143.477C1042.54 144.397 1043.18 144.917 1044.32 144.917ZM1056.7 146.577C1053.98 146.577 1052.28 144.417 1052.28 141.017C1052.28 137.617 1053.98 135.457 1056.7 135.457C1058.14 135.457 1059.3 136.257 1059.84 137.197V132.137H1061.76V146.337H1060L1059.94 144.737C1059.34 145.917 1058.16 146.577 1056.7 146.577ZM1056.98 144.797C1058.76 144.797 1059.84 143.357 1059.84 141.017C1059.84 138.657 1058.76 137.237 1056.94 137.237C1055.3 137.237 1054.28 138.637 1054.28 141.017C1054.28 143.357 1055.3 144.797 1056.98 144.797ZM1069.25 146.577C1066.45 146.577 1064.77 144.997 1064.61 142.997L1066.59 142.877C1066.79 144.077 1067.67 144.797 1069.25 144.797C1070.71 144.797 1071.53 144.397 1071.53 143.537C1071.53 142.697 1071.09 142.337 1068.89 141.937C1065.83 141.377 1064.87 140.437 1064.87 138.717C1064.87 136.857 1066.33 135.457 1068.95 135.457C1071.67 135.457 1073.03 137.077 1073.33 138.917L1071.35 139.037C1071.13 137.977 1070.31 137.237 1068.95 137.237C1067.51 137.237 1066.83 137.877 1066.83 138.697C1066.83 139.697 1067.53 140.017 1069.45 140.357C1072.59 140.917 1073.49 141.757 1073.49 143.537C1073.49 145.437 1071.71 146.577 1069.25 146.577Z" fill="black" fill-opacity="0.8"/>
<path d="M1114 310.042C1115.11 310.042 1116 309.147 1116 308.042C1116 306.938 1115.11 306.042 1114 306.042V310.042ZM1043.5 349.521C1043.5 350.626 1044.4 351.521 1045.5 351.521C1046.61 351.521 1047.5 350.626 1047.5 349.521H1043.5ZM1047.5 396.521C1047.5 395.417 1046.61 394.521 1045.5 394.521C1044.4 394.521 1043.5 395.417 1043.5 396.521H1047.5ZM994.311 429.12C994.311 428.015 992.958 427.234 992.001 427.786L976.62 436.667C975.663 437.219 975.663 438.781 976.62 439.333L992.001 448.214C992.958 448.766 994.311 447.985 994.311 446.88V429.12ZM1114 306.042H1069.5V310.042H1114V306.042ZM1043.5 332.042V349.521H1047.5V332.042H1043.5ZM1043.5 396.521V414H1047.5V396.521H1043.5ZM1021.5 436H992.311V440H1021.5V436ZM1043.5 414C1043.5 426.15 1033.65 436 1021.5 436V440C1035.86 440 1047.5 428.359 1047.5 414H1043.5ZM1069.5 306.042C1055.14 306.042 1043.5 317.683 1043.5 332.042H1047.5C1047.5 319.892 1057.35 310.042 1069.5 310.042V306.042Z" fill="#8590A1"/>
<path d="M1012.53 380.021L1010.43 369.381H1012.49L1013.75 377.661L1015.13 370.881H1017.01L1018.39 377.661L1019.65 369.381H1021.71L1019.63 380.021H1017.41L1016.07 373.781L1014.73 380.021H1012.53ZM1023.61 380.021V378.361H1026.31V371.041H1023.61V369.381H1027.77L1027.91 371.441C1028.27 370.061 1029.13 369.381 1030.47 369.381H1032.73V371.101H1030.57C1029.01 371.101 1028.21 371.981 1028.21 373.661V378.361H1031.53V380.021H1023.61ZM1035.14 380.021V378.361H1039.36V371.041H1035.34V369.381H1041.28V378.361H1044.9V380.021H1035.14ZM1039.22 367.821V365.781H1041.22V367.821H1039.22ZM1052.91 380.021C1050.77 380.021 1049.75 379.041 1049.75 376.961V371.041H1046.35V369.381H1049.75V366.641H1051.65V369.381H1055.87V371.041H1051.65V376.901C1051.65 377.901 1052.11 378.361 1053.05 378.361H1055.87V380.021H1052.91ZM1063.3 380.261C1060.3 380.261 1058.4 378.081 1058.4 374.701C1058.4 371.321 1060.3 369.141 1063.24 369.141C1066 369.141 1068.02 371.121 1068.02 374.741V375.241H1060.4C1060.54 377.401 1061.62 378.481 1063.3 378.481C1064.6 378.481 1065.44 377.821 1065.8 376.781L1067.84 376.941C1067.24 378.901 1065.6 380.261 1063.3 380.261ZM1065.94 373.701C1065.76 371.821 1064.7 370.921 1063.24 370.921C1061.72 370.921 1060.7 371.881 1060.42 373.701H1065.94ZM1075.13 380.261C1072.33 380.261 1070.65 378.681 1070.49 376.681L1072.47 376.561C1072.67 377.761 1073.55 378.481 1075.13 378.481C1076.59 378.481 1077.41 378.081 1077.41 377.221C1077.41 376.381 1076.97 376.021 1074.77 375.621C1071.71 375.061 1070.75 374.121 1070.75 372.401C1070.75 370.541 1072.21 369.141 1074.83 369.141C1077.55 369.141 1078.91 370.761 1079.21 372.601L1077.23 372.721C1077.01 371.661 1076.19 370.921 1074.83 370.921C1073.39 370.921 1072.71 371.561 1072.71 372.381C1072.71 373.381 1073.41 373.701 1075.33 374.041C1078.47 374.601 1079.37 375.441 1079.37 377.221C1079.37 379.121 1077.59 380.261 1075.13 380.261Z" fill="black" fill-opacity="0.8"/>
<path d="M604 244C602.895 244 602 244.895 602 246C602 247.105 602.895 248 604 248V244ZM813.846 248C814.95 248 815.846 247.105 815.846 246C815.846 244.895 814.95 244 813.846 244V248ZM906.846 244C905.741 244 904.846 244.895 904.846 246C904.846 247.105 905.741 248 906.846 248V244ZM1096.69 254.88C1096.69 255.985 1098.04 256.766 1099 256.214L1114.38 247.333C1115.34 246.781 1115.34 245.219 1114.38 244.667L1099 235.786C1098.04 235.234 1096.69 236.015 1096.69 237.12V254.88ZM604 248H813.846V244H604V248ZM906.846 248H1098.69V244H906.846V248Z" fill="#8590A1"/>
<path d="M827.163 243.024C827.163 242.352 826.779 241.968 826.107 241.968H824.123V240.64H826.187C827.835 240.64 828.699 241.488 828.699 243.136V250.672H831.611V252H823.803V250.672H827.163V243.024ZM835.684 252.192C834.1 252.192 832.836 251.264 832.836 249.84C832.836 248.4 833.732 247.648 835.492 247.296L838.276 246.72C838.276 245.376 837.652 244.72 836.516 244.72C835.396 244.72 834.82 245.216 834.596 246.128L832.996 246.016C833.316 244.384 834.564 243.296 836.516 243.296C838.612 243.296 839.796 244.608 839.796 246.784V250.144C839.796 250.544 839.956 250.672 840.324 250.672H840.836V252C840.708 252.016 840.388 252.048 840.1 252.048C839.14 252.048 838.564 251.648 838.388 250.784C837.94 251.616 836.9 252.192 835.684 252.192ZM835.86 250.864C837.428 250.864 838.276 249.984 838.276 248.656V247.968L835.828 248.464C834.804 248.656 834.436 249.056 834.436 249.712C834.436 250.448 834.948 250.864 835.86 250.864ZM845.502 252.192C843.886 252.192 842.83 251.024 842.83 248.992V243.488H844.366V248.576C844.366 250.16 844.91 250.864 845.998 250.864C847.23 250.864 847.982 250.016 847.982 248.528V243.488H849.518V252H848.078L848.062 250.64C847.598 251.648 846.702 252.192 845.502 252.192ZM852.344 252V243.488H853.736L853.784 245.024C854.216 243.84 855.208 243.296 856.344 243.296C858.248 243.296 859.16 244.688 859.16 246.512V252H857.624V246.944C857.624 245.424 857.144 244.624 855.96 244.624C854.744 244.624 853.88 245.44 853.88 246.976V252H852.344ZM865.25 252.192C862.866 252.192 861.314 250.448 861.314 247.744C861.314 245.04 862.866 243.296 865.25 243.296C867.186 243.296 868.562 244.432 868.898 246.352L867.298 246.464C867.042 245.36 866.306 244.72 865.25 244.72C863.794 244.72 862.914 245.856 862.914 247.744C862.914 249.632 863.778 250.768 865.25 250.768C866.306 250.768 867.106 250.128 867.346 248.896L868.946 248.992C868.61 250.928 867.202 252.192 865.25 252.192ZM871.243 252V240.64H872.763V244.8C873.211 243.76 874.139 243.296 875.259 243.296C877.051 243.296 878.043 244.608 878.043 246.512V252H876.507V246.928C876.507 245.36 875.963 244.624 874.859 244.624C873.595 244.624 872.763 245.472 872.763 246.976V252H871.243ZM884.005 252.192C881.605 252.192 880.085 250.448 880.085 247.744C880.085 245.04 881.605 243.296 883.957 243.296C886.165 243.296 887.781 244.88 887.781 247.776V248.176H881.685C881.797 249.904 882.661 250.768 884.005 250.768C885.045 250.768 885.717 250.24 886.005 249.408L887.637 249.536C887.157 251.104 885.845 252.192 884.005 252.192ZM886.117 246.944C885.973 245.44 885.125 244.72 883.957 244.72C882.741 244.72 881.925 245.488 881.701 246.944H886.117ZM893.471 252.192C891.231 252.192 889.887 250.928 889.759 249.328L891.343 249.232C891.503 250.192 892.207 250.768 893.471 250.768C894.639 250.768 895.295 250.448 895.295 249.76C895.295 249.088 894.943 248.8 893.183 248.48C890.735 248.032 889.967 247.28 889.967 245.904C889.967 244.416 891.135 243.296 893.231 243.296C895.407 243.296 896.495 244.592 896.735 246.064L895.151 246.16C894.975 245.312 894.319 244.72 893.231 244.72C892.079 244.72 891.535 245.232 891.535 245.888C891.535 246.688 892.095 246.944 893.631 247.216C896.143 247.664 896.863 248.336 896.863 249.76C896.863 251.28 895.439 252.192 893.471 252.192Z" fill="black" fill-opacity="0.8"/>
<path d="M1286.11 114V96.96H1296.58V99.168H1288.46V104.328H1296.29V106.536H1288.46V111.792H1296.77V114H1286.11ZM1299.28 114L1303.96 107.448L1299.52 101.232H1302.23L1305.35 105.792L1308.4 101.232H1311.16L1306.74 107.496L1311.37 114H1308.66L1305.35 109.104L1302.04 114H1299.28ZM1321.28 114C1318.71 114 1317.49 112.824 1317.49 110.328V103.224H1313.41V101.232H1317.49V97.944H1319.77V101.232H1324.83V103.224H1319.77V110.256C1319.77 111.456 1320.32 112.008 1321.45 112.008H1324.83V114H1321.28ZM1333.75 114.288C1330.15 114.288 1327.87 111.672 1327.87 107.616C1327.87 103.56 1330.15 100.944 1333.68 100.944C1336.99 100.944 1339.41 103.32 1339.41 107.664V108.264H1330.27C1330.44 110.856 1331.73 112.152 1333.75 112.152C1335.31 112.152 1336.32 111.36 1336.75 110.112L1339.2 110.304C1338.48 112.656 1336.51 114.288 1333.75 114.288ZM1336.92 106.416C1336.7 104.16 1335.43 103.08 1333.68 103.08C1331.85 103.08 1330.63 104.232 1330.29 106.416H1336.92ZM1342.62 114V112.008H1345.86V103.224H1342.62V101.232H1347.61L1347.78 103.704C1348.21 102.048 1349.24 101.232 1350.85 101.232H1353.56V103.296H1350.97C1349.1 103.296 1348.14 104.352 1348.14 106.368V112.008H1352.12V114H1342.62ZM1356.89 114V101.232H1358.98L1359.05 103.536C1359.7 101.76 1361.19 100.944 1362.89 100.944C1365.75 100.944 1367.11 103.032 1367.11 105.768V114H1364.81V106.416C1364.81 104.136 1364.09 102.936 1362.31 102.936C1360.49 102.936 1359.19 104.16 1359.19 106.464V114H1356.89ZM1374.28 114.288C1371.9 114.288 1370.01 112.896 1370.01 110.76C1370.01 108.6 1371.35 107.472 1373.99 106.944L1378.17 106.08C1378.17 104.064 1377.23 103.08 1375.53 103.08C1373.85 103.08 1372.98 103.824 1372.65 105.192L1370.25 105.024C1370.73 102.576 1372.6 100.944 1375.53 100.944C1378.67 100.944 1380.45 102.912 1380.45 106.176V111.216C1380.45 111.816 1380.69 112.008 1381.24 112.008H1382.01V114C1381.82 114.024 1381.34 114.072 1380.9 114.072C1379.46 114.072 1378.6 113.472 1378.34 112.176C1377.66 113.424 1376.1 114.288 1374.28 114.288ZM1374.54 112.296C1376.9 112.296 1378.17 110.976 1378.17 108.984V107.952L1374.5 108.696C1372.96 108.984 1372.41 109.584 1372.41 110.568C1372.41 111.672 1373.18 112.296 1374.54 112.296ZM1389.75 100.536C1389.75 99.528 1389.17 98.952 1388.17 98.952H1385.19V96.96H1388.29C1390.76 96.96 1392.05 98.232 1392.05 100.704V112.008H1396.42V114H1384.71V112.008H1389.75V100.536ZM1413.25 114V96.96H1423.72V99.168H1415.6V104.328H1423.43V106.536H1415.6V111.792H1423.91V114H1413.25ZM1427.52 114V101.232H1429.61L1429.68 103.536C1430.33 101.76 1431.82 100.944 1433.52 100.944C1436.38 100.944 1437.75 103.032 1437.75 105.768V114H1435.44V106.416C1435.44 104.136 1434.72 102.936 1432.95 102.936C1431.12 102.936 1429.83 104.16 1429.83 106.464V114H1427.52ZM1445.15 114L1440.59 101.232H1443.09L1446.59 111.6L1450.1 101.232H1452.59L1448.03 114H1445.15ZM1455.34 114V112.008H1460.41V103.224H1455.58V101.232H1462.71V112.008H1467.06V114H1455.34ZM1460.24 99.36V96.912H1462.64V99.36H1460.24ZM1469.76 114V112.008H1473V103.224H1469.76V101.232H1474.75L1474.92 103.704C1475.35 102.048 1476.38 101.232 1477.99 101.232H1480.7V103.296H1478.11C1476.24 103.296 1475.28 104.352 1475.28 106.368V112.008H1479.26V114H1469.76ZM1488.97 114.288C1485.42 114.288 1483.09 111.696 1483.09 107.616C1483.09 103.536 1485.42 100.944 1488.97 100.944C1492.5 100.944 1494.85 103.536 1494.85 107.616C1494.85 111.696 1492.5 114.288 1488.97 114.288ZM1488.97 112.152C1491.16 112.152 1492.43 110.448 1492.43 107.616C1492.43 104.784 1491.16 103.08 1488.97 103.08C1486.76 103.08 1485.52 104.784 1485.52 107.616C1485.52 110.448 1486.76 112.152 1488.97 112.152ZM1498.16 114V101.232H1500.24L1500.32 103.536C1500.96 101.76 1502.45 100.944 1504.16 100.944C1507.01 100.944 1508.38 103.032 1508.38 105.768V114H1506.08V106.416C1506.08 104.136 1505.36 102.936 1503.58 102.936C1501.76 102.936 1500.46 104.16 1500.46 106.464V114H1498.16ZM1510.89 114V101.232H1512.93L1513 103.08C1513.46 101.736 1514.37 100.944 1515.55 100.944C1516.84 100.944 1517.61 101.784 1517.95 103.416C1518.38 101.88 1519.31 100.944 1520.66 100.944C1522.7 100.944 1523.56 102.312 1523.56 105.552V114H1521.28V105.84C1521.28 103.704 1520.85 102.936 1519.94 102.936C1519 102.936 1518.38 103.848 1518.38 105.864V114H1516.07V105.84C1516.07 103.776 1515.71 102.936 1514.73 102.936C1513.79 102.936 1513.17 103.848 1513.17 105.864V114H1510.89ZM1531.52 114.288C1527.92 114.288 1525.64 111.672 1525.64 107.616C1525.64 103.56 1527.92 100.944 1531.45 100.944C1534.76 100.944 1537.18 103.32 1537.18 107.664V108.264H1528.04C1528.21 110.856 1529.5 112.152 1531.52 112.152C1533.08 112.152 1534.09 111.36 1534.52 110.112L1536.97 110.304C1536.25 112.656 1534.28 114.288 1531.52 114.288ZM1534.69 106.416C1534.47 104.16 1533.2 103.08 1531.45 103.08C1529.62 103.08 1528.4 104.232 1528.06 106.416H1534.69ZM1540.54 114V101.232H1542.62L1542.7 103.536C1543.34 101.76 1544.83 100.944 1546.54 100.944C1549.39 100.944 1550.76 103.032 1550.76 105.768V114H1548.46V106.416C1548.46 104.136 1547.74 102.936 1545.96 102.936C1544.14 102.936 1542.84 104.16 1542.84 106.464V114H1540.54ZM1561.43 114C1558.86 114 1557.64 112.824 1557.64 110.328V103.224H1553.56V101.232H1557.64V97.944H1559.92V101.232H1564.98V103.224H1559.92V110.256C1559.92 111.456 1560.47 112.008 1561.6 112.008H1564.98V114H1561.43Z" fill="black"/>
<rect x="406" y="161" width="176" height="45" rx="18" fill="#4F43DD"/>
<path d="M423.562 190.192C421.178 190.192 419.626 188.448 419.626 185.744C419.626 183.04 421.178 181.296 423.562 181.296C425.498 181.296 426.874 182.432 427.21 184.352L425.61 184.464C425.354 183.36 424.618 182.72 423.562 182.72C422.106 182.72 421.226 183.856 421.226 185.744C421.226 187.632 422.09 188.768 423.562 188.768C424.618 188.768 425.418 188.128 425.658 186.896L427.258 186.992C426.922 188.928 425.514 190.192 423.562 190.192ZM432.788 190.192C430.42 190.192 428.868 188.464 428.868 185.744C428.868 183.024 430.42 181.296 432.788 181.296C435.14 181.296 436.708 183.024 436.708 185.744C436.708 188.464 435.14 190.192 432.788 190.192ZM432.788 188.768C434.244 188.768 435.092 187.632 435.092 185.744C435.092 183.856 434.244 182.72 432.788 182.72C431.316 182.72 430.484 183.856 430.484 185.744C430.484 187.632 431.316 188.768 432.788 188.768ZM438.91 190V181.488H440.302L440.35 183.024C440.782 181.84 441.774 181.296 442.91 181.296C444.814 181.296 445.726 182.688 445.726 184.512V190H444.19V184.944C444.19 183.424 443.71 182.624 442.526 182.624C441.31 182.624 440.446 183.44 440.446 184.976V190H438.91ZM452.839 190C451.127 190 450.311 189.216 450.311 187.552V182.816H447.591V181.488H450.311V179.296H451.831V181.488H455.207V182.816H451.831V187.504C451.831 188.304 452.199 188.672 452.951 188.672H455.207V190H452.839ZM461.153 190.192C458.753 190.192 457.233 188.448 457.233 185.744C457.233 183.04 458.753 181.296 461.105 181.296C463.313 181.296 464.929 182.88 464.929 185.776V186.176H458.833C458.945 187.904 459.809 188.768 461.153 188.768C462.193 188.768 462.865 188.24 463.153 187.408L464.785 187.536C464.305 189.104 462.993 190.192 461.153 190.192ZM463.265 184.944C463.121 183.44 462.273 182.72 461.105 182.72C459.889 182.72 459.073 183.488 458.849 184.944H463.265ZM466.427 190L469.547 185.632L466.587 181.488H468.395L470.475 184.528L472.507 181.488H474.347L471.403 185.664L474.491 190H472.683L470.475 186.736L468.267 190H466.427ZM481.093 190C479.381 190 478.565 189.216 478.565 187.552V182.816H475.844V181.488H478.565V179.296H480.085V181.488H483.461V182.816H480.085V187.504C480.085 188.304 480.453 188.672 481.205 188.672H483.461V190H481.093ZM495.128 190V188.672H498.504V182.816H495.288V181.488H500.04V188.672H502.936V190H495.128ZM498.392 180.24V178.608H499.992V180.24H498.392ZM504.834 190V181.488H506.226L506.274 183.024C506.706 181.84 507.698 181.296 508.834 181.296C510.738 181.296 511.65 182.688 511.65 184.512V190H510.114V184.944C510.114 183.424 509.634 182.624 508.45 182.624C507.234 182.624 506.37 183.44 506.37 184.976V190H504.834ZM514.443 192.4V191.072H517.275C517.931 191.072 518.315 190.576 518.315 189.808V182.816H514.571V181.488H519.851V189.792C519.851 191.376 519.035 192.4 517.451 192.4H514.443ZM518.251 180.24V178.608H519.851V180.24H518.251ZM527.077 190.192C524.677 190.192 523.157 188.448 523.157 185.744C523.157 183.04 524.677 181.296 527.029 181.296C529.237 181.296 530.853 182.88 530.853 185.776V186.176H524.757C524.869 187.904 525.733 188.768 527.077 188.768C528.117 188.768 528.789 188.24 529.077 187.408L530.709 187.536C530.229 189.104 528.917 190.192 527.077 190.192ZM529.189 184.944C529.045 183.44 528.197 182.72 527.029 182.72C525.813 182.72 524.997 183.488 524.773 184.944H529.189ZM536.575 190.192C534.191 190.192 532.639 188.448 532.639 185.744C532.639 183.04 534.191 181.296 536.575 181.296C538.511 181.296 539.887 182.432 540.223 184.352L538.623 184.464C538.367 183.36 537.631 182.72 536.575 182.72C535.119 182.72 534.239 183.856 534.239 185.744C534.239 187.632 535.103 188.768 536.575 188.768C537.631 188.768 538.431 188.128 538.671 186.896L540.271 186.992C539.935 188.928 538.527 190.192 536.575 190.192ZM547.017 190C545.305 190 544.489 189.216 544.489 187.552V182.816H541.769V181.488H544.489V179.296H546.009V181.488H549.385V182.816H546.009V187.504C546.009 188.304 546.377 188.672 547.129 188.672H549.385V190H547.017ZM555.218 190.192C552.85 190.192 551.298 188.464 551.298 185.744C551.298 183.024 552.85 181.296 555.218 181.296C557.57 181.296 559.138 183.024 559.138 185.744C559.138 188.464 557.57 190.192 555.218 190.192ZM555.218 188.768C556.674 188.768 557.522 187.632 557.522 185.744C557.522 183.856 556.674 182.72 555.218 182.72C553.746 182.72 552.914 183.856 552.914 185.744C552.914 187.632 553.746 188.768 555.218 188.768ZM561.244 190V188.672H563.404V182.816H561.244V181.488H564.572L564.684 183.136C564.972 182.032 565.66 181.488 566.732 181.488H568.54V182.864H566.812C565.564 182.864 564.924 183.568 564.924 184.912V188.672H567.58V190H561.244Z" fill="white"/>
<path d="M604 185.938C602.895 185.938 602 186.834 602 187.938C602 189.043 602.895 189.938 604 189.938V185.938ZM674.5 161.469C674.5 160.365 673.605 159.469 672.5 159.469C671.395 159.469 670.5 160.365 670.5 161.469H674.5ZM670.5 114.469C670.5 115.574 671.395 116.469 672.5 116.469C673.605 116.469 674.5 115.574 674.5 114.469H670.5ZM723.69 96.8803C723.69 97.9849 725.043 98.766 725.999 98.2137L741.381 89.3333C742.337 88.781 742.337 87.219 741.381 86.6667L725.999 77.7863C725.043 77.234 723.69 78.0151 723.69 79.1197V96.8803ZM604 189.938H648.5V185.938H604V189.938ZM674.5 163.938V161.469H670.5V163.938H674.5ZM674.5 114.469V112H670.5V114.469H674.5ZM696.5 90H725.69V86H696.5V90ZM674.5 112C674.5 99.8497 684.35 90 696.5 90V86C682.141 86 670.5 97.6406 670.5 112H674.5ZM648.5 189.938C662.859 189.938 674.5 178.298 674.5 163.938H670.5C670.5 176.089 660.65 185.938 648.5 185.938V189.938Z" fill="#8590A1"/>
<path d="M639.533 144.969L637.433 134.329H639.493L640.753 142.609L642.133 135.829H644.013L645.393 142.609L646.653 134.329H648.713L646.633 144.969H644.413L643.073 138.729L641.733 144.969H639.533ZM650.606 144.969V143.309H653.306V135.989H650.606V134.329H654.766L654.906 136.389C655.266 135.009 656.126 134.329 657.466 134.329H659.726V136.049H657.566C656.006 136.049 655.206 136.929 655.206 138.609V143.309H658.526V144.969H650.606ZM662.138 144.969V143.309H666.358V135.989H662.338V134.329H668.278V143.309H671.898V144.969H662.138ZM666.218 132.769V130.729H668.218V132.769H666.218ZM679.91 144.969C677.77 144.969 676.75 143.989 676.75 141.909V135.989H673.35V134.329H676.75V131.589H678.65V134.329H682.87V135.989H678.65V141.849C678.65 142.849 679.11 143.309 680.05 143.309H682.87V144.969H679.91ZM690.302 145.209C687.302 145.209 685.402 143.029 685.402 139.649C685.402 136.269 687.302 134.089 690.242 134.089C693.002 134.089 695.022 136.069 695.022 139.689V140.189H687.402C687.542 142.349 688.622 143.429 690.302 143.429C691.602 143.429 692.442 142.769 692.802 141.729L694.842 141.889C694.242 143.849 692.602 145.209 690.302 145.209ZM692.942 138.649C692.762 136.769 691.702 135.869 690.242 135.869C688.722 135.869 687.702 136.829 687.422 138.649H692.942ZM702.134 145.209C699.334 145.209 697.654 143.629 697.494 141.629L699.474 141.509C699.674 142.709 700.554 143.429 702.134 143.429C703.594 143.429 704.414 143.029 704.414 142.169C704.414 141.329 703.974 140.969 701.774 140.569C698.714 140.009 697.754 139.069 697.754 137.349C697.754 135.489 699.214 134.089 701.834 134.089C704.554 134.089 705.914 135.709 706.214 137.549L704.234 137.669C704.014 136.609 703.194 135.869 701.834 135.869C700.394 135.869 699.714 136.509 699.714 137.329C699.714 138.329 700.414 138.649 702.334 138.989C705.474 139.549 706.374 140.389 706.374 142.169C706.374 144.069 704.594 145.209 702.134 145.209Z" fill="black" fill-opacity="0.8"/>
<rect x="1142" y="158" width="176" height="45" rx="18" fill="#4F43DD"/>
<path d="M1168.98 187.192C1166.6 187.192 1165.04 185.448 1165.04 182.744C1165.04 180.04 1166.6 178.296 1168.98 178.296C1170.92 178.296 1172.29 179.432 1172.63 181.352L1171.03 181.464C1170.77 180.36 1170.04 179.72 1168.98 179.72C1167.52 179.72 1166.64 180.856 1166.64 182.744C1166.64 184.632 1167.51 185.768 1168.98 185.768C1170.04 185.768 1170.84 185.128 1171.08 183.896L1172.68 183.992C1172.34 185.928 1170.93 187.192 1168.98 187.192ZM1178.21 187.192C1175.84 187.192 1174.29 185.464 1174.29 182.744C1174.29 180.024 1175.84 178.296 1178.21 178.296C1180.56 178.296 1182.13 180.024 1182.13 182.744C1182.13 185.464 1180.56 187.192 1178.21 187.192ZM1178.21 185.768C1179.66 185.768 1180.51 184.632 1180.51 182.744C1180.51 180.856 1179.66 179.72 1178.21 179.72C1176.73 179.72 1175.9 180.856 1175.9 182.744C1175.9 184.632 1176.73 185.768 1178.21 185.768ZM1184.33 187V178.488H1185.72L1185.77 180.024C1186.2 178.84 1187.19 178.296 1188.33 178.296C1190.23 178.296 1191.14 179.688 1191.14 181.512V187H1189.61V181.944C1189.61 180.424 1189.13 179.624 1187.94 179.624C1186.73 179.624 1185.86 180.44 1185.86 181.976V187H1184.33ZM1198.26 187C1196.54 187 1195.73 186.216 1195.73 184.552V179.816H1193.01V178.488H1195.73V176.296H1197.25V178.488H1200.62V179.816H1197.25V184.504C1197.25 185.304 1197.62 185.672 1198.37 185.672H1200.62V187H1198.26ZM1206.57 187.192C1204.17 187.192 1202.65 185.448 1202.65 182.744C1202.65 180.04 1204.17 178.296 1206.52 178.296C1208.73 178.296 1210.35 179.88 1210.35 182.776V183.176H1204.25C1204.36 184.904 1205.23 185.768 1206.57 185.768C1207.61 185.768 1208.28 185.24 1208.57 184.408L1210.2 184.536C1209.72 186.104 1208.41 187.192 1206.57 187.192ZM1208.68 181.944C1208.54 180.44 1207.69 179.72 1206.52 179.72C1205.31 179.72 1204.49 180.488 1204.27 181.944H1208.68ZM1211.84 187L1214.96 182.632L1212 178.488H1213.81L1215.89 181.528L1217.92 178.488H1219.76L1216.82 182.664L1219.91 187H1218.1L1215.89 183.736L1213.68 187H1211.84ZM1226.51 187C1224.8 187 1223.98 186.216 1223.98 184.552V179.816H1221.26V178.488H1223.98V176.296H1225.5V178.488H1228.88V179.816H1225.5V184.504C1225.5 185.304 1225.87 185.672 1226.62 185.672H1228.88V187H1226.51ZM1243.91 178.024C1243.91 177.352 1243.52 176.968 1242.85 176.968H1240.87V175.64H1242.93C1244.58 175.64 1245.44 176.488 1245.44 178.136V185.672H1248.35V187H1240.55V185.672H1243.91V178.024ZM1253.55 187.192C1251.18 187.192 1249.63 185.464 1249.63 182.744C1249.63 180.024 1251.18 178.296 1253.55 178.296C1255.9 178.296 1257.47 180.024 1257.47 182.744C1257.47 185.464 1255.9 187.192 1253.55 187.192ZM1253.55 185.768C1255 185.768 1255.85 184.632 1255.85 182.744C1255.85 180.856 1255 179.72 1253.55 179.72C1252.08 179.72 1251.24 180.856 1251.24 182.744C1251.24 184.632 1252.08 185.768 1253.55 185.768ZM1261.85 187.192C1260.26 187.192 1259 186.264 1259 184.84C1259 183.4 1259.89 182.648 1261.65 182.296L1264.44 181.72C1264.44 180.376 1263.81 179.72 1262.68 179.72C1261.56 179.72 1260.98 180.216 1260.76 181.128L1259.16 181.016C1259.48 179.384 1260.73 178.296 1262.68 178.296C1264.77 178.296 1265.96 179.608 1265.96 181.784V185.144C1265.96 185.544 1266.12 185.672 1266.49 185.672H1267V187C1266.87 187.016 1266.55 187.048 1266.26 187.048C1265.3 187.048 1264.73 186.648 1264.55 185.784C1264.1 186.616 1263.06 187.192 1261.85 187.192ZM1262.02 185.864C1263.59 185.864 1264.44 184.984 1264.44 183.656V182.968L1261.99 183.464C1260.97 183.656 1260.6 184.056 1260.6 184.712C1260.6 185.448 1261.11 185.864 1262.02 185.864ZM1271.92 187.192C1269.74 187.192 1268.38 185.464 1268.38 182.744C1268.38 180.024 1269.74 178.296 1271.92 178.296C1273.07 178.296 1274 178.936 1274.43 179.688V175.64H1275.97V187H1274.56L1274.51 185.72C1274.03 186.664 1273.09 187.192 1271.92 187.192ZM1272.14 185.768C1273.57 185.768 1274.43 184.616 1274.43 182.744C1274.43 180.856 1273.57 179.72 1272.11 179.72C1270.8 179.72 1269.98 180.84 1269.98 182.744C1269.98 184.616 1270.8 185.768 1272.14 185.768ZM1281.91 187.192C1279.51 187.192 1277.99 185.448 1277.99 182.744C1277.99 180.04 1279.51 178.296 1281.86 178.296C1284.07 178.296 1285.69 179.88 1285.69 182.776V183.176H1279.59C1279.7 184.904 1280.57 185.768 1281.91 185.768C1282.95 185.768 1283.62 185.24 1283.91 184.408L1285.54 184.536C1285.06 186.104 1283.75 187.192 1281.91 187.192ZM1284.02 181.944C1283.88 180.44 1283.03 179.72 1281.86 179.72C1280.65 179.72 1279.83 180.488 1279.61 181.944H1284.02ZM1287.83 187V185.672H1289.99V179.816H1287.83V178.488H1291.15L1291.27 180.136C1291.55 179.032 1292.24 178.488 1293.31 178.488H1295.12V179.864H1293.39C1292.15 179.864 1291.51 180.568 1291.51 181.912V185.672H1294.16V187H1287.83Z" fill="white"/>
<rect x="1510" y="158" width="192" height="45" rx="18" fill="#2ECC81"/>
<path d="M1531.13 187.192C1529.96 187.192 1529.01 186.664 1528.53 185.72L1528.49 187H1527.08V175.64H1528.61V179.688C1529.05 178.936 1529.97 178.296 1531.13 178.296C1533.3 178.296 1534.66 180.024 1534.66 182.744C1534.66 185.464 1533.3 187.192 1531.13 187.192ZM1530.9 185.768C1532.25 185.768 1533.06 184.616 1533.06 182.744C1533.06 180.84 1532.25 179.72 1530.93 179.72C1529.48 179.72 1528.61 180.856 1528.61 182.744C1528.61 184.616 1529.48 185.768 1530.9 185.768ZM1540.08 187.192C1537.71 187.192 1536.16 185.464 1536.16 182.744C1536.16 180.024 1537.71 178.296 1540.08 178.296C1542.43 178.296 1544 180.024 1544 182.744C1544 185.464 1542.43 187.192 1540.08 187.192ZM1540.08 185.768C1541.53 185.768 1542.38 184.632 1542.38 182.744C1542.38 180.856 1541.53 179.72 1540.08 179.72C1538.61 179.72 1537.77 180.856 1537.77 182.744C1537.77 184.632 1538.61 185.768 1540.08 185.768ZM1549.5 187.192C1547.13 187.192 1545.58 185.464 1545.58 182.744C1545.58 180.024 1547.13 178.296 1549.5 178.296C1551.85 178.296 1553.42 180.024 1553.42 182.744C1553.42 185.464 1551.85 187.192 1549.5 187.192ZM1549.5 185.768C1550.95 185.768 1551.8 184.632 1551.8 182.744C1551.8 180.856 1550.95 179.72 1549.5 179.72C1548.02 179.72 1547.19 180.856 1547.19 182.744C1547.19 184.632 1548.02 185.768 1549.5 185.768ZM1560.13 187C1558.42 187 1557.6 186.216 1557.6 184.552V179.816H1554.88V178.488H1557.6V176.296H1559.12V178.488H1562.5V179.816H1559.12V184.504C1559.12 185.304 1559.49 185.672 1560.24 185.672H1562.5V187H1560.13ZM1568.49 187.192C1566.25 187.192 1564.91 185.928 1564.78 184.328L1566.36 184.232C1566.52 185.192 1567.23 185.768 1568.49 185.768C1569.66 185.768 1570.32 185.448 1570.32 184.76C1570.32 184.088 1569.96 183.8 1568.2 183.48C1565.76 183.032 1564.99 182.28 1564.99 180.904C1564.99 179.416 1566.16 178.296 1568.25 178.296C1570.43 178.296 1571.52 179.592 1571.76 181.064L1570.17 181.16C1570 180.312 1569.34 179.72 1568.25 179.72C1567.1 179.72 1566.56 180.232 1566.56 180.888C1566.56 181.688 1567.12 181.944 1568.65 182.216C1571.16 182.664 1571.88 183.336 1571.88 184.76C1571.88 186.28 1570.46 187.192 1568.49 187.192ZM1578.97 187C1577.25 187 1576.44 186.216 1576.44 184.552V179.816H1573.72V178.488H1576.44V176.296H1577.96V178.488H1581.33V179.816H1577.96V184.504C1577.96 185.304 1578.33 185.672 1579.08 185.672H1581.33V187H1578.97ZM1583.78 187V185.672H1585.94V179.816H1583.78V178.488H1587.1L1587.22 180.136C1587.5 179.032 1588.19 178.488 1589.26 178.488H1591.07V179.864H1589.34C1588.1 179.864 1587.46 180.568 1587.46 181.912V185.672H1590.11V187H1583.78ZM1595.47 187.192C1593.88 187.192 1592.62 186.264 1592.62 184.84C1592.62 183.4 1593.51 182.648 1595.27 182.296L1598.06 181.72C1598.06 180.376 1597.43 179.72 1596.3 179.72C1595.18 179.72 1594.6 180.216 1594.38 181.128L1592.78 181.016C1593.1 179.384 1594.35 178.296 1596.3 178.296C1598.39 178.296 1599.58 179.608 1599.58 181.784V185.144C1599.58 185.544 1599.74 185.672 1600.11 185.672H1600.62V187C1600.49 187.016 1600.17 187.048 1599.88 187.048C1598.92 187.048 1598.35 186.648 1598.17 185.784C1597.72 186.616 1596.68 187.192 1595.47 187.192ZM1595.64 185.864C1597.21 185.864 1598.06 184.984 1598.06 183.656V182.968L1595.61 183.464C1594.59 183.656 1594.22 184.056 1594.22 184.712C1594.22 185.448 1594.73 185.864 1595.64 185.864ZM1602.45 189.4V178.488H1603.89L1603.91 179.848C1604.4 178.84 1605.32 178.296 1606.48 178.296C1608.9 178.296 1610.04 180.344 1610.04 182.744C1610.04 185.144 1608.9 187.192 1606.48 187.192C1605.4 187.192 1604.45 186.696 1603.99 185.864V189.4H1602.45ZM1606.23 185.768C1607.6 185.768 1608.44 184.648 1608.44 182.744C1608.44 180.84 1607.6 179.72 1606.23 179.72C1604.85 179.72 1603.99 180.76 1603.99 182.744C1603.99 184.728 1604.84 185.768 1606.23 185.768ZM1621.29 189.4V178.488H1622.73L1622.74 179.848C1623.24 178.84 1624.15 178.296 1625.32 178.296C1627.73 178.296 1628.87 180.344 1628.87 182.744C1628.87 185.144 1627.73 187.192 1625.32 187.192C1624.23 187.192 1623.29 186.696 1622.82 185.864V189.4H1621.29ZM1625.06 185.768C1626.44 185.768 1627.27 184.648 1627.27 182.744C1627.27 180.84 1626.44 179.72 1625.06 179.72C1623.69 179.72 1622.82 180.76 1622.82 182.744C1622.82 184.728 1623.67 185.768 1625.06 185.768ZM1633.14 187.192C1631.55 187.192 1630.29 186.264 1630.29 184.84C1630.29 183.4 1631.18 182.648 1632.94 182.296L1635.73 181.72C1635.73 180.376 1635.1 179.72 1633.97 179.72C1632.85 179.72 1632.27 180.216 1632.05 181.128L1630.45 181.016C1630.77 179.384 1632.02 178.296 1633.97 178.296C1636.06 178.296 1637.25 179.608 1637.25 181.784V185.144C1637.25 185.544 1637.41 185.672 1637.78 185.672H1638.29V187C1638.16 187.016 1637.84 187.048 1637.55 187.048C1636.59 187.048 1636.02 186.648 1635.84 185.784C1635.39 186.616 1634.35 187.192 1633.14 187.192ZM1633.31 185.864C1634.88 185.864 1635.73 184.984 1635.73 183.656V182.968L1633.28 183.464C1632.26 183.656 1631.89 184.056 1631.89 184.712C1631.89 185.448 1632.4 185.864 1633.31 185.864ZM1640.95 189.4V188.072H1641.99C1642.57 188.072 1642.83 187.912 1642.99 187.496L1643.27 186.744H1642.78L1639.67 178.488H1641.34L1643.79 185.304L1646.07 178.488H1647.74L1644.35 187.96C1643.99 188.968 1643.34 189.4 1642.15 189.4H1640.95ZM1652.87 178.024C1652.87 177.352 1652.48 176.968 1651.81 176.968H1649.83V175.64H1651.89C1653.54 175.64 1654.4 176.488 1654.4 178.136V185.672H1657.32V187H1649.51V185.672H1652.87V178.024ZM1662.51 187.192C1660.14 187.192 1658.59 185.464 1658.59 182.744C1658.59 180.024 1660.14 178.296 1662.51 178.296C1664.86 178.296 1666.43 180.024 1666.43 182.744C1666.43 185.464 1664.86 187.192 1662.51 187.192ZM1662.51 185.768C1663.97 185.768 1664.81 184.632 1664.81 182.744C1664.81 180.856 1663.97 179.72 1662.51 179.72C1661.04 179.72 1660.21 180.856 1660.21 182.744C1660.21 184.632 1661.04 185.768 1662.51 185.768ZM1670.81 187.192C1669.22 187.192 1667.96 186.264 1667.96 184.84C1667.96 183.4 1668.86 182.648 1670.62 182.296L1673.4 181.72C1673.4 180.376 1672.78 179.72 1671.64 179.72C1670.52 179.72 1669.94 180.216 1669.72 181.128L1668.12 181.016C1668.44 179.384 1669.69 178.296 1671.64 178.296C1673.74 178.296 1674.92 179.608 1674.92 181.784V185.144C1674.92 185.544 1675.08 185.672 1675.45 185.672H1675.96V187C1675.83 187.016 1675.51 187.048 1675.22 187.048C1674.26 187.048 1673.69 186.648 1673.51 185.784C1673.06 186.616 1672.02 187.192 1670.81 187.192ZM1670.98 185.864C1672.55 185.864 1673.4 184.984 1673.4 183.656V182.968L1670.95 183.464C1669.93 183.656 1669.56 184.056 1669.56 184.712C1669.56 185.448 1670.07 185.864 1670.98 185.864ZM1680.88 187.192C1678.71 187.192 1677.35 185.464 1677.35 182.744C1677.35 180.024 1678.71 178.296 1680.88 178.296C1682.03 178.296 1682.96 178.936 1683.39 179.688V175.64H1684.93V187H1683.52L1683.47 185.72C1682.99 186.664 1682.05 187.192 1680.88 187.192ZM1681.11 185.768C1682.53 185.768 1683.39 184.616 1683.39 182.744C1683.39 180.856 1682.53 179.72 1681.07 179.72C1679.76 179.72 1678.95 180.84 1678.95 182.744C1678.95 184.616 1679.76 185.768 1681.11 185.768Z" fill="white"/>
<rect x="1518" y="286" width="176" height="45" rx="18" fill="#4F43DD"/>
<path d="M1545.94 317.4V306.488H1547.38L1547.4 307.848C1547.9 306.84 1548.81 306.296 1549.98 306.296C1552.39 306.296 1553.53 308.344 1553.53 310.744C1553.53 313.144 1552.39 315.192 1549.98 315.192C1548.89 315.192 1547.94 314.696 1547.48 313.864V317.4H1545.94ZM1549.72 313.768C1551.1 313.768 1551.93 312.648 1551.93 310.744C1551.93 308.84 1551.1 307.72 1549.72 307.72C1548.34 307.72 1547.48 308.76 1547.48 310.744C1547.48 312.728 1548.33 313.768 1549.72 313.768ZM1557.79 315.192C1556.21 315.192 1554.95 314.264 1554.95 312.84C1554.95 311.4 1555.84 310.648 1557.6 310.296L1560.39 309.72C1560.39 308.376 1559.76 307.72 1558.63 307.72C1557.51 307.72 1556.93 308.216 1556.71 309.128L1555.11 309.016C1555.43 307.384 1556.67 306.296 1558.63 306.296C1560.72 306.296 1561.91 307.608 1561.91 309.784V313.144C1561.91 313.544 1562.07 313.672 1562.43 313.672H1562.95V315C1562.82 315.016 1562.5 315.048 1562.21 315.048C1561.25 315.048 1560.67 314.648 1560.5 313.784C1560.05 314.616 1559.01 315.192 1557.79 315.192ZM1557.97 313.864C1559.54 313.864 1560.39 312.984 1560.39 311.656V310.968L1557.94 311.464C1556.91 311.656 1556.55 312.056 1556.55 312.712C1556.55 313.448 1557.06 313.864 1557.97 313.864ZM1564.94 315V313.672H1567.1V307.816H1564.94V306.488H1568.27L1568.38 308.136C1568.67 307.032 1569.36 306.488 1570.43 306.488H1572.24V307.864H1570.51C1569.26 307.864 1568.62 308.568 1568.62 309.912V313.672H1571.28V315H1564.94ZM1576.63 315.192C1575.05 315.192 1573.78 314.264 1573.78 312.84C1573.78 311.4 1574.68 310.648 1576.44 310.296L1579.22 309.72C1579.22 308.376 1578.6 307.72 1577.46 307.72C1576.34 307.72 1575.77 308.216 1575.54 309.128L1573.94 309.016C1574.26 307.384 1575.51 306.296 1577.46 306.296C1579.56 306.296 1580.74 307.608 1580.74 309.784V313.144C1580.74 313.544 1580.9 313.672 1581.27 313.672H1581.78V315C1581.65 315.016 1581.33 315.048 1581.05 315.048C1580.09 315.048 1579.51 314.648 1579.33 313.784C1578.89 314.616 1577.85 315.192 1576.63 315.192ZM1576.81 313.864C1578.37 313.864 1579.22 312.984 1579.22 311.656V310.968L1576.77 311.464C1575.75 311.656 1575.38 312.056 1575.38 312.712C1575.38 313.448 1575.89 313.864 1576.81 313.864ZM1582.94 315V306.488H1584.3L1584.35 307.72C1584.66 306.824 1585.26 306.296 1586.05 306.296C1586.91 306.296 1587.42 306.856 1587.65 307.944C1587.94 306.92 1588.56 306.296 1589.46 306.296C1590.82 306.296 1591.39 307.208 1591.39 309.368V315H1589.87V309.56C1589.87 308.136 1589.58 307.624 1588.98 307.624C1588.35 307.624 1587.94 308.232 1587.94 309.576V315H1586.4V309.56C1586.4 308.184 1586.16 307.624 1585.5 307.624C1584.88 307.624 1584.46 308.232 1584.46 309.576V315H1582.94ZM1596.75 315.192C1594.51 315.192 1593.16 313.928 1593.03 312.328L1594.62 312.232C1594.78 313.192 1595.48 313.768 1596.75 313.768C1597.91 313.768 1598.57 313.448 1598.57 312.76C1598.57 312.088 1598.22 311.8 1596.46 311.48C1594.01 311.032 1593.24 310.28 1593.24 308.904C1593.24 307.416 1594.41 306.296 1596.51 306.296C1598.68 306.296 1599.77 307.592 1600.01 309.064L1598.43 309.16C1598.25 308.312 1597.59 307.72 1596.51 307.72C1595.35 307.72 1594.81 308.232 1594.81 308.888C1594.81 309.688 1595.37 309.944 1596.91 310.216C1599.42 310.664 1600.14 311.336 1600.14 312.76C1600.14 314.28 1598.71 315.192 1596.75 315.192ZM1615.2 306.024C1615.2 305.352 1614.81 304.968 1614.14 304.968H1612.16V303.64H1614.22C1615.87 303.64 1616.73 304.488 1616.73 306.136V313.672H1619.64V315H1611.84V313.672H1615.2V306.024ZM1624.84 315.192C1622.47 315.192 1620.92 313.464 1620.92 310.744C1620.92 308.024 1622.47 306.296 1624.84 306.296C1627.19 306.296 1628.76 308.024 1628.76 310.744C1628.76 313.464 1627.19 315.192 1624.84 315.192ZM1624.84 313.768C1626.29 313.768 1627.14 312.632 1627.14 310.744C1627.14 308.856 1626.29 307.72 1624.84 307.72C1623.37 307.72 1622.53 308.856 1622.53 310.744C1622.53 312.632 1623.37 313.768 1624.84 313.768ZM1633.14 315.192C1631.55 315.192 1630.29 314.264 1630.29 312.84C1630.29 311.4 1631.18 310.648 1632.94 310.296L1635.73 309.72C1635.73 308.376 1635.1 307.72 1633.97 307.72C1632.85 307.72 1632.27 308.216 1632.05 309.128L1630.45 309.016C1630.77 307.384 1632.02 306.296 1633.97 306.296C1636.06 306.296 1637.25 307.608 1637.25 309.784V313.144C1637.25 313.544 1637.41 313.672 1637.78 313.672H1638.29V315C1638.16 315.016 1637.84 315.048 1637.55 315.048C1636.59 315.048 1636.02 314.648 1635.84 313.784C1635.39 314.616 1634.35 315.192 1633.14 315.192ZM1633.31 313.864C1634.88 313.864 1635.73 312.984 1635.73 311.656V310.968L1633.28 311.464C1632.26 311.656 1631.89 312.056 1631.89 312.712C1631.89 313.448 1632.4 313.864 1633.31 313.864ZM1643.21 315.192C1641.03 315.192 1639.67 313.464 1639.67 310.744C1639.67 308.024 1641.03 306.296 1643.21 306.296C1644.36 306.296 1645.29 306.936 1645.72 307.688V303.64H1647.26V315H1645.85L1645.8 313.72C1645.32 314.664 1644.38 315.192 1643.21 315.192ZM1643.43 313.768C1644.86 313.768 1645.72 312.616 1645.72 310.744C1645.72 308.856 1644.86 307.72 1643.4 307.72C1642.09 307.72 1641.27 308.84 1641.27 310.744C1641.27 312.616 1642.09 313.768 1643.43 313.768ZM1653.2 315.192C1650.8 315.192 1649.28 313.448 1649.28 310.744C1649.28 308.04 1650.8 306.296 1653.16 306.296C1655.36 306.296 1656.98 307.88 1656.98 310.776V311.176H1650.88C1651 312.904 1651.86 313.768 1653.2 313.768C1654.24 313.768 1654.92 313.24 1655.2 312.408L1656.84 312.536C1656.36 314.104 1655.04 315.192 1653.2 315.192ZM1655.32 309.944C1655.17 308.44 1654.32 307.72 1653.16 307.72C1651.94 307.72 1651.12 308.488 1650.9 309.944H1655.32ZM1659.12 315V313.672H1661.28V307.816H1659.12V306.488H1662.45L1662.56 308.136C1662.85 307.032 1663.53 306.488 1664.61 306.488H1666.41V307.864H1664.69C1663.44 307.864 1662.8 308.568 1662.8 309.912V313.672H1665.45V315H1659.12Z" fill="white"/>
<rect x="1142" y="286" width="176" height="45" rx="18" fill="#4F43DD"/>
<path d="M1159.56 315.192C1157.18 315.192 1155.63 313.448 1155.63 310.744C1155.63 308.04 1157.18 306.296 1159.56 306.296C1161.5 306.296 1162.87 307.432 1163.21 309.352L1161.61 309.464C1161.35 308.36 1160.62 307.72 1159.56 307.72C1158.11 307.72 1157.23 308.856 1157.23 310.744C1157.23 312.632 1158.09 313.768 1159.56 313.768C1160.62 313.768 1161.42 313.128 1161.66 311.896L1163.26 311.992C1162.92 313.928 1161.51 315.192 1159.56 315.192ZM1168.79 315.192C1166.42 315.192 1164.87 313.464 1164.87 310.744C1164.87 308.024 1166.42 306.296 1168.79 306.296C1171.14 306.296 1172.71 308.024 1172.71 310.744C1172.71 313.464 1171.14 315.192 1168.79 315.192ZM1168.79 313.768C1170.24 313.768 1171.09 312.632 1171.09 310.744C1171.09 308.856 1170.24 307.72 1168.79 307.72C1167.32 307.72 1166.48 308.856 1166.48 310.744C1166.48 312.632 1167.32 313.768 1168.79 313.768ZM1174.91 315V306.488H1176.3L1176.35 308.024C1176.78 306.84 1177.77 306.296 1178.91 306.296C1180.81 306.296 1181.73 307.688 1181.73 309.512V315H1180.19V309.944C1180.19 308.424 1179.71 307.624 1178.53 307.624C1177.31 307.624 1176.45 308.44 1176.45 309.976V315H1174.91ZM1188.84 315C1187.13 315 1186.31 314.216 1186.31 312.552V307.816H1183.59V306.488H1186.31V304.296H1187.83V306.488H1191.21V307.816H1187.83V312.504C1187.83 313.304 1188.2 313.672 1188.95 313.672H1191.21V315H1188.84ZM1197.15 315.192C1194.75 315.192 1193.23 313.448 1193.23 310.744C1193.23 308.04 1194.75 306.296 1197.11 306.296C1199.31 306.296 1200.93 307.88 1200.93 310.776V311.176H1194.83C1194.95 312.904 1195.81 313.768 1197.15 313.768C1198.19 313.768 1198.87 313.24 1199.15 312.408L1200.79 312.536C1200.31 314.104 1198.99 315.192 1197.15 315.192ZM1199.27 309.944C1199.12 308.44 1198.27 307.72 1197.11 307.72C1195.89 307.72 1195.07 308.488 1194.85 309.944H1199.27ZM1202.43 315L1205.55 310.632L1202.59 306.488H1204.39L1206.47 309.528L1208.51 306.488H1210.35L1207.4 310.664L1210.49 315H1208.68L1206.47 311.736L1204.27 315H1202.43ZM1217.09 315C1215.38 315 1214.56 314.216 1214.56 312.552V307.816H1211.84V306.488H1214.56V304.296H1216.08V306.488H1219.46V307.816H1216.08V312.504C1216.08 313.304 1216.45 313.672 1217.2 313.672H1219.46V315H1217.09ZM1231.13 315V313.672H1234.5V307.816H1231.29V306.488H1236.04V313.672H1238.94V315H1231.13ZM1234.39 305.24V303.608H1235.99V305.24H1234.39ZM1240.83 315V306.488H1242.23L1242.27 308.024C1242.71 306.84 1243.7 306.296 1244.83 306.296C1246.74 306.296 1247.65 307.688 1247.65 309.512V315H1246.11V309.944C1246.11 308.424 1245.63 307.624 1244.45 307.624C1243.23 307.624 1242.37 308.44 1242.37 309.976V315H1240.83ZM1250.44 317.4V316.072H1253.28C1253.93 316.072 1254.32 315.576 1254.32 314.808V307.816H1250.57V306.488H1255.85V314.792C1255.85 316.376 1255.04 317.4 1253.45 317.4H1250.44ZM1254.25 305.24V303.608H1255.85V305.24H1254.25ZM1263.08 315.192C1260.68 315.192 1259.16 313.448 1259.16 310.744C1259.16 308.04 1260.68 306.296 1263.03 306.296C1265.24 306.296 1266.85 307.88 1266.85 310.776V311.176H1260.76C1260.87 312.904 1261.73 313.768 1263.08 313.768C1264.12 313.768 1264.79 313.24 1265.08 312.408L1266.71 312.536C1266.23 314.104 1264.92 315.192 1263.08 315.192ZM1265.19 309.944C1265.05 308.44 1264.2 307.72 1263.03 307.72C1261.81 307.72 1261 308.488 1260.77 309.944H1265.19ZM1272.58 315.192C1270.19 315.192 1268.64 313.448 1268.64 310.744C1268.64 308.04 1270.19 306.296 1272.58 306.296C1274.51 306.296 1275.89 307.432 1276.22 309.352L1274.62 309.464C1274.37 308.36 1273.63 307.72 1272.58 307.72C1271.12 307.72 1270.24 308.856 1270.24 310.744C1270.24 312.632 1271.1 313.768 1272.58 313.768C1273.63 313.768 1274.43 313.128 1274.67 311.896L1276.27 311.992C1275.94 313.928 1274.53 315.192 1272.58 315.192ZM1283.02 315C1281.3 315 1280.49 314.216 1280.49 312.552V307.816H1277.77V306.488H1280.49V304.296H1282.01V306.488H1285.38V307.816H1282.01V312.504C1282.01 313.304 1282.38 313.672 1283.13 313.672H1285.38V315H1283.02ZM1291.22 315.192C1288.85 315.192 1287.3 313.464 1287.3 310.744C1287.3 308.024 1288.85 306.296 1291.22 306.296C1293.57 306.296 1295.14 308.024 1295.14 310.744C1295.14 313.464 1293.57 315.192 1291.22 315.192ZM1291.22 313.768C1292.67 313.768 1293.52 312.632 1293.52 310.744C1293.52 308.856 1292.67 307.72 1291.22 307.72C1289.75 307.72 1288.91 308.856 1288.91 310.744C1288.91 312.632 1289.75 313.768 1291.22 313.768ZM1297.24 315V313.672H1299.4V307.816H1297.24V306.488H1300.57L1300.68 308.136C1300.97 307.032 1301.66 306.488 1302.73 306.488H1304.54V307.864H1302.81C1301.56 307.864 1300.92 308.568 1300.92 309.912V313.672H1303.58V315H1297.24Z" fill="white"/>
<rect x="406" y="286" width="176" height="45" rx="18" fill="#4F43DD"/>
<path d="M428.564 315V306.488H429.924L429.972 307.72C430.276 306.824 430.884 306.296 431.668 306.296C432.532 306.296 433.044 306.856 433.268 307.944C433.556 306.92 434.18 306.296 435.076 306.296C436.436 306.296 437.012 307.208 437.012 309.368V315H435.492V309.56C435.492 308.136 435.204 307.624 434.596 307.624C433.972 307.624 433.556 308.232 433.556 309.576V315H432.02V309.56C432.02 308.184 431.78 307.624 431.124 307.624C430.5 307.624 430.084 308.232 430.084 309.576V315H428.564ZM442.317 315.192C439.917 315.192 438.397 313.448 438.397 310.744C438.397 308.04 439.917 306.296 442.269 306.296C444.477 306.296 446.093 307.88 446.093 310.776V311.176H439.997C440.109 312.904 440.973 313.768 442.317 313.768C443.357 313.768 444.029 313.24 444.317 312.408L445.949 312.536C445.469 314.104 444.157 315.192 442.317 315.192ZM444.429 309.944C444.285 308.44 443.437 307.72 442.269 307.72C441.053 307.72 440.237 308.488 440.013 309.944H444.429ZM451.783 315.192C449.543 315.192 448.199 313.928 448.071 312.328L449.655 312.232C449.815 313.192 450.519 313.768 451.783 313.768C452.951 313.768 453.607 313.448 453.607 312.76C453.607 312.088 453.255 311.8 451.495 311.48C449.047 311.032 448.279 310.28 448.279 308.904C448.279 307.416 449.447 306.296 451.543 306.296C453.719 306.296 454.807 307.592 455.047 309.064L453.463 309.16C453.287 308.312 452.631 307.72 451.543 307.72C450.391 307.72 449.847 308.232 449.847 308.888C449.847 309.688 450.407 309.944 451.943 310.216C454.455 310.664 455.175 311.336 455.175 312.76C455.175 314.28 453.751 315.192 451.783 315.192ZM461.201 315.192C458.961 315.192 457.617 313.928 457.489 312.328L459.073 312.232C459.233 313.192 459.937 313.768 461.201 313.768C462.369 313.768 463.025 313.448 463.025 312.76C463.025 312.088 462.673 311.8 460.913 311.48C458.465 311.032 457.697 310.28 457.697 308.904C457.697 307.416 458.865 306.296 460.961 306.296C463.137 306.296 464.225 307.592 464.465 309.064L462.881 309.16C462.705 308.312 462.049 307.72 460.961 307.72C459.809 307.72 459.265 308.232 459.265 308.888C459.265 309.688 459.825 309.944 461.361 310.216C463.873 310.664 464.593 311.336 464.593 312.76C464.593 314.28 463.169 315.192 461.201 315.192ZM469.339 315.192C467.755 315.192 466.491 314.264 466.491 312.84C466.491 311.4 467.387 310.648 469.147 310.296L471.931 309.72C471.931 308.376 471.307 307.72 470.171 307.72C469.051 307.72 468.475 308.216 468.251 309.128L466.651 309.016C466.971 307.384 468.219 306.296 470.171 306.296C472.267 306.296 473.451 307.608 473.451 309.784V313.144C473.451 313.544 473.611 313.672 473.979 313.672H474.491V315C474.363 315.016 474.043 315.048 473.755 315.048C472.795 315.048 472.219 314.648 472.043 313.784C471.595 314.616 470.555 315.192 469.339 315.192ZM469.515 313.864C471.083 313.864 471.931 312.984 471.931 311.656V310.968L469.483 311.464C468.459 311.656 468.091 312.056 468.091 312.712C468.091 313.448 468.603 313.864 469.515 313.864ZM479.828 317.592C477.956 317.592 476.612 316.616 476.26 315.128L477.86 315.016C478.1 315.768 478.644 316.2 479.828 316.2C481.252 316.2 482.052 315.592 482.052 314.376V313.128C481.652 313.992 480.756 314.552 479.62 314.552C477.492 314.552 476.004 312.872 476.004 310.456C476.004 307.976 477.46 306.296 479.556 306.296C480.724 306.296 481.716 306.872 482.116 307.832V306.488H483.588V314.264C483.588 316.392 482.196 317.592 479.828 317.592ZM479.812 313.176C481.172 313.176 482.052 312.136 482.052 310.456C482.084 308.76 481.188 307.72 479.812 307.72C478.436 307.72 477.604 308.76 477.604 310.456C477.604 312.136 478.452 313.176 479.812 313.176ZM489.406 315.192C487.006 315.192 485.486 313.448 485.486 310.744C485.486 308.04 487.006 306.296 489.358 306.296C491.566 306.296 493.182 307.88 493.182 310.776V311.176H487.086C487.198 312.904 488.062 313.768 489.406 313.768C490.446 313.768 491.118 313.24 491.406 312.408L493.038 312.536C492.558 314.104 491.246 315.192 489.406 315.192ZM491.518 309.944C491.374 308.44 490.526 307.72 489.358 307.72C488.142 307.72 487.326 308.488 487.102 309.944H491.518ZM504.738 315V313.672H506.898V307.816H504.738V306.488H508.066L508.178 308.136C508.466 307.032 509.154 306.488 510.226 306.488H512.034V307.864H510.306C509.058 307.864 508.418 308.568 508.418 309.912V313.672H511.074V315H504.738ZM517.659 315.192C515.259 315.192 513.739 313.448 513.739 310.744C513.739 308.04 515.259 306.296 517.611 306.296C519.819 306.296 521.435 307.88 521.435 310.776V311.176H515.339C515.451 312.904 516.315 313.768 517.659 313.768C518.699 313.768 519.371 313.24 519.659 312.408L521.291 312.536C520.811 314.104 519.499 315.192 517.659 315.192ZM519.771 309.944C519.627 308.44 518.779 307.72 517.611 307.72C516.395 307.72 515.579 308.488 515.355 309.944H519.771ZM525.845 315.192C524.261 315.192 522.997 314.264 522.997 312.84C522.997 311.4 523.893 310.648 525.653 310.296L528.437 309.72C528.437 308.376 527.813 307.72 526.677 307.72C525.557 307.72 524.981 308.216 524.757 309.128L523.157 309.016C523.477 307.384 524.725 306.296 526.677 306.296C528.773 306.296 529.957 307.608 529.957 309.784V313.144C529.957 313.544 530.117 313.672 530.485 313.672H530.997V315C530.869 315.016 530.549 315.048 530.261 315.048C529.301 315.048 528.725 314.648 528.549 313.784C528.101 314.616 527.061 315.192 525.845 315.192ZM526.021 313.864C527.589 313.864 528.437 312.984 528.437 311.656V310.968L525.989 311.464C524.965 311.656 524.597 312.056 524.597 312.712C524.597 313.448 525.109 313.864 526.021 313.864ZM535.919 315.192C533.743 315.192 532.383 313.464 532.383 310.744C532.383 308.024 533.743 306.296 535.919 306.296C537.071 306.296 537.999 306.936 538.431 307.688V303.64H539.967V315H538.559L538.511 313.72C538.031 314.664 537.087 315.192 535.919 315.192ZM536.143 313.768C537.567 313.768 538.431 312.616 538.431 310.744C538.431 308.856 537.567 307.72 536.111 307.72C534.799 307.72 533.983 308.84 533.983 310.744C533.983 312.616 534.799 313.768 536.143 313.768ZM545.913 315.192C543.513 315.192 541.993 313.448 541.993 310.744C541.993 308.04 543.513 306.296 545.865 306.296C548.073 306.296 549.689 307.88 549.689 310.776V311.176H543.593C543.705 312.904 544.569 313.768 545.913 313.768C546.953 313.768 547.625 313.24 547.913 312.408L549.545 312.536C549.065 314.104 547.753 315.192 545.913 315.192ZM548.025 309.944C547.881 308.44 547.033 307.72 545.865 307.72C544.649 307.72 543.833 308.488 543.609 309.944H548.025ZM551.826 315V313.672H553.986V307.816H551.826V306.488H555.154L555.266 308.136C555.554 307.032 556.242 306.488 557.314 306.488H559.122V307.864H557.394C556.146 307.864 555.506 308.568 555.506 309.912V313.672H558.162V315H551.826Z" fill="white"/>
<path d="M604 291.621C602.895 291.621 602 292.517 602 293.621C602 294.726 602.895 295.621 604 295.621V291.621ZM670.5 342.311C670.5 343.415 671.395 344.311 672.5 344.311C673.605 344.311 674.5 343.415 674.5 342.311H670.5ZM674.5 389.311C674.5 388.206 673.605 387.311 672.5 387.311C671.395 387.311 670.5 388.206 670.5 389.311H674.5ZM723.69 446.88C723.69 447.985 725.043 448.766 725.999 448.214L741.381 439.333C742.337 438.781 742.337 437.219 741.381 436.667L725.999 427.786C725.043 427.234 723.69 428.015 723.69 429.12V446.88ZM604 295.621H648.5V291.621H604V295.621ZM670.5 317.621V342.311H674.5V317.621H670.5ZM670.5 389.311V414H674.5V389.311H670.5ZM696.5 440H725.69V436H696.5V440ZM670.5 414C670.5 428.359 682.141 440 696.5 440V436C684.35 436 674.5 426.15 674.5 414H670.5ZM648.5 295.621C660.65 295.621 670.5 305.471 670.5 317.621H674.5C674.5 303.262 662.859 291.621 648.5 291.621V295.621Z" fill="#8590A1"/>
<path d="M644.72 372.811V371.151H647.42V363.831H644.72V362.171H648.88L649.02 364.231C649.38 362.851 650.24 362.171 651.58 362.171H653.84V363.891H651.68C650.12 363.891 649.32 364.771 649.32 366.451V371.151H652.64V372.811H644.72ZM660.872 373.051C657.872 373.051 655.972 370.871 655.972 367.491C655.972 364.111 657.872 361.931 660.812 361.931C663.572 361.931 665.592 363.911 665.592 367.531V368.031H657.972C658.112 370.191 659.192 371.271 660.872 371.271C662.172 371.271 663.012 370.611 663.372 369.571L665.412 369.731C664.812 371.691 663.172 373.051 660.872 373.051ZM663.512 366.491C663.332 364.611 662.272 363.711 660.812 363.711C659.292 363.711 658.272 364.671 657.992 366.491H663.512ZM671.104 373.051C669.124 373.051 667.544 371.891 667.544 370.111C667.544 368.311 668.664 367.371 670.864 366.931L674.344 366.211C674.344 364.531 673.564 363.711 672.144 363.711C670.744 363.711 670.024 364.331 669.744 365.471L667.744 365.331C668.144 363.291 669.704 361.931 672.144 361.931C674.764 361.931 676.244 363.571 676.244 366.291V370.491C676.244 370.991 676.444 371.151 676.904 371.151H677.544V372.811C677.384 372.831 676.984 372.871 676.624 372.871C675.424 372.871 674.704 372.371 674.484 371.291C673.924 372.331 672.624 373.051 671.104 373.051ZM671.324 371.391C673.284 371.391 674.344 370.291 674.344 368.631V367.771L671.284 368.391C670.004 368.631 669.544 369.131 669.544 369.951C669.544 370.871 670.184 371.391 671.324 371.391ZM683.696 373.051C680.976 373.051 679.276 370.891 679.276 367.491C679.276 364.091 680.976 361.931 683.696 361.931C685.136 361.931 686.296 362.731 686.836 363.671V358.611H688.756V372.811H686.996L686.936 371.211C686.336 372.391 685.156 373.051 683.696 373.051ZM683.976 371.271C685.756 371.271 686.836 369.831 686.836 367.491C686.836 365.131 685.756 363.711 683.936 363.711C682.296 363.711 681.276 365.111 681.276 367.491C681.276 369.831 682.296 371.271 683.976 371.271ZM696.248 373.051C693.448 373.051 691.768 371.471 691.608 369.471L693.588 369.351C693.788 370.551 694.668 371.271 696.248 371.271C697.708 371.271 698.528 370.871 698.528 370.011C698.528 369.171 698.088 368.811 695.888 368.411C692.828 367.851 691.868 366.911 691.868 365.191C691.868 363.331 693.328 361.931 695.948 361.931C698.668 361.931 700.028 363.551 700.328 365.391L698.348 365.511C698.128 364.451 697.308 363.711 695.948 363.711C694.508 363.711 693.828 364.351 693.828 365.171C693.828 366.171 694.528 366.491 696.448 366.831C699.588 367.391 700.488 368.231 700.488 370.011C700.488 371.911 698.708 373.051 696.248 373.051Z" fill="black" fill-opacity="0.8"/>
<path d="M1324 178.5C1322.9 178.5 1322 179.395 1322 180.5C1322 181.605 1322.9 182.5 1324 182.5V178.5ZM1363.28 182.5C1364.39 182.5 1365.28 181.605 1365.28 180.5C1365.28 179.395 1364.39 178.5 1363.28 178.5V182.5ZM1467.41 178.5C1466.3 178.5 1465.41 179.395 1465.41 180.5C1465.41 181.605 1466.3 182.5 1467.41 182.5V178.5ZM1486.69 189.38C1486.69 190.485 1488.04 191.266 1489 190.714L1504.38 181.833C1505.34 181.281 1505.34 179.719 1504.38 179.167L1489 170.286C1488.04 169.734 1486.69 170.515 1486.69 171.62V189.38ZM1324 182.5H1363.28V178.5H1324V182.5ZM1467.41 182.5H1488.69V178.5H1467.41V182.5Z" fill="#E1E3E8"/>
<path d="M1378.48 187.216C1375.8 187.216 1374.05 185.254 1374.05 182.212C1374.05 179.17 1375.8 177.208 1378.48 177.208C1380.66 177.208 1382.21 178.486 1382.59 180.646L1380.79 180.772C1380.5 179.53 1379.67 178.81 1378.48 178.81C1376.84 178.81 1375.85 180.088 1375.85 182.212C1375.85 184.336 1376.83 185.614 1378.48 185.614C1379.67 185.614 1380.57 184.894 1380.84 183.508L1382.64 183.616C1382.26 185.794 1380.68 187.216 1378.48 187.216ZM1388.86 187.216C1386.2 187.216 1384.45 185.272 1384.45 182.212C1384.45 179.152 1386.2 177.208 1388.86 177.208C1391.51 177.208 1393.27 179.152 1393.27 182.212C1393.27 185.272 1391.51 187.216 1388.86 187.216ZM1388.86 185.614C1390.5 185.614 1391.45 184.336 1391.45 182.212C1391.45 180.088 1390.5 178.81 1388.86 178.81C1387.21 178.81 1386.27 180.088 1386.27 182.212C1386.27 184.336 1387.21 185.614 1388.86 185.614ZM1395.75 187V177.424H1397.31L1397.37 179.152C1397.85 177.82 1398.97 177.208 1400.25 177.208C1402.39 177.208 1403.42 178.774 1403.42 180.826V187H1401.69V181.312C1401.69 179.602 1401.15 178.702 1399.82 178.702C1398.45 178.702 1397.48 179.62 1397.48 181.348V187H1395.75ZM1410.23 187.216C1407.71 187.216 1406.2 185.794 1406.06 183.994L1407.84 183.886C1408.02 184.966 1408.81 185.614 1410.23 185.614C1411.55 185.614 1412.28 185.254 1412.28 184.48C1412.28 183.724 1411.89 183.4 1409.91 183.04C1407.15 182.536 1406.29 181.69 1406.29 180.142C1406.29 178.468 1407.6 177.208 1409.96 177.208C1412.41 177.208 1413.63 178.666 1413.9 180.322L1412.12 180.43C1411.92 179.476 1411.19 178.81 1409.96 178.81C1408.67 178.81 1408.05 179.386 1408.05 180.124C1408.05 181.024 1408.68 181.312 1410.41 181.618C1413.24 182.122 1414.05 182.878 1414.05 184.48C1414.05 186.19 1412.45 187.216 1410.23 187.216ZM1419.84 187.216C1418.02 187.216 1416.83 185.902 1416.83 183.616V177.424H1418.56V183.148C1418.56 184.93 1419.17 185.722 1420.39 185.722C1421.78 185.722 1422.63 184.768 1422.63 183.094V177.424H1424.35V187H1422.73L1422.72 185.47C1422.19 186.604 1421.19 187.216 1419.84 187.216ZM1426.49 187V177.424H1428.02L1428.07 178.81C1428.42 177.802 1429.1 177.208 1429.98 177.208C1430.95 177.208 1431.53 177.838 1431.78 179.062C1432.11 177.91 1432.81 177.208 1433.82 177.208C1435.35 177.208 1435.99 178.234 1435.99 180.664V187H1434.28V180.88C1434.28 179.278 1433.96 178.702 1433.28 178.702C1432.57 178.702 1432.11 179.386 1432.11 180.898V187H1430.38V180.88C1430.38 179.332 1430.11 178.702 1429.37 178.702C1428.67 178.702 1428.2 179.386 1428.2 180.898V187H1426.49ZM1441.96 187.216C1439.26 187.216 1437.55 185.254 1437.55 182.212C1437.55 179.17 1439.26 177.208 1441.91 177.208C1444.39 177.208 1446.21 178.99 1446.21 182.248V182.698H1439.35C1439.48 184.642 1440.45 185.614 1441.96 185.614C1443.13 185.614 1443.89 185.02 1444.21 184.084L1446.05 184.228C1445.51 185.992 1444.03 187.216 1441.96 187.216ZM1444.34 181.312C1444.18 179.62 1443.22 178.81 1441.91 178.81C1440.54 178.81 1439.62 179.674 1439.37 181.312H1444.34ZM1452.61 187.216C1450.09 187.216 1448.58 185.794 1448.44 183.994L1450.22 183.886C1450.4 184.966 1451.19 185.614 1452.61 185.614C1453.93 185.614 1454.66 185.254 1454.66 184.48C1454.66 183.724 1454.27 183.4 1452.29 183.04C1449.53 182.536 1448.67 181.69 1448.67 180.142C1448.67 178.468 1449.98 177.208 1452.34 177.208C1454.79 177.208 1456.01 178.666 1456.28 180.322L1454.5 180.43C1454.3 179.476 1453.57 178.81 1452.34 178.81C1451.05 178.81 1450.43 179.386 1450.43 180.124C1450.43 181.024 1451.06 181.312 1452.79 181.618C1455.62 182.122 1456.43 182.878 1456.43 184.48C1456.43 186.19 1454.83 187.216 1452.61 187.216Z" fill="white"/>
<path d="M1604 280C1604 281.105 1604.9 282 1606 282C1607.1 282 1608 281.105 1608 280H1604ZM1608 278C1608 276.895 1607.1 276 1606 276C1604.9 276 1604 276.895 1604 278H1608ZM1604 234.176C1604 235.281 1604.9 236.176 1606 236.176C1607.1 236.176 1608 235.281 1608 234.176H1604ZM1614.88 226.31C1615.98 226.31 1616.77 224.957 1616.21 224.001L1607.33 208.619C1606.78 207.663 1605.22 207.663 1604.67 208.619L1595.79 224.001C1595.23 224.957 1596.02 226.31 1597.12 226.31H1614.88ZM1608 280V278H1604V280H1608ZM1608 234.176V224.31H1604V234.176H1608Z" fill="#E1E3E8"/>
<path d="M1584.56 252.578C1584.56 251.822 1584.13 251.39 1583.37 251.39H1581.14V249.896H1583.46C1585.32 249.896 1586.29 250.85 1586.29 252.704V261.182H1589.57V262.676H1580.78V261.182H1584.56V252.578ZM1595.41 262.892C1592.74 262.892 1591 260.948 1591 257.888C1591 254.828 1592.74 252.884 1595.41 252.884C1598.05 252.884 1599.82 254.828 1599.82 257.888C1599.82 260.948 1598.05 262.892 1595.41 262.892ZM1595.41 261.29C1597.05 261.29 1598 260.012 1598 257.888C1598 255.764 1597.05 254.486 1595.41 254.486C1593.75 254.486 1592.82 255.764 1592.82 257.888C1592.82 260.012 1593.75 261.29 1595.41 261.29ZM1604.74 262.892C1602.96 262.892 1601.54 261.848 1601.54 260.246C1601.54 258.626 1602.55 257.78 1604.53 257.384L1607.66 256.736C1607.66 255.224 1606.96 254.486 1605.68 254.486C1604.42 254.486 1603.77 255.044 1603.52 256.07L1601.72 255.944C1602.08 254.108 1603.48 252.884 1605.68 252.884C1608.04 252.884 1609.37 254.36 1609.37 256.808V260.588C1609.37 261.038 1609.55 261.182 1609.96 261.182H1610.54V262.676C1610.4 262.694 1610.04 262.73 1609.71 262.73C1608.63 262.73 1607.98 262.28 1607.79 261.308C1607.28 262.244 1606.11 262.892 1604.74 262.892ZM1604.94 261.398C1606.71 261.398 1607.66 260.408 1607.66 258.914V258.14L1604.91 258.698C1603.75 258.914 1603.34 259.364 1603.34 260.102C1603.34 260.93 1603.92 261.398 1604.94 261.398ZM1616.08 262.892C1613.63 262.892 1612.1 260.948 1612.1 257.888C1612.1 254.828 1613.63 252.884 1616.08 252.884C1617.37 252.884 1618.42 253.604 1618.9 254.45V249.896H1620.63V262.676H1619.05L1618.99 261.236C1618.45 262.298 1617.39 262.892 1616.08 262.892ZM1616.33 261.29C1617.93 261.29 1618.9 259.994 1618.9 257.888C1618.9 255.764 1617.93 254.486 1616.29 254.486C1614.82 254.486 1613.9 255.746 1613.9 257.888C1613.9 259.994 1614.82 261.29 1616.33 261.29ZM1627.37 262.892C1624.85 262.892 1623.34 261.47 1623.2 259.67L1624.98 259.562C1625.16 260.642 1625.95 261.29 1627.37 261.29C1628.69 261.29 1629.43 260.93 1629.43 260.156C1629.43 259.4 1629.03 259.076 1627.05 258.716C1624.3 258.212 1623.43 257.366 1623.43 255.818C1623.43 254.144 1624.75 252.884 1627.1 252.884C1629.55 252.884 1630.78 254.342 1631.05 255.998L1629.26 256.106C1629.07 255.152 1628.33 254.486 1627.1 254.486C1625.81 254.486 1625.2 255.062 1625.2 255.8C1625.2 256.7 1625.83 256.988 1627.55 257.294C1630.38 257.798 1631.19 258.554 1631.19 260.156C1631.19 261.866 1629.59 262.892 1627.37 262.892Z" fill="white"/>
<path d="M1324 306.5C1322.9 306.5 1322 307.395 1322 308.5C1322 309.605 1322.9 310.5 1324 310.5V306.5ZM1332.33 310.5C1333.44 310.5 1334.33 309.605 1334.33 308.5C1334.33 307.395 1333.44 306.5 1332.33 306.5V310.5ZM1436.46 306.5C1435.35 306.5 1434.46 307.395 1434.46 308.5C1434.46 309.605 1435.35 310.5 1436.46 310.5V306.5ZM1563.38 226.31C1564.48 226.31 1565.27 224.957 1564.71 224.001L1555.83 208.619C1555.28 207.663 1553.72 207.663 1553.17 208.619L1544.29 224.001C1543.73 224.957 1544.52 226.31 1545.62 226.31H1563.38ZM1462 289.25H1464H1462ZM1462 289.25H1464H1462ZM1324 310.5H1332.33V306.5H1324V310.5ZM1436.46 310.5H1442.75V306.5H1436.46V310.5ZM1481.25 272H1530.5V268H1481.25V272ZM1556.5 246V224.31H1552.5V246H1556.5ZM1530.5 272C1544.86 272 1556.5 260.359 1556.5 246H1552.5C1552.5 258.15 1542.65 268 1530.5 268V272ZM1464 289.25C1464 279.723 1471.72 272 1481.25 272V268C1469.51 268 1460 277.514 1460 289.25H1464ZM1442.75 310.5C1454.49 310.5 1464 300.986 1464 289.25H1460C1460 298.777 1452.28 306.5 1442.75 306.5V310.5Z" fill="#E1E3E8"/>
<path d="M1347.53 315.216C1344.85 315.216 1343.1 313.254 1343.1 310.212C1343.1 307.17 1344.85 305.208 1347.53 305.208C1349.71 305.208 1351.26 306.486 1351.64 308.646L1349.84 308.772C1349.55 307.53 1348.72 306.81 1347.53 306.81C1345.89 306.81 1344.9 308.088 1344.9 310.212C1344.9 312.336 1345.88 313.614 1347.53 313.614C1348.72 313.614 1349.62 312.894 1349.89 311.508L1351.69 311.616C1351.31 313.794 1349.73 315.216 1347.53 315.216ZM1357.91 315.216C1355.25 315.216 1353.5 313.272 1353.5 310.212C1353.5 307.152 1355.25 305.208 1357.91 305.208C1360.56 305.208 1362.32 307.152 1362.32 310.212C1362.32 313.272 1360.56 315.216 1357.91 315.216ZM1357.91 313.614C1359.55 313.614 1360.5 312.336 1360.5 310.212C1360.5 308.088 1359.55 306.81 1357.91 306.81C1356.25 306.81 1355.32 308.088 1355.32 310.212C1355.32 312.336 1356.25 313.614 1357.91 313.614ZM1364.8 315V305.424H1366.36L1366.42 307.152C1366.9 305.82 1368.02 305.208 1369.3 305.208C1371.44 305.208 1372.47 306.774 1372.47 308.826V315H1370.74V309.312C1370.74 307.602 1370.2 306.702 1368.87 306.702C1367.5 306.702 1366.53 307.62 1366.53 309.348V315H1364.8ZM1379.28 315.216C1376.76 315.216 1375.25 313.794 1375.1 311.994L1376.89 311.886C1377.07 312.966 1377.86 313.614 1379.28 313.614C1380.59 313.614 1381.33 313.254 1381.33 312.48C1381.33 311.724 1380.94 311.4 1378.96 311.04C1376.2 310.536 1375.34 309.69 1375.34 308.142C1375.34 306.468 1376.65 305.208 1379.01 305.208C1381.46 305.208 1382.68 306.666 1382.95 308.322L1381.17 308.43C1380.97 307.476 1380.23 306.81 1379.01 306.81C1377.71 306.81 1377.1 307.386 1377.1 308.124C1377.1 309.024 1377.73 309.312 1379.46 309.618C1382.29 310.122 1383.1 310.878 1383.1 312.48C1383.1 314.19 1381.49 315.216 1379.28 315.216ZM1388.89 315.216C1387.07 315.216 1385.88 313.902 1385.88 311.616V305.424H1387.61V311.148C1387.61 312.93 1388.22 313.722 1389.44 313.722C1390.83 313.722 1391.68 312.768 1391.68 311.094V305.424H1393.4V315H1391.78L1391.77 313.47C1391.24 314.604 1390.24 315.216 1388.89 315.216ZM1395.54 315V305.424H1397.07L1397.12 306.81C1397.46 305.802 1398.15 305.208 1399.03 305.208C1400 305.208 1400.58 305.838 1400.83 307.062C1401.15 305.91 1401.86 305.208 1402.86 305.208C1404.39 305.208 1405.04 306.234 1405.04 308.664V315H1403.33V308.88C1403.33 307.278 1403.01 306.702 1402.32 306.702C1401.62 306.702 1401.15 307.386 1401.15 308.898V315H1399.43V308.88C1399.43 307.332 1399.16 306.702 1398.42 306.702C1397.72 306.702 1397.25 307.386 1397.25 308.898V315H1395.54ZM1411.01 315.216C1408.31 315.216 1406.6 313.254 1406.6 310.212C1406.6 307.17 1408.31 305.208 1410.96 305.208C1413.44 305.208 1415.26 306.99 1415.26 310.248V310.698H1408.4C1408.53 312.642 1409.5 313.614 1411.01 313.614C1412.18 313.614 1412.94 313.02 1413.26 312.084L1415.1 312.228C1414.56 313.992 1413.08 315.216 1411.01 315.216ZM1413.39 309.312C1413.23 307.62 1412.27 306.81 1410.96 306.81C1409.59 306.81 1408.67 307.674 1408.42 309.312H1413.39ZM1421.66 315.216C1419.14 315.216 1417.63 313.794 1417.48 311.994L1419.27 311.886C1419.45 312.966 1420.24 313.614 1421.66 313.614C1422.97 313.614 1423.71 313.254 1423.71 312.48C1423.71 311.724 1423.32 311.4 1421.34 311.04C1418.58 310.536 1417.72 309.69 1417.72 308.142C1417.72 306.468 1419.03 305.208 1421.39 305.208C1423.84 305.208 1425.06 306.666 1425.33 308.322L1423.55 308.43C1423.35 307.476 1422.61 306.81 1421.39 306.81C1420.09 306.81 1419.48 307.386 1419.48 308.124C1419.48 309.024 1420.11 309.312 1421.84 309.618C1424.67 310.122 1425.48 310.878 1425.48 312.48C1425.48 314.19 1423.87 315.216 1421.66 315.216Z" fill="white"/>
</svg>